<svg width="219" height="72" viewBox="0 0 219 72" fill="none" xmlns="http://www.w3.org/2000/svg">
<g clip-path="url(#clip0_814_99081)">
<path d="M207.42 0.553833H27.8085C21.8214 0.553833 16.7797 5.22196 16.307 11.156L2.75737 16.2989C0.787948 17.011 -0.236153 19.3055 0.47284 21.2835C0.866725 22.3912 1.73327 23.2615 2.83615 23.578L16.2282 28.0879V59.8154C16.2282 66.2242 21.4275 71.4461 27.8085 71.4461H207.42C213.801 71.4461 219 66.2242 219 59.8154V12.1846C219 5.77581 213.801 0.553833 207.42 0.553833Z" fill="#001C63"/>
<path d="M44.5091 19.3055C45.3757 17.8813 47.03 17.011 48.6843 17.0901C49.2358 17.0901 49.7084 17.1692 50.2599 17.2483C50.6537 17.3274 51.1264 17.4857 51.5203 17.723C51.9142 17.8813 52.2293 18.1187 52.5444 18.356C52.7807 18.5934 53.0958 18.8307 53.3322 19.0681C53.726 18.7516 54.0412 18.356 54.2775 17.9604C54.5926 17.6439 54.7501 17.1692 54.7501 16.7736C54.7501 16.5362 54.6714 16.2989 54.5926 16.0615C54.435 15.8241 54.2775 15.6659 54.1199 15.5077C53.8836 15.3494 53.6473 15.1121 53.4109 14.9538C53.0171 14.7165 52.6232 14.4791 52.2293 14.3209C51.6778 14.0835 51.1264 13.9252 50.575 13.8461C49.866 13.6879 49.157 13.6088 48.448 13.6088C47.03 13.6088 45.612 13.8461 44.3516 14.4C43.2487 14.8747 42.2246 15.6659 41.4368 16.6154C40.6491 17.5648 40.0188 18.7516 39.7037 19.9384C39.3099 21.2835 39.0735 22.7077 39.1523 24.1318C39.1523 25.556 39.3099 26.9802 39.7037 28.3252C40.0188 29.5121 40.5703 30.6198 41.3581 31.6483C42.1458 32.5978 43.1699 33.3099 44.2728 33.7846C45.612 34.3384 47.03 34.5758 48.448 34.5758C49.157 34.5758 49.9447 34.4967 50.6537 34.4176C51.2052 34.2593 51.7566 34.1011 52.3081 33.8637C52.7019 33.7055 53.0958 33.5472 53.4109 33.3099C53.6473 33.1516 53.8048 32.9934 54.0411 32.8351C54.1987 32.6769 54.3563 32.4395 54.5138 32.2022C54.5926 31.9648 54.6714 31.8066 54.6714 31.5692C54.6714 31.3318 54.5926 31.1736 54.5138 30.9362C54.435 30.6989 54.2775 30.5406 54.1987 30.3033C54.0412 30.0659 53.8836 29.9077 53.726 29.6703L53.3322 29.1165C53.1746 29.2747 52.9383 29.4329 52.6232 29.6703C52.3081 29.9077 51.9929 30.145 51.6778 30.3033C51.284 30.5406 50.8901 30.6989 50.4962 30.8571C50.0235 31.0154 49.4721 31.0945 48.9206 31.0945C47.9753 31.0945 47.1088 30.9362 46.2422 30.4615C45.5332 30.0659 44.9818 29.5121 44.5091 28.8791C44.0365 28.167 43.7214 27.3758 43.5638 26.5846C43.4063 25.7143 43.3275 24.7648 43.3275 23.8945C43.3275 23.0241 43.4063 22.1538 43.5638 21.2835C43.7214 20.7296 44.0365 20.0176 44.5091 19.3055Z" fill="#002E47"/>
<path d="M48.1327 36C46.636 36 45.1392 35.6835 43.7212 35.1297C42.382 34.5758 41.2004 33.7055 40.3338 32.5978C39.3885 31.4901 38.7583 30.2242 38.3644 28.8C37.9705 27.2967 37.7342 25.7934 37.8129 24.211C37.8129 22.7077 37.9705 21.1253 38.4432 19.622C38.837 18.1978 39.546 16.9319 40.4126 15.8242C41.3579 14.7165 42.5396 13.8462 43.8 13.2923C45.2968 12.6593 46.8723 12.3429 48.4478 12.422C49.2356 12.422 50.0234 12.5011 50.8111 12.6593C51.4414 12.8176 52.0716 12.9758 52.7018 13.2132C53.1745 13.3714 53.6471 13.6088 54.1198 13.9253C54.4349 14.0835 54.6712 14.3209 54.9863 14.5582C55.3014 14.8747 55.5378 15.1121 55.6953 15.4286C55.9316 15.8242 56.0892 16.2989 56.0892 16.7736C56.0892 17.4857 55.7741 18.1978 55.3802 18.7517C55.0651 19.1473 54.6712 19.622 54.2773 20.0176C53.8047 20.4923 52.9381 20.4923 52.4655 19.9385C52.2291 19.7011 51.9928 19.4637 51.7565 19.3055C51.5201 19.0681 51.2838 18.9099 50.9687 18.8308C50.6536 18.6725 50.3385 18.5143 49.9446 18.4352C49.5507 18.356 49.1568 18.2769 48.6842 18.2769C47.345 18.1978 46.2421 18.8308 45.5331 19.8593C45.218 20.4132 44.9817 21.0462 44.8241 21.6791C44.6665 22.4703 44.5878 23.2615 44.5878 24.0528C44.5878 24.844 44.6665 25.7143 44.8241 26.5055C44.9817 27.1385 45.218 27.7714 45.5331 28.3253C45.8482 28.8 46.3209 29.1956 46.7935 29.5121C47.345 29.8286 48.054 29.9868 48.7629 29.9868C49.2356 29.9868 49.6295 29.9077 49.9446 29.8286C50.2597 29.7495 50.5748 29.5912 50.8899 29.433C51.1263 29.2747 51.4414 29.1165 51.5989 28.9582C51.8352 28.7209 52.0716 28.5626 52.2291 28.4044C52.4655 28.167 52.8593 28.0879 53.1745 28.0879C53.4896 28.0879 53.8047 28.3253 54.041 28.5626L54.4349 29.0374C54.5924 29.2747 54.8288 29.5121 54.9863 29.7495C55.1439 30.0659 55.3014 30.3033 55.3802 30.5407C55.5378 30.8571 55.6165 31.2528 55.6953 31.6484C55.6953 32.1231 55.6165 32.5187 55.3802 32.9143C55.3802 32.9143 55.3802 32.9934 55.3014 32.9934C55.1439 33.3099 54.9076 33.6264 54.5924 33.8637C54.3561 34.1011 54.041 34.3385 53.8047 34.4967C53.4108 34.7341 52.9381 34.9714 52.4655 35.1297C51.914 35.367 51.2838 35.6044 50.6536 35.6835C49.787 35.8418 48.9993 35.9209 48.1327 35.9209C48.3691 36 48.2115 36 48.1327 36ZM48.2115 15.033C47.0299 15.033 45.927 15.2703 44.8241 15.7451C43.8788 16.1407 43.0122 16.7736 42.382 17.5648C41.673 18.4352 41.2004 19.3846 40.8852 20.4132C40.4914 21.6791 40.3338 22.9451 40.3338 24.2901C40.3338 25.6352 40.4914 26.9011 40.8065 28.167C41.1216 29.1956 41.5942 30.1451 42.2245 31.0154C42.8547 31.8066 43.7212 32.4396 44.6665 32.8352C45.8482 33.3099 47.0299 33.5473 48.2903 33.5473C48.9993 33.5473 49.6295 33.4681 50.3385 33.389C50.8111 33.3099 51.2838 33.1517 51.6777 32.9143C52.0716 32.756 52.3079 32.5978 52.623 32.4396C52.7806 32.3604 52.8594 32.2813 53.0169 32.1231C53.0957 32.044 53.1745 31.9648 53.2532 31.8857V31.8066C53.1745 31.6484 53.0957 31.4901 52.9381 31.2528C52.7018 31.411 52.3867 31.5692 52.1504 31.7275C51.6777 31.9648 51.205 32.2022 50.7324 32.3604C50.1022 32.5187 49.4719 32.6769 48.8417 32.5978C47.7388 32.5978 46.636 32.3604 45.6119 31.8857C44.7453 31.411 43.9575 30.6989 43.4061 29.9077C42.8547 29.0374 42.4608 28.167 42.3032 27.1385C42.0669 26.189 41.9881 25.1604 41.9881 24.211C41.9881 23.2615 42.0669 22.3121 42.3032 21.3626C42.4608 20.4132 42.8547 19.5429 43.3273 18.6725C44.509 16.8528 46.5572 15.7451 48.6842 15.8242C49.2356 15.8242 49.9446 15.9033 50.5748 16.0615C51.0475 16.2198 51.5989 16.378 52.0716 16.6154C52.4655 16.8528 52.8593 17.0901 53.1745 17.3275C53.1745 17.3275 53.1745 17.3275 53.1745 17.2484C53.332 17.0901 53.332 16.9319 53.4108 16.7736C53.332 16.6154 53.2532 16.5363 53.1745 16.4571C53.0169 16.2989 52.8594 16.2198 52.623 16.0615C52.3079 15.8242 51.9928 15.6659 51.6777 15.5868C51.205 15.4286 50.7324 15.2703 50.2597 15.1121C49.7083 15.033 49.0781 15.033 48.4478 15.033C48.3691 15.033 48.2903 15.033 48.2115 15.033Z" fill="#002E47"/>
<path d="M69.4029 25.0813C69.4029 24.2901 69.3242 23.4198 69.0878 22.6286C68.9303 21.9956 68.5364 21.3626 68.0637 20.8879C67.5123 20.4132 66.8821 20.0176 66.2519 19.8593C65.3853 19.622 64.44 19.5428 63.4947 19.5428C62.7857 19.5428 61.9979 19.622 61.2889 19.7011C60.6587 19.7802 60.0285 20.0176 59.3983 20.1758C58.9256 20.3341 58.5317 20.5714 58.1378 20.8879C57.9015 21.0461 57.7439 21.3626 57.6652 21.6791C57.6652 21.9956 57.8227 22.3121 57.9015 22.6286C58.0591 23.0242 58.2954 23.4198 58.5317 23.7363C59.1619 23.3406 59.7922 23.0242 60.5011 22.7868C61.2101 22.4703 61.9979 22.3912 62.7857 22.3912C63.4947 22.3121 64.2037 22.4703 64.7551 22.8659C65.2278 23.2615 65.4641 23.8945 65.3853 24.5275V25.0813H64.7551C64.5188 25.0813 64.2824 25.0813 64.0461 25.0813C63.2583 25.1604 62.4706 25.2395 61.6828 25.3187C60.895 25.4769 60.0285 25.7143 59.3195 26.1099C58.6105 26.4264 57.9015 26.9802 57.4288 27.6132C56.8774 28.3253 56.6411 29.1956 56.7198 30.145C56.7198 30.8571 56.8774 31.5692 57.1137 32.2022C57.3501 32.756 57.744 33.2308 58.2166 33.6264C58.6893 33.9428 59.1619 34.1802 59.7134 34.3385C60.2648 34.4967 60.8163 34.5758 61.3677 34.5758C62.2342 34.5758 63.1796 34.4176 64.0461 34.1011C64.6763 33.7846 65.3065 33.389 65.7792 32.9143C65.858 33.389 66.0943 33.7846 66.4882 34.1011C66.9609 34.4176 67.5123 34.5758 68.1425 34.4967C68.4576 34.4967 68.7727 34.4967 69.0878 34.4176C69.4029 34.3384 69.7968 34.2593 70.1119 34.1011C69.5605 32.9934 69.3242 31.8066 69.4029 30.6198V25.0813ZM65.5429 30.3033C65.5429 30.4615 65.4641 30.6989 65.3065 30.8571C65.149 31.0945 64.9127 31.2527 64.6763 31.411C64.3612 31.5692 64.1249 31.7275 63.8098 31.8066C63.4947 31.8857 63.1008 31.9648 62.7069 31.9648C62.0767 32.0439 61.5252 31.8066 61.0526 31.3319C60.7375 30.9363 60.5799 30.3824 60.5799 29.9077C60.5799 29.433 60.6587 29.0374 60.9738 28.6417C61.2101 28.3253 61.5252 28.0088 61.9191 27.8505C62.313 27.6132 62.7857 27.4549 63.2583 27.4549C63.731 27.3758 64.2037 27.2967 64.7551 27.2967H65.149H65.5429V30.3033Z" fill="#002E47"/>
<path d="M61.5252 35.9208C61.4464 35.9208 61.3676 35.9208 61.2889 35.9208C60.6587 35.9208 60.0284 35.8417 59.3194 35.6834C58.6105 35.5252 57.9802 35.2087 57.4288 34.734C56.7986 34.2593 56.2471 33.5472 55.932 32.8351C55.5381 32.0439 55.3806 31.0944 55.3806 30.2241C55.3018 29.0373 55.6957 27.9296 56.3259 26.9801C56.9561 26.1889 57.6651 25.556 58.5317 25.1604C58.1378 25.1604 57.7439 25.0021 57.5076 24.6856C57.1925 24.29 56.8774 23.8153 56.641 23.2615C56.4835 22.8659 56.3259 22.3911 56.2471 21.9164C56.2471 21.8373 56.2471 21.7582 56.2471 21.6791C56.3259 20.967 56.7198 20.334 57.2712 19.9384C57.7439 19.6219 58.2166 19.3054 58.8468 19.0681C59.5558 18.8307 60.2648 18.5933 60.9738 18.5142C61.7615 18.356 62.6281 18.2769 63.4158 18.2769C64.4399 18.2769 65.4641 18.356 66.4882 18.6725C67.3547 18.9098 68.2212 19.3845 68.8515 20.0175C69.4817 20.6505 69.9543 21.4417 70.1907 22.312C70.427 23.2615 70.5846 24.1318 70.5058 25.0813V30.778V30.8571C70.427 31.8065 70.6633 32.756 71.0572 33.6263C71.2148 33.9428 71.2148 34.3384 71.136 34.6549C70.9784 34.9714 70.7421 35.2878 70.427 35.367C70.0331 35.5252 69.6392 35.6834 69.1666 35.7626C68.7727 35.8417 68.3788 35.8417 67.9849 35.8417C67.1184 35.9208 66.3306 35.6834 65.6216 35.2087C65.6216 35.2087 65.5428 35.2087 65.5428 35.1296C65.464 35.0505 65.3065 34.9714 65.2277 34.8131C64.9914 34.9714 64.6763 35.1296 64.3612 35.2087C63.5734 35.7626 62.5493 35.9208 61.5252 35.9208ZM61.0525 26.901C60.6587 26.9802 60.3435 27.1384 60.0284 27.3758C59.477 27.6922 58.9256 28.0878 58.6105 28.5626C58.2953 29.0373 58.1378 29.5911 58.1378 30.2241V30.3032C58.1378 30.8571 58.2166 31.3318 58.4529 31.8065C58.6104 32.123 58.8468 32.4395 59.1619 32.756C59.477 32.9933 59.7921 33.1516 60.186 33.2307C60.5799 33.3889 61.0525 33.3889 61.4464 33.3889C61.9191 33.3889 62.3917 33.3889 62.7856 33.2307C61.8403 33.3098 60.895 32.9142 60.186 32.2021L60.1072 32.123C59.6346 31.49 59.3194 30.6988 59.3194 29.9076C59.3194 29.1955 59.477 28.4834 59.9497 27.9296C60.186 27.534 60.5799 27.1384 61.0525 26.901ZM67.1971 33.1516C67.4335 33.3098 67.7486 33.3889 67.9849 33.3098H68.0637H68.3C68.0637 32.4395 67.9849 31.5692 68.0637 30.6988V25.0813C68.0637 24.3692 67.9849 23.6571 67.8274 23.0241C67.6698 22.6285 67.5122 22.2329 67.1184 21.8373C66.8033 21.5208 66.3306 21.2834 65.8579 21.1252C65.0702 20.8878 64.2824 20.8087 63.4946 20.8087C62.7856 20.8087 62.1554 20.8878 61.4464 20.967C60.895 21.0461 60.3435 21.2043 59.7921 21.4417C59.477 21.5208 59.2407 21.6791 58.9256 21.9164C58.9256 21.9955 59.0043 22.0747 59.0043 22.0747C59.3194 21.9164 59.6345 21.7582 60.0284 21.5999C60.895 21.2043 61.8403 21.0461 62.7856 21.0461C63.731 20.967 64.6763 21.2043 65.464 21.7582C65.5428 21.8373 65.6216 21.8373 65.7004 21.9164C66.4094 22.6285 66.8033 23.578 66.7245 24.6065V25.0813C66.7245 25.556 66.4882 25.8725 66.173 26.1098C66.5669 26.3472 66.8033 26.7428 66.8033 27.2175V30.3032V30.3823C66.7245 30.8571 66.5669 31.3318 66.2518 31.6483V31.7274C66.7245 31.8856 67.0396 32.2812 67.1184 32.756C67.0396 32.9142 67.1184 33.0725 67.1971 33.1516ZM62.0766 30.4615C62.2342 30.6197 62.3917 30.6197 62.6281 30.6197H62.7856C63.022 30.6197 63.2583 30.6197 63.4946 30.5406C63.731 30.4615 63.8885 30.3823 64.1248 30.3032C64.2036 30.2241 64.2824 30.2241 64.3612 30.145V28.6417C64.0461 28.6417 63.8097 28.7208 63.4946 28.7208C63.1795 28.7999 62.8644 28.8791 62.5493 29.0373C62.313 29.1164 62.1554 29.2747 62.0766 29.4329C61.9979 29.512 61.9191 29.6703 61.9979 29.8285V29.9076C61.9191 30.145 61.9191 30.3032 62.0766 30.4615ZM62.7856 23.7362C62.1554 23.7362 61.604 23.8153 61.0525 24.0527C60.7374 24.2109 60.4223 24.29 60.1072 24.4483C60.5799 24.29 61.0525 24.1318 61.5252 24.0527C62.313 23.8944 63.022 23.8153 63.8097 23.8153C63.5734 23.7362 63.2583 23.6571 62.9432 23.6571C62.8644 23.6571 62.8644 23.6571 62.7856 23.6571V23.7362Z" fill="#002E47"/>
<path d="M84.8428 21.1253C84.3701 20.5714 83.7399 20.1758 83.0309 19.9385C82.3219 19.7011 81.6129 19.5428 80.9039 19.5428C80.0374 19.5428 79.092 19.7011 78.3043 20.0967C77.7528 20.4132 77.2014 20.8088 76.8075 21.2835C76.7287 20.8088 76.4136 20.4132 75.941 20.1758C75.3895 19.9385 74.8381 19.8593 74.2079 19.8593H73.6564C73.4989 19.8593 73.3413 19.8593 73.2625 19.9385L72.8687 20.0176V40.7472H76.9651V33.2308C77.0438 33.389 77.1226 33.4681 77.2802 33.5472C77.5165 33.7055 77.674 33.9428 77.9892 34.022C78.3043 34.1802 78.6982 34.3385 79.092 34.4176C79.5647 34.5758 80.1161 34.6549 80.5888 34.5758C81.2978 34.5758 82.0068 34.4176 82.7158 34.1802C83.4248 33.9428 84.055 33.4681 84.6064 32.9143C85.2366 32.2022 85.7093 31.411 86.0244 30.5406C86.4183 29.2747 86.5759 28.0088 86.5759 26.6637C86.5759 25.4769 86.4183 24.3692 86.1032 23.2615C85.7881 22.5494 85.3942 21.8374 84.8428 21.1253ZM81.5341 30.2242C81.0615 31.0154 80.1949 31.4901 79.3284 31.411C78.8557 31.411 78.383 31.3319 77.9104 31.0945C77.5953 30.9363 77.2802 30.778 77.0438 30.5406V24.1319C77.0438 23.7363 77.2014 23.3406 77.5165 23.1033C77.9892 22.7077 78.6194 22.5494 79.2496 22.6286C79.7222 22.6286 80.1949 22.7077 80.6676 22.945C81.0615 23.1824 81.3766 23.4198 81.6129 23.8154C81.8492 24.211 82.0068 24.6857 82.0856 25.1604C82.1643 25.7143 82.2431 26.2681 82.2431 26.822C82.3219 28.0879 82.0856 29.1956 81.5341 30.2242Z" fill="#002E47"/>
<path d="M76.9652 41.9341H72.8688C72.1598 41.9341 71.6084 41.3802 71.6084 40.6681V19.9385C71.6084 19.3055 72.0811 18.7516 72.7113 18.6725L73.1052 18.5934C73.2627 18.5934 73.4203 18.5143 73.6566 18.5143H74.2868C74.9958 18.5143 75.7836 18.6725 76.4926 18.989C76.7289 19.0681 76.8865 19.2264 77.1228 19.3846C77.3591 19.2264 77.5167 19.1472 77.753 18.989C78.7771 18.4352 79.88 18.1978 80.9829 18.2769C81.7706 18.2769 82.6372 18.4352 83.4249 18.7516C84.2915 19.0681 85.0793 19.622 85.7095 20.3341C86.4185 21.1253 86.8911 21.9956 87.2062 23.0242C87.6001 24.2901 87.7577 25.556 87.7577 26.822C87.7577 28.2462 87.6001 29.6703 87.1275 31.0154C86.8124 32.1231 86.1821 33.0725 85.4731 33.9429C84.7642 34.6549 83.9764 35.2088 83.0311 35.5253C82.2433 35.8418 81.3767 35.9209 80.5102 36C79.88 36 79.2498 35.9209 78.6196 35.7626C78.462 35.6835 78.3044 35.6835 78.1469 35.6044V40.6681C78.3044 41.3802 77.6742 41.9341 76.9652 41.9341ZM74.208 39.4022H75.7048V33.2308C75.7048 32.6769 76.0199 32.2022 76.5713 32.044C76.6501 32.044 76.6501 32.044 76.7289 31.9648C76.5713 31.8066 76.335 31.7275 76.1775 31.5692C75.8624 31.3319 75.7048 30.9363 75.7048 30.6198V24.211C75.7048 23.578 75.9411 23.0242 76.335 22.5494C75.9411 22.3912 75.7048 22.0747 75.5472 21.6C75.5472 21.5209 75.4685 21.4418 75.3897 21.3626C75.0746 21.2044 74.6807 21.1253 74.2868 21.1253H74.208V39.4022ZM78.1469 32.5978C78.3044 32.6769 78.3832 32.8352 78.5408 32.8352C78.8559 32.9934 79.0922 33.0725 79.4073 33.1516C79.8012 33.2308 80.1951 33.3099 80.5102 33.3099C81.1404 33.3099 81.6919 33.2308 82.2433 32.9934C82.7947 32.8352 83.2674 32.5187 83.6613 32.044C84.1339 31.4901 84.5278 30.8571 84.7642 30.1451C85.0793 29.0374 85.2368 27.8505 85.2368 26.7429C85.2368 25.6352 85.158 24.6857 84.8429 23.6571C84.6066 23.0242 84.2915 22.4703 83.8976 21.9165C83.5825 21.5209 83.1098 21.2044 82.6372 21.0462C82.0857 20.8879 81.5343 20.7297 80.9829 20.7297C80.2739 20.7297 79.5649 20.8879 79.0134 21.2044C79.0134 21.2044 78.9347 21.2044 78.9347 21.2835H79.4073C80.1163 21.2835 80.7465 21.4418 81.3767 21.7582C82.007 22.0747 82.4796 22.5494 82.7947 23.1033C83.1098 23.6571 83.3462 24.2901 83.4249 24.9231C83.5037 25.556 83.5825 26.189 83.5825 26.822C83.6613 28.167 83.3462 29.5912 82.716 30.8571V30.9363C82.007 32.1231 80.7465 32.8352 79.3285 32.756C78.9347 32.756 78.5408 32.6769 78.1469 32.5978ZM79.3285 30.1451C79.8012 30.1451 80.1951 29.9868 80.4314 29.5912C80.8253 28.8 81.0616 27.8505 80.9829 26.9011V26.822C80.9829 26.3473 80.9829 25.8725 80.8253 25.3978C80.7465 25.0813 80.6677 24.7648 80.5102 24.4483C80.4314 24.2901 80.2739 24.1319 80.1163 24.0527C79.88 23.9736 79.6436 23.8945 79.3285 23.8945C79.2498 23.8945 79.171 23.8945 79.171 23.8945C78.9347 23.8945 78.6196 23.8945 78.3832 24.0527V24.1319V29.8286C78.462 29.8286 78.462 29.9077 78.5408 29.9077C78.6983 30.1451 79.0134 30.1451 79.3285 30.1451C79.2498 30.1451 79.2498 30.1451 79.3285 30.1451Z" fill="#002E47"/>
<path d="M97.4472 30.4616C97.3684 30.5407 97.2896 30.6198 97.1321 30.6989C96.9745 30.8572 96.817 30.9363 96.5806 31.0154C96.3443 31.1736 96.108 31.2528 95.8717 31.3319C95.6353 31.411 95.3202 31.4901 95.0839 31.4901C93.981 31.4901 93.3508 30.778 93.3508 29.3539V22.9451H97.526V19.9385H93.3508V17.8022C93.3508 17.4066 93.272 16.9319 93.1145 16.6154C92.9569 16.2989 92.7206 16.0616 92.4842 15.9033C92.2479 15.7451 91.9328 15.5868 91.6177 15.5077C91.3026 15.4286 90.9875 15.4286 90.6724 15.4286H90.1997C90.0422 15.4286 89.8846 15.4286 89.7271 15.5077L89.2544 15.5868V29.5912C89.2544 30.066 89.2544 30.4616 89.3332 30.9363C89.3332 31.3319 89.4907 31.8066 89.5695 32.2022C89.8058 32.9934 90.3573 33.6264 90.9875 34.1011C91.854 34.655 92.8781 34.8923 93.9022 34.8132C94.5324 34.8132 95.0839 34.7341 95.6353 34.655C96.108 34.5758 96.5806 34.3385 97.0533 34.1011C97.3684 33.9429 97.6835 33.7055 97.9199 33.389C98.1562 33.1517 98.235 32.9143 98.235 32.5978C98.235 32.2813 98.1562 31.9649 97.9986 31.6484C97.9199 31.1736 97.6835 30.778 97.4472 30.4616Z" fill="#002E47"/>
<path d="M93.745 36C92.5634 36 91.4605 35.6835 90.5152 35.0505C89.5698 34.4176 88.8608 33.5473 88.5457 32.4396C88.3882 31.9648 88.2306 31.411 88.2306 30.8571C88.1519 30.3824 88.1519 29.8286 88.1519 29.3538V15.4286C88.1519 14.7956 88.6245 14.2418 89.2547 14.1626L89.7274 14.0835C89.8849 14.0835 90.0425 14.0044 90.2788 14.0044H90.8303C91.2242 14.0044 91.618 14.0044 92.0119 14.0835C92.4846 14.1626 92.9572 14.4 93.3511 14.6374C93.8238 14.9538 94.1389 15.3494 94.3752 15.9033C94.6116 16.4571 94.7691 17.0901 94.7691 17.7231V18.5143H97.6839C98.3929 18.5143 98.9443 19.0681 98.9443 19.7802V22.9451C98.9443 23.6571 98.3929 24.211 97.6839 24.211H94.7691V29.3538C94.7691 30.1451 94.9267 30.1451 95.163 30.1451C95.3206 30.1451 95.3993 30.1451 95.5569 30.0659C95.7144 29.9868 95.872 29.9077 96.0295 29.8286C96.1083 29.7495 96.2659 29.6703 96.3447 29.5912C96.4234 29.5121 96.5022 29.433 96.581 29.433C96.8173 29.1956 97.2112 29.0374 97.6051 29.0374C97.999 29.0374 98.3141 29.2747 98.5504 29.5912C98.8655 29.9868 99.1018 30.4615 99.3382 30.8571C99.5745 31.3319 99.7321 31.8066 99.7321 32.3604C99.7321 32.9934 99.4957 33.6264 99.1019 34.022C98.7867 34.4176 98.3929 34.7341 97.8414 34.9714C97.29 35.2879 96.7385 35.4462 96.1083 35.6044C95.4781 35.7626 94.7691 35.8418 94.0601 35.8418C93.9813 36 93.8238 36 93.745 36ZM90.5939 16.6154V29.433C90.5939 29.8286 90.5939 30.2242 90.6727 30.5407V30.6198C90.6727 30.9363 90.7515 31.2527 90.909 31.5692C91.0666 32.044 91.4605 32.5187 91.8544 32.8352C92.4846 33.2308 93.1936 33.389 93.9813 33.3099H94.0601C94.5328 33.3099 95.0842 33.2308 95.5569 33.1516C95.9508 33.0725 96.2659 32.9143 96.6598 32.756C96.8173 32.6769 97.0537 32.5187 97.1324 32.3604C97.1324 32.2813 97.1324 32.2813 97.1324 32.2022C96.8961 32.2813 96.6598 32.4396 96.4234 32.5187C96.0295 32.6769 95.6357 32.756 95.2418 32.756C93.3511 32.756 92.2483 31.4901 92.2483 29.3538V22.9451C92.2483 22.233 92.7997 21.6791 93.5087 21.6791H96.4234V21.2044H93.5087C92.7997 21.2044 92.2483 20.6505 92.2483 19.9385V17.8022C92.2483 17.5648 92.2483 17.3275 92.0907 17.0901C92.0907 17.011 92.0119 16.9319 91.8544 16.8527C91.7756 16.7736 91.618 16.6945 91.4605 16.6945C91.2242 16.6945 90.9878 16.6154 90.7515 16.6154H90.5939Z" fill="#002E47"/>
<path d="M111.627 21.5209C111.076 20.8879 110.445 20.4132 109.736 20.0967C108.87 19.7011 107.846 19.5428 106.9 19.5428C106.034 19.5428 105.167 19.7011 104.38 19.9385C103.592 20.2549 102.804 20.6505 102.174 21.2835C101.465 21.9165 100.913 22.7077 100.598 23.578C100.204 24.6066 99.9681 25.7143 99.9681 26.822C99.8893 28.167 100.126 29.433 100.598 30.6989C100.992 31.6483 101.622 32.4395 102.331 33.1516C103.04 33.7846 103.907 34.1802 104.773 34.4176C105.719 34.6549 106.585 34.8132 107.531 34.8132C108.476 34.8132 109.343 34.7341 110.209 34.4967C110.839 34.3384 111.469 34.022 112.021 33.7055C112.494 33.4681 112.73 32.9934 112.809 32.5187C112.809 32.1231 112.651 31.7275 112.415 31.3319C112.178 30.9363 111.942 30.5406 111.627 30.145L110.997 30.6989C110.76 30.9363 110.524 31.0945 110.209 31.2527C109.894 31.411 109.5 31.5692 109.185 31.6483C108.791 31.7275 108.318 31.8066 107.846 31.8066C106.743 31.8857 105.719 31.4901 105.01 30.6989C104.38 29.9077 104.064 28.9582 103.986 27.9297H112.809C112.809 27.7714 112.809 27.6923 112.887 27.5341C112.887 27.3758 112.887 27.2176 112.887 26.9802C112.887 26.7428 112.887 26.6637 112.887 26.4264V26.0308C112.887 25.2396 112.809 24.4483 112.572 23.6571C112.494 22.7868 112.1 22.0747 111.627 21.5209ZM104.064 25.556C103.986 24.6857 104.301 23.8945 104.773 23.1824C105.246 22.6286 106.034 22.3121 106.743 22.3121C107.531 22.233 108.318 22.5494 108.791 23.1824C109.185 23.8945 109.421 24.7648 109.343 25.556H104.064Z" fill="#002E47"/>
<path d="M107.767 36.0792C107.688 36.0792 107.609 36.0792 107.609 36.0792C106.585 36.0792 105.561 35.9209 104.537 35.6835C103.434 35.3671 102.489 34.8923 101.622 34.1803C100.677 33.389 99.968 32.3605 99.4953 31.2528C98.9439 29.8286 98.7075 28.3253 98.7075 26.9011C98.7075 25.6352 98.8651 24.3693 99.4165 23.1825C99.8104 22.1539 100.519 21.2044 101.307 20.4132C102.095 19.7011 102.961 19.1473 103.986 18.8308C104.931 18.5143 105.955 18.3561 106.9 18.3561C108.003 18.3561 109.185 18.5143 110.209 18.989C111.154 19.3846 111.942 20.0176 112.572 20.7297C113.202 21.4418 113.596 22.3912 113.911 23.2616C114.148 24.1319 114.305 25.0814 114.305 25.9517V27.455C114.305 27.6923 114.305 27.9297 114.227 28.0879C114.148 28.7209 113.596 29.1956 112.966 29.1956H112.572C112.651 29.1956 112.651 29.2748 112.651 29.3539C112.966 29.7495 113.281 30.2242 113.596 30.6989C113.911 31.1737 114.069 31.7275 114.148 32.3605V32.5978C114.069 33.5473 113.518 34.3385 112.73 34.8132C112.1 35.2879 111.391 35.6044 110.603 35.7627C109.736 35.9209 108.791 36.0792 107.767 36.0792ZM107.609 33.4682C108.397 33.4682 109.185 33.389 109.973 33.1517C110.445 32.9934 110.918 32.8352 111.391 32.5187C111.469 32.5187 111.469 32.4396 111.548 32.4396C111.627 32.4396 111.627 32.3605 111.627 32.3605C111.627 32.2022 111.548 32.044 111.469 31.9649C111.312 32.044 111.154 32.2022 110.918 32.2814C110.524 32.5187 110.051 32.677 109.658 32.7561C109.106 32.9143 108.555 32.9934 108.003 32.9934C106.585 33.0726 105.167 32.5187 104.143 31.4901L104.064 31.411C103.277 30.3825 102.804 29.1956 102.725 27.9297C102.725 27.6132 102.804 27.2176 103.119 26.9803C103.198 26.9011 103.277 26.822 103.434 26.7429C103.04 26.5055 102.725 26.1099 102.725 25.6352C102.646 24.4484 103.04 23.3407 103.749 22.3912C104.537 21.5209 105.561 21.0462 106.664 21.0462C107.846 20.9671 109.027 21.5209 109.736 22.4704L109.815 22.5495C110.366 23.4989 110.603 24.5275 110.524 25.6352C110.524 25.9517 110.367 26.2682 110.13 26.5055H111.627V25.9517C111.627 25.2396 111.548 24.6066 111.312 23.8945C111.154 23.2616 110.839 22.7868 110.524 22.3121C110.13 21.8374 109.658 21.5209 109.106 21.2836C108.397 20.9671 107.609 20.8088 106.822 20.8879C106.034 20.8879 105.325 21.0462 104.695 21.2044C104.064 21.4418 103.434 21.7583 102.961 22.233C102.41 22.7077 102.016 23.3407 101.701 24.0528C101.386 24.9231 101.15 25.8726 101.228 26.822C101.228 28.0088 101.386 29.1956 101.78 30.2242C102.095 30.9363 102.568 31.6484 103.198 32.1231C103.749 32.5978 104.379 32.9143 105.088 33.1517C105.955 33.389 106.743 33.4682 107.609 33.4682ZM106.113 29.7495C106.585 30.2242 107.215 30.4616 107.846 30.3825H108.003C108.318 30.3825 108.633 30.3825 108.949 30.2242C109.185 30.1451 109.5 30.066 109.736 29.9077C109.894 29.8286 110.13 29.6704 110.288 29.5121L110.839 29.0374H105.719C105.797 29.3539 105.955 29.5121 106.113 29.7495ZM105.561 24.2901H107.846C107.767 24.1319 107.767 24.0528 107.688 23.8945C107.531 23.6572 107.215 23.5781 106.9 23.5781C106.822 23.5781 106.743 23.5781 106.664 23.5781C106.27 23.5781 105.955 23.7363 105.719 23.9737C105.719 24.1319 105.64 24.211 105.561 24.2901Z" fill="#002E47"/>
<path d="M124.94 19.8593C124.704 19.7802 124.389 19.7011 124.153 19.622C123.916 19.622 123.601 19.5428 123.365 19.5428C122.971 19.5428 122.577 19.622 122.262 19.7011C121.947 19.7802 121.632 19.9385 121.317 20.1758C121.08 20.3341 120.765 20.5714 120.608 20.8088C120.45 20.967 120.293 21.2044 120.135 21.4417C120.056 20.967 119.662 20.4923 119.268 20.2549C118.717 20.0176 118.166 19.8593 117.614 19.8593H117.063C116.905 19.8593 116.748 19.8593 116.669 19.9385L116.275 20.0176V34.7341H120.371V24.9231C120.371 24.4483 120.608 23.9736 121.002 23.6571C121.474 23.2615 122.026 23.1033 122.577 23.1033C122.971 23.1033 123.365 23.1824 123.759 23.3406C124.153 23.4989 124.468 23.7363 124.783 23.9736C125.019 23.4989 125.255 23.0242 125.413 22.5494C125.649 22.0747 125.728 21.5209 125.728 21.0461C125.728 20.8088 125.649 20.5714 125.492 20.3341C125.334 20.0967 125.177 19.9385 124.94 19.8593Z" fill="#002E47"/>
<path d="M120.214 36H116.117C115.408 36 114.857 35.4461 114.857 34.734V19.9384C114.857 19.3054 115.33 18.7516 115.96 18.6725L116.354 18.5934C116.511 18.5934 116.748 18.5142 116.905 18.5142H117.535C118.323 18.5142 119.032 18.6725 119.741 18.989C119.899 19.0681 120.056 19.1472 120.214 19.3054C120.371 19.2263 120.45 19.1472 120.608 18.989C121.002 18.7516 121.395 18.5934 121.789 18.4351C122.341 18.2769 122.813 18.1978 123.365 18.1978C123.68 18.1978 123.995 18.1978 124.31 18.2769C124.704 18.356 125.098 18.4351 125.492 18.5934C125.886 18.8307 126.201 19.0681 126.437 19.4637C126.752 19.8593 126.91 20.4131 126.91 20.967C126.91 21.6791 126.752 22.312 126.516 22.945C126.358 23.4197 126.043 23.9736 125.807 24.5274C125.649 24.8439 125.334 25.0813 124.94 25.1604C124.547 25.2395 124.153 25.1604 123.838 24.923C123.601 24.7648 123.365 24.6065 123.129 24.4483C122.971 24.3692 122.735 24.3692 122.498 24.3692H122.42C122.183 24.3692 121.947 24.4483 121.711 24.6065C121.553 24.6857 121.553 24.8439 121.553 24.923V34.6549C121.553 35.367 120.923 36 120.214 36ZM117.457 33.389H118.953V24.923C118.953 24.0527 119.347 23.1824 119.977 22.6285C119.899 22.6285 119.82 22.6285 119.82 22.6285C119.347 22.5494 118.953 22.1538 118.796 21.6C118.796 21.4417 118.717 21.3626 118.559 21.2835C118.244 21.1252 117.85 21.0461 117.535 21.0461H117.457V33.389ZM122.498 21.7582C123.05 21.7582 123.601 21.8373 124.074 22.0747V21.9956C124.231 21.6 124.31 21.2835 124.31 20.967C124.153 20.8879 124.074 20.8879 123.916 20.8879C123.68 20.8879 123.522 20.8087 123.286 20.8087C123.05 20.8087 122.813 20.8087 122.577 20.8879C122.341 20.967 122.104 21.0461 121.868 21.2043C121.711 21.2835 121.553 21.4417 121.395 21.6C121.317 21.6791 121.238 21.8373 121.159 21.9164C121.632 21.8373 122.026 21.7582 122.498 21.7582ZM124.389 21.0461L124.94 19.8593L124.389 21.0461Z" fill="#002E47"/>
<path d="M136.599 19.8593C136.363 19.7802 136.127 19.7011 135.89 19.622C135.654 19.622 135.339 19.5428 135.103 19.5428C134.709 19.5428 134.315 19.622 134 19.7011C133.685 19.7802 133.37 19.9385 133.054 20.1758C132.818 20.3341 132.503 20.5714 132.345 20.8088C132.188 20.967 132.03 21.2044 131.873 21.4417C131.794 20.967 131.479 20.4923 131.006 20.2549C130.534 20.0176 129.903 19.8593 129.352 19.8593H128.8C128.643 19.8593 128.485 19.8593 128.407 19.9385L128.013 20.0176V34.7341H132.109V24.9231C132.109 24.4483 132.345 23.9736 132.739 23.6571C133.212 23.2615 133.763 23.1033 134.315 23.1033C134.709 23.1033 135.103 23.1824 135.497 23.3406C135.89 23.4989 136.205 23.7363 136.521 23.9736C136.757 23.4989 136.993 23.0242 137.151 22.5494C137.387 22.0747 137.466 21.5209 137.466 21.0461C137.466 20.8088 137.387 20.5714 137.23 20.3341C136.993 20.0967 136.757 19.9385 136.599 19.8593Z" fill="#002E47"/>
<path d="M131.952 36H127.855C127.146 36 126.595 35.4461 126.595 34.734V19.9384C126.595 19.3054 127.067 18.7516 127.698 18.6725L128.091 18.5934C128.249 18.5934 128.485 18.5142 128.643 18.5142H129.273C130.061 18.5142 130.77 18.6725 131.479 18.989C131.636 19.0681 131.794 19.1472 131.952 19.3054C132.109 19.2263 132.188 19.1472 132.345 18.989C132.739 18.7516 133.133 18.5934 133.527 18.4351C134.079 18.2769 134.551 18.1978 135.103 18.1978C135.418 18.1978 135.733 18.1978 136.048 18.2769C136.442 18.356 136.836 18.4351 137.151 18.5934C137.545 18.7516 137.939 19.0681 138.175 19.3846L138.254 19.4637C138.569 19.8593 138.726 20.4131 138.648 20.967C138.648 21.6791 138.49 22.312 138.254 22.945C138.096 23.4197 137.781 23.9736 137.545 24.5274C137.387 24.8439 137.072 25.0813 136.678 25.1604C136.284 25.2395 135.89 25.1604 135.575 24.8439C135.339 24.6857 135.103 24.5274 134.866 24.3692C134.709 24.2901 134.472 24.2901 134.236 24.2901C133.921 24.2901 133.685 24.3692 133.448 24.5274C133.37 24.6065 133.291 24.6857 133.291 24.8439V34.5758C133.212 35.367 132.661 36 131.952 36ZM129.116 33.389H130.612V24.923C130.612 24.0527 131.006 23.2615 131.636 22.6285C131.558 22.6285 131.479 22.6285 131.4 22.6285C130.927 22.5494 130.534 22.1538 130.376 21.6C130.376 21.5208 130.297 21.3626 130.14 21.3626C129.825 21.2043 129.431 21.1252 129.116 21.1252H129.037V33.389H129.116ZM134.236 21.7582C134.709 21.7582 135.26 21.8373 135.733 22.0747C135.733 22.0747 135.733 22.0747 135.733 21.9956C135.89 21.6791 135.969 21.2835 135.969 20.967C135.969 20.967 135.969 20.967 135.89 20.967C135.812 20.8879 135.654 20.8879 135.497 20.8879C135.26 20.8879 135.103 20.8087 134.866 20.8087C134.63 20.8087 134.394 20.8087 134.157 20.8879C133.921 20.967 133.685 21.0461 133.448 21.2043C133.291 21.2835 133.133 21.4417 132.976 21.6C132.897 21.6791 132.818 21.8373 132.739 21.9164C133.133 21.7582 133.606 21.6791 134.079 21.6791C134.236 21.7582 134.236 21.7582 134.236 21.7582Z" fill="#002E47"/>
<path d="M151.252 30.778V25.0813C151.252 24.2901 151.173 23.4198 150.937 22.6286C150.779 21.9956 150.385 21.3626 149.913 20.8879C149.361 20.4132 148.731 20.0176 148.101 19.8593C147.234 19.622 146.289 19.5428 145.344 19.5428C144.635 19.5428 143.847 19.622 143.138 19.7011C142.508 19.7802 141.877 20.0176 141.247 20.1758C140.775 20.3341 140.381 20.5714 139.987 20.8879C139.75 21.0461 139.514 21.3626 139.514 21.6791C139.514 21.9956 139.593 22.3121 139.75 22.6286C139.908 23.0242 140.144 23.4198 140.459 23.7363C141.09 23.3406 141.72 23.0242 142.429 22.7868C143.138 22.4703 143.926 22.3912 144.713 22.3912C145.422 22.3121 146.131 22.4703 146.683 22.8659C147.156 23.2615 147.392 23.8945 147.313 24.5275V25.0813H146.683C146.447 25.0813 146.21 25.0813 145.974 25.0813C145.186 25.1604 144.398 25.2395 143.611 25.3187C142.823 25.4769 141.956 25.7143 141.247 26.1099C140.538 26.4264 139.829 26.9802 139.357 27.6132C138.805 28.3253 138.569 29.1956 138.648 30.145C138.648 30.8571 138.805 31.5692 139.041 32.2022C139.278 32.756 139.672 33.2308 140.144 33.5472C140.617 33.8637 141.09 34.1011 141.641 34.2593C142.193 34.4176 142.744 34.4967 143.295 34.4967C144.162 34.4967 145.107 34.3384 145.974 34.022C146.604 33.7055 147.234 33.3099 147.707 32.8352C147.786 33.3099 148.022 33.7055 148.416 34.022C148.889 34.3384 149.44 34.4967 150.07 34.4176C150.385 34.4176 150.7 34.4176 151.016 34.3384C151.331 34.2593 151.725 34.1802 152.04 34.022C151.409 33.1516 151.173 31.9648 151.252 30.778ZM147.392 30.3033C147.392 30.4615 147.313 30.6989 147.156 30.8571C146.998 31.0945 146.762 31.2527 146.525 31.411C146.21 31.5692 145.974 31.7275 145.659 31.8066C145.344 31.8857 144.95 31.9648 144.556 31.9648C143.926 32.0439 143.374 31.8066 142.902 31.3319C142.586 30.9362 142.429 30.3824 142.429 29.9077C142.429 29.433 142.508 29.0374 142.823 28.6417C143.059 28.3253 143.374 28.0088 143.768 27.8505C144.162 27.6132 144.635 27.4549 145.107 27.4549C145.58 27.3758 146.053 27.2967 146.604 27.2967H146.998H147.392V30.3033Z" fill="#002E47"/>
<path d="M143.374 35.9208C143.296 35.9208 143.217 35.9208 143.138 35.9208C142.508 35.9208 141.799 35.8417 141.169 35.6043C140.46 35.4461 139.829 35.1296 139.278 34.6549C138.648 34.1801 138.175 33.5472 137.781 32.8351C137.387 32.0439 137.23 31.0944 137.23 30.2241C137.151 29.0373 137.545 27.9296 138.175 26.9801C138.805 26.1889 139.514 25.556 140.381 25.1604C139.987 25.1604 139.593 25.0021 139.357 24.6856C138.963 24.29 138.726 23.7362 138.49 23.2615C138.333 22.8659 138.175 22.3911 138.096 21.9164C138.096 21.8373 138.096 21.7582 138.096 21.6791C138.175 20.967 138.49 20.334 139.042 19.9384C139.514 19.5428 140.066 19.2263 140.617 19.0681C141.247 18.8307 141.956 18.5933 142.665 18.5142C143.453 18.356 144.32 18.2769 145.107 18.2769C146.132 18.2769 147.156 18.356 148.18 18.6725C149.046 18.9098 149.913 19.3845 150.543 20.0175C151.173 20.6505 151.646 21.4417 151.882 22.312C152.119 23.2615 152.276 24.1318 152.197 25.0813V30.6988V30.778C152.119 31.7274 152.276 32.6769 152.749 33.5472C152.906 33.8637 152.906 34.2593 152.828 34.5758C152.67 34.8922 152.434 35.2087 152.119 35.2878C151.725 35.4461 151.331 35.6043 150.858 35.6834C150.464 35.7626 150.07 35.7626 149.676 35.8417C148.81 35.9208 148.022 35.6834 147.313 35.2087C147.313 35.2087 147.234 35.2087 147.234 35.1296C147.156 35.0505 146.998 34.9714 146.919 34.8131C146.683 34.9714 146.368 35.1296 146.053 35.2087C145.423 35.6834 144.398 35.9208 143.374 35.9208ZM142.902 26.901C142.508 26.9802 142.193 27.1384 141.799 27.3758C141.169 27.6922 140.696 28.0878 140.302 28.5626C139.987 29.0373 139.829 29.5911 139.829 30.2241V30.3032C139.829 30.8571 139.908 31.3318 140.144 31.8065C140.302 32.123 140.538 32.4395 140.853 32.6769C141.169 32.9142 141.484 33.0725 141.878 33.1516C142.271 33.3098 142.744 33.3098 143.138 33.3098C143.532 33.3098 143.926 33.3098 144.32 33.2307C143.453 33.2307 142.587 32.9142 141.956 32.2021L141.878 32.123C141.326 31.49 141.09 30.6988 141.09 29.9076C141.09 29.1955 141.247 28.4834 141.72 27.9296C142.114 27.4549 142.508 27.1384 142.902 26.901ZM149.046 33.0725C149.283 33.2307 149.598 33.3098 149.834 33.2307H149.913H150.149C149.913 32.3604 149.834 31.49 149.913 30.6197V25.0021C149.913 24.29 149.834 23.578 149.676 22.945C149.519 22.5494 149.361 22.1538 148.967 21.7582C148.652 21.4417 148.18 21.2043 147.707 21.0461C146.919 20.8087 146.132 20.7296 145.344 20.7296C144.635 20.7296 144.005 20.8087 143.296 20.8878C142.744 20.967 142.193 21.1252 141.641 21.3626C141.326 21.4417 141.011 21.5999 140.775 21.8373C140.775 21.9164 140.853 21.9955 140.853 21.9955C141.169 21.8373 141.484 21.6791 141.878 21.5208C142.744 21.1252 143.689 20.967 144.635 20.967C145.58 20.8878 146.525 21.1252 147.313 21.6791C147.392 21.7582 147.471 21.7582 147.471 21.8373C148.18 22.5494 148.574 23.4988 148.495 24.5274V25.0021C148.495 25.4769 148.258 25.7933 147.943 26.0307C148.337 26.2681 148.574 26.6637 148.574 27.1384V30.2241V30.3032C148.574 30.778 148.337 31.2527 148.022 31.5692V31.6483C148.416 31.8065 148.731 32.2021 148.81 32.6769C148.889 32.9142 148.967 32.9933 149.046 33.0725ZM143.926 30.4615C144.083 30.6197 144.241 30.6197 144.477 30.6197H144.635C144.871 30.6197 145.107 30.6197 145.344 30.5406C145.58 30.4615 145.738 30.3823 145.974 30.3032C146.053 30.2241 146.132 30.2241 146.21 30.145V28.6417C145.895 28.6417 145.659 28.7208 145.344 28.7208C145.029 28.7999 144.714 28.8791 144.398 29.0373C144.241 29.1164 144.005 29.2747 143.926 29.4329C143.847 29.512 143.768 29.6703 143.847 29.8285V29.9076C143.768 30.145 143.847 30.3032 143.926 30.4615ZM144.635 23.7362C144.005 23.7362 143.453 23.8153 142.902 24.0527C142.587 24.2109 142.271 24.29 141.956 24.4483C142.429 24.29 142.902 24.1318 143.374 24.0527C144.162 23.8944 144.871 23.8153 145.659 23.8153C145.423 23.7362 145.107 23.6571 144.792 23.6571C144.792 23.7362 144.714 23.7362 144.635 23.7362Z" fill="#002E47"/>
<path d="M19.6945 25.2396L4.09668 19.9385L25.8391 11.7099L36.1589 7.83301L25.8391 40.6682L19.6945 25.2396Z" fill="#002E47"/>
<path d="M4.09619 20.0176H17.6458H25.8386V11.8682L4.09619 20.0176Z" fill="#FF9D28"/>
<path d="M25.8389 11.8681V40.8264L36.1587 7.99121L25.8389 11.8681Z" fill="#69C3EA"/>
<path d="M25.8388 20.0176H17.646L25.8388 40.8264V20.0176Z" fill="#004F80"/>
<path d="M4.09619 20.0176L19.694 25.3978L17.6458 20.0176H4.09619Z" fill="#E14748"/>
<path d="M53.9621 33.1517C53.8045 33.3099 53.5682 33.4682 53.3319 33.6264C53.0168 33.8638 52.6229 34.022 52.229 34.1803C51.6776 34.4176 51.1261 34.4967 50.5747 34.655C49.8657 34.8132 49.0779 34.8923 48.3689 34.8132C46.9509 34.8132 45.533 34.5759 44.1937 34.022C43.0909 33.5473 42.0668 32.8352 41.279 31.8858C40.4912 30.9363 39.9398 29.8286 39.6247 28.5627C39.2308 27.2176 39.0732 25.7934 39.0732 24.3693C39.0732 22.9451 39.2308 21.5209 39.6247 20.1759C39.9398 18.989 40.57 17.8022 41.3578 16.8528C42.1455 15.9033 43.1696 15.1121 44.2725 14.6374C45.533 14.0836 46.9509 13.8462 48.3689 13.8462C49.0779 13.8462 49.7869 13.9253 50.4959 14.0836C51.0473 14.2418 51.5988 14.4 52.1502 14.5583C52.5441 14.7165 52.938 14.9539 53.3319 15.1912C53.5682 15.3495 53.8045 15.5077 54.0409 15.7451C54.1984 15.9033 54.356 16.1407 54.5135 16.2989C54.6711 16.5363 54.7499 16.7737 54.6711 17.011C54.6711 17.4858 54.5135 17.8814 54.1984 18.277C53.8833 18.6726 53.5682 19.0682 53.2531 19.3847C53.0168 19.1473 52.7017 18.9099 52.4653 18.6726C52.1502 18.4352 51.8351 18.1978 51.4412 18.0396C51.0473 17.8022 50.5747 17.644 50.1808 17.5649C49.6294 17.4066 49.1567 17.3275 48.6053 17.4066C46.8722 17.3275 45.2966 18.1978 44.4301 19.622C44.0362 20.3341 43.7211 21.0462 43.5635 21.9165C43.406 22.7869 43.3272 23.6572 43.3272 24.5275C43.3272 25.3978 43.406 26.3473 43.5635 27.2176C43.7211 28.0088 44.0362 28.8 44.5089 29.5121C44.9815 30.1451 45.533 30.6989 46.2419 31.0945C47.5812 31.7275 48.9991 31.8858 50.4171 31.4901C50.811 31.3319 51.2837 31.1737 51.6776 31.0154C51.9927 30.8572 52.3078 30.6198 52.6229 30.3825C52.8592 30.1451 53.0955 29.9869 53.3319 29.8286L53.7258 30.3825C53.8833 30.5407 54.0409 30.7781 54.1984 31.0154C54.356 31.2528 54.4348 31.4901 54.5135 31.6484C54.5923 31.8066 54.6711 32.044 54.6711 32.2814C54.6711 32.5187 54.5923 32.7561 54.5135 32.9143C54.356 32.8352 54.1984 32.9934 53.9621 33.1517Z" fill="white"/>
<path d="M69.4027 30.8571C69.3239 32.0439 69.5603 33.2307 70.1117 34.3384C69.7966 34.4967 69.4815 34.5758 69.0876 34.6549C68.7725 34.734 68.4574 34.734 68.1423 34.734C67.5908 34.734 66.9606 34.6549 66.488 34.3384C66.0941 34.0219 65.8577 33.6263 65.779 33.1516C65.3063 33.6263 64.6761 34.0219 64.0459 34.3384C63.1793 34.6549 62.3128 34.8131 61.3675 34.8131C60.816 34.8131 60.2646 34.734 59.7131 34.5758C59.1617 34.4175 58.689 34.1802 58.2952 33.8637C57.8225 33.4681 57.4286 32.9934 57.1923 32.5186C56.8772 31.8857 56.7196 31.1736 56.7984 30.4615C56.7984 29.5912 57.0347 28.7208 57.5074 27.9296C57.9801 27.2966 58.6103 26.7428 59.3193 26.4263C60.0283 26.0307 60.8948 25.7934 61.6826 25.6351C62.4703 25.4769 63.2581 25.3977 64.0459 25.3977H64.7549H65.3851V24.8439C65.4639 24.2109 65.2275 23.6571 64.7549 23.1824C64.1247 22.7868 63.4944 22.6285 62.7854 22.7076C61.9977 22.7076 61.2099 22.8659 60.5009 23.1032C59.7919 23.4197 59.1617 23.7362 58.5315 24.0527C58.2164 23.7362 57.9801 23.3406 57.8225 22.945C57.6649 22.6285 57.5862 22.312 57.5862 21.9955C57.5862 21.6791 57.8225 21.3626 58.0588 21.2043C58.4527 20.8879 58.8466 20.6505 59.3193 20.4923C59.9495 20.2549 60.5797 20.0966 61.2099 20.0175C61.9189 19.8593 62.7067 19.7802 63.4157 19.8593C64.361 19.8593 65.3063 19.9384 66.1729 20.1758C66.8818 20.334 67.5121 20.7296 67.9847 21.2043C68.4574 21.6791 68.8513 22.312 69.0088 22.945C69.2452 23.7362 69.3239 24.5274 69.3239 25.3977L69.4027 30.8571ZM65.5426 27.3758H65.1488C64.9912 27.3758 64.8336 27.3758 64.7549 27.3758C64.2822 27.3758 63.7308 27.4549 63.2581 27.534C62.7854 27.6131 62.3916 27.7714 61.9189 27.9296C61.525 28.0879 61.2099 28.4043 60.9736 28.7208C60.7372 29.1164 60.5797 29.5912 60.5797 30.0659C60.5797 30.6197 60.7372 31.0945 61.0524 31.4901C61.4462 31.9648 62.0765 32.123 62.7067 32.123C63.1006 32.123 63.4157 32.0439 63.8095 31.9648C64.1247 31.8857 64.4398 31.7274 64.6761 31.5692C64.9124 31.4109 65.1488 31.2527 65.3063 31.0153C65.4639 30.8571 65.5426 30.6988 65.5426 30.4615V27.3758Z" fill="white"/>
<path d="M76.8861 21.4417C77.28 20.967 77.8314 20.5714 78.3829 20.2549C79.1706 19.8593 80.0372 19.622 80.9825 19.7011C81.6915 19.7011 82.4005 19.8593 83.1095 20.0967C83.8185 20.334 84.3699 20.8088 84.9214 21.2835C85.4728 21.9165 85.9455 22.7077 86.1818 23.4989C86.4969 24.6066 86.6545 25.7934 86.6545 26.9011C86.6545 28.2461 86.4969 29.5121 86.103 30.778C85.7879 31.6483 85.3152 32.4395 84.685 33.1516C84.1336 33.7055 83.5034 34.1802 82.7944 34.4176C82.0854 34.6549 81.3764 34.734 80.6674 34.8132C80.1947 34.8132 79.6433 34.734 79.1706 34.6549C78.7768 34.5758 78.3829 34.4176 78.0678 34.1802C77.8314 34.0219 77.5951 33.8637 77.3588 33.7055C77.28 33.6263 77.1224 33.4681 77.0437 33.389V40.8263H72.9473V20.0967L73.3412 20.0176C73.4987 20.0176 73.6563 19.9384 73.735 19.9384H74.2865C74.8379 19.9384 75.4681 20.0176 76.0196 20.2549C76.4135 20.5714 76.7286 20.967 76.8861 21.4417ZM82.2429 26.9802C82.2429 26.4263 82.1642 25.8725 82.0854 25.3187C82.0066 24.8439 81.8491 24.3692 81.6127 23.9736C81.3764 23.578 81.0613 23.2615 80.6674 23.1033C80.1947 22.8659 79.7221 22.7868 79.2494 22.7868C78.6192 22.7077 77.989 22.8659 77.5163 23.2615C77.2012 23.4989 77.0437 23.8945 77.0437 24.2901V30.6989C77.28 30.9362 77.5951 31.0945 77.9102 31.2527C78.3829 31.4901 78.8555 31.5692 79.3282 31.5692C80.2735 31.6483 81.1401 31.1736 81.534 30.3824C82.0854 29.3538 82.3217 28.167 82.2429 26.9802Z" fill="white"/>
<path d="M89.6481 32.2022C89.4906 31.8066 89.4118 31.3319 89.4118 30.9363C89.4118 30.4616 89.333 30.066 89.333 29.5912V15.5868L89.8057 15.5077C89.9632 15.5077 90.1208 15.4286 90.2783 15.4286H90.751C91.0661 15.4286 91.3812 15.4286 91.6963 15.5077C92.0114 15.5868 92.3265 15.666 92.5629 15.9033C92.7992 16.0616 93.0355 16.378 93.1931 16.6154C93.3506 17.011 93.4294 17.4066 93.4294 17.8022V19.9385H97.6046V22.9451H93.4294V29.3539C93.4294 30.778 93.9808 31.4901 95.1625 31.4901C95.3988 31.4901 95.7139 31.411 95.9503 31.3319C96.1866 31.2528 96.4229 31.1736 96.6593 31.0154C96.8168 30.9363 97.0531 30.778 97.2107 30.6989C97.2895 30.6198 97.447 30.5407 97.5258 30.4616C97.7621 30.8572 97.9985 31.1736 98.2348 31.6484C98.3924 31.9649 98.4711 32.2022 98.4711 32.5978C98.4711 32.9143 98.3924 33.1517 98.156 33.389C97.9197 33.7055 97.6046 33.9429 97.2895 34.1011C96.8168 34.3385 96.4229 34.4967 95.8715 34.655C95.3201 34.8132 94.6898 34.8923 94.1384 34.8132C93.1143 34.8923 92.0902 34.655 91.2237 34.1011C90.4359 33.6264 89.9632 32.9934 89.6481 32.2022Z" fill="white"/>
<path d="M108.003 31.8066C108.476 31.8066 108.87 31.7274 109.343 31.6483C109.658 31.5692 110.052 31.411 110.367 31.2527C110.682 31.0945 110.918 30.9362 111.155 30.6989L111.785 30.145C112.1 30.5406 112.336 30.9362 112.573 31.3318C112.809 31.6483 112.966 32.0439 112.966 32.5187C112.888 32.9934 112.651 33.4681 112.179 33.7055C111.627 34.1011 110.997 34.3384 110.367 34.4967C109.5 34.734 108.555 34.8923 107.688 34.8132C106.743 34.8132 105.798 34.6549 104.931 34.4176C104.065 34.1802 103.198 33.7846 102.489 33.1516C101.701 32.5187 101.15 31.7274 100.756 30.778C100.283 29.5912 100.047 28.2461 100.126 26.9011C100.126 25.7934 100.283 24.6857 100.756 23.6571C101.071 22.7868 101.623 21.9956 102.332 21.3626C102.962 20.8088 103.75 20.334 104.537 20.0176C105.325 19.7802 106.192 19.6219 107.058 19.6219C108.003 19.6219 109.028 19.7802 109.894 20.1758C110.603 20.4923 111.312 20.967 111.785 21.6C112.257 22.2329 112.651 22.8659 112.888 23.6571C113.124 24.4483 113.203 25.2395 113.203 26.0307V26.4263V26.9802C113.203 26.9802 113.203 27.3758 113.203 27.534C113.203 27.6923 113.203 27.7714 113.124 27.9296H104.222C104.301 28.9582 104.616 29.9077 105.246 30.6989C105.798 31.4901 106.901 31.8857 108.003 31.8066ZM109.343 25.7143C109.343 24.923 109.185 24.0527 108.791 23.3406C108.319 22.7077 107.531 22.3121 106.743 22.4703C105.955 22.4703 105.246 22.7868 104.774 23.3406C104.222 24.0527 103.986 24.8439 104.065 25.7143H109.343Z" fill="white"/>
<path d="M120.135 21.5209C120.293 21.2835 120.45 21.1252 120.608 20.8879C120.844 20.6505 121.08 20.4132 121.317 20.2549C121.632 20.0967 121.947 19.9384 122.262 19.7802C122.656 19.6219 122.971 19.6219 123.365 19.6219C123.601 19.6219 123.916 19.6219 124.153 19.7011C124.389 19.7011 124.704 19.7802 124.94 19.9384C125.177 20.0176 125.334 20.1758 125.492 20.4132C125.649 20.6505 125.728 20.8879 125.728 21.1252C125.728 21.6791 125.571 22.1538 125.413 22.6285C125.255 23.1033 125.019 23.578 124.783 24.0527C124.468 23.8154 124.153 23.578 123.759 23.4198C123.365 23.2615 122.971 23.1824 122.577 23.1824C122.026 23.1824 121.474 23.3406 121.002 23.7362C120.608 24.0527 120.371 24.5274 120.371 25.0022V34.8132H116.275V20.0967L116.669 20.0176C116.826 20.0176 116.984 19.9384 117.063 19.9384H117.614C118.166 19.9384 118.796 20.0176 119.268 20.334C119.741 20.6505 120.056 21.0461 120.135 21.5209Z" fill="white"/>
<path d="M131.715 21.5209C131.873 21.2835 132.03 21.1252 132.188 20.8879C132.424 20.6505 132.661 20.4923 132.897 20.2549C133.212 20.0967 133.527 19.9384 133.842 19.7802C134.236 19.6219 134.551 19.6219 134.945 19.6219C135.181 19.6219 135.497 19.6219 135.733 19.7011C135.969 19.7011 136.205 19.7802 136.442 19.9384C136.678 20.0176 136.836 20.1758 136.993 20.4132C137.151 20.6505 137.23 20.8879 137.23 21.1252C137.23 21.6791 137.072 22.1538 136.914 22.6285C136.757 23.1033 136.521 23.578 136.284 24.0527C135.969 23.8154 135.654 23.578 135.26 23.4198C134.866 23.2615 134.472 23.1824 134.079 23.1824C133.527 23.1824 132.976 23.3406 132.503 23.7362C132.109 24.0527 131.873 24.5274 131.873 25.0022V34.8132H127.776V20.0967L128.17 20.0176C128.328 20.0176 128.485 19.9384 128.564 19.9384H129.116C129.667 19.9384 130.297 20.0176 130.77 20.334C131.321 20.5714 131.636 21.0461 131.715 21.5209Z" fill="white"/>
<path d="M151.252 30.8571C151.173 32.0439 151.41 33.2307 151.961 34.3384C151.646 34.4967 151.331 34.5758 150.937 34.6549C150.622 34.734 150.307 34.734 149.992 34.734C149.44 34.734 148.81 34.6549 148.337 34.3384C147.943 34.0219 147.707 33.6263 147.628 33.1516C147.156 33.6263 146.525 34.0219 145.895 34.3384C145.029 34.6549 144.162 34.8131 143.217 34.8131C142.665 34.8131 142.114 34.734 141.562 34.5758C141.011 34.4175 140.538 34.1802 140.066 33.8637C139.593 33.5472 139.199 33.0725 138.963 32.5186C138.648 31.8857 138.49 31.1736 138.569 30.4615C138.49 29.5912 138.805 28.7208 139.278 27.9296C139.751 27.2966 140.381 26.7428 141.09 26.4263C141.799 26.0307 142.665 25.7934 143.453 25.6351C144.241 25.4769 145.029 25.3977 145.816 25.3977H146.525H147.234V24.8439C147.313 24.2109 147.077 23.6571 146.604 23.1824C145.974 22.7868 145.344 22.6285 144.635 22.7076C143.847 22.7076 143.059 22.8659 142.35 23.1032C141.641 23.4197 141.011 23.7362 140.381 24.0527C140.066 23.7362 139.829 23.3406 139.672 22.945C139.514 22.6285 139.435 22.312 139.435 21.9955C139.435 21.6791 139.672 21.3626 139.908 21.2043C140.302 20.8879 140.696 20.6505 141.169 20.4923C141.799 20.2549 142.429 20.0966 143.059 20.0175C143.768 19.8593 144.556 19.7802 145.265 19.8593C146.21 19.8593 147.156 19.9384 148.022 20.1758C148.731 20.334 149.361 20.7296 149.834 21.2043C150.307 21.6791 150.701 22.312 150.858 22.945C151.094 23.7362 151.173 24.5274 151.173 25.3977L151.252 30.8571ZM147.392 27.3758H146.998C146.84 27.3758 146.683 27.3758 146.604 27.3758C146.131 27.3758 145.58 27.4549 145.107 27.534C144.635 27.6131 144.241 27.7714 143.768 27.9296C143.374 28.0879 143.059 28.4043 142.823 28.7208C142.587 29.1164 142.429 29.512 142.429 29.9868C142.429 30.5406 142.587 31.0153 142.902 31.4109C143.296 31.8857 143.926 32.0439 144.556 32.0439C144.95 32.0439 145.265 31.9648 145.659 31.8857C145.974 31.8065 146.289 31.6483 146.525 31.4901C146.762 31.3318 146.998 31.1736 147.156 30.9362C147.313 30.778 147.392 30.6197 147.392 30.3824V27.3758Z" fill="white"/>
<path d="M69.4811 58.3121C69.2448 58.3121 68.9297 58.2329 68.6933 58.1538L66.0937 56.8088C65.8574 56.6505 65.5422 56.6505 65.2271 56.8088L62.6275 58.1538C62.3912 58.3121 62.0761 58.3912 61.8397 58.3121C61.3671 58.3121 60.8944 58.0747 60.5793 57.7582C60.2642 57.3626 60.1066 56.8879 60.1854 56.4132L60.6581 53.4857C60.7369 53.1692 60.5793 52.9318 60.4217 52.6945L58.3735 50.6373C57.9009 50.1626 57.7433 49.5296 57.9009 48.8967C58.0584 48.2637 58.6099 47.8681 59.2401 47.7099L62.1548 47.2351C62.4699 47.156 62.7063 46.9978 62.8638 46.7604L64.1243 44.1494C64.5181 43.2791 65.5422 42.9626 66.4088 43.3582C66.7239 43.5165 67.039 43.8329 67.1966 44.1494L68.5358 46.7604C68.6933 46.9978 68.9297 47.2351 69.2448 47.2351L72.1595 47.6307C72.7897 47.7099 73.3412 48.1846 73.4987 48.8176C73.6563 49.4505 73.4987 50.0835 73.0261 50.5582L70.8991 52.6945C70.6627 52.9318 70.584 53.1692 70.6627 53.4857L71.1354 56.4132C71.2142 56.8879 71.1354 57.4417 70.8203 57.8373C70.4264 58.1538 69.9538 58.3912 69.4811 58.3121Z" fill="#FF9D28"/>
<path d="M65.6998 43.5957C66.1725 43.5957 66.6451 43.9121 66.8814 44.3077L68.1419 46.9187C68.2994 47.3143 68.6933 47.5517 69.0872 47.6308L72.002 48.0264C72.7109 48.1055 73.1836 48.8176 73.1048 49.5297C73.0261 49.8462 72.9473 50.0836 72.7109 50.2418L70.584 52.2989C70.2689 52.6154 70.1113 53.011 70.1901 53.4858L70.6627 56.3341C70.7415 57.0462 70.2689 57.6792 69.5599 57.8374C69.3235 57.8374 69.0084 57.8374 68.7721 57.6792L66.1725 56.3341C65.7786 56.0968 65.3059 56.0968 64.9908 56.3341L62.5487 57.7583C61.9185 58.0748 61.1307 57.8374 60.8156 57.1253C60.6581 56.888 60.6581 56.6506 60.6581 56.4132L61.1307 53.5649C61.2095 53.1693 61.0519 52.6946 60.7368 52.3781L58.6099 50.3209C58.0584 49.8462 58.0584 48.9759 58.6099 48.5011C58.8462 48.2638 59.0825 48.1847 59.3189 48.1055L62.2336 47.7099C62.6275 47.6308 63.0214 47.3935 63.1789 46.9979L64.4394 44.3869C64.7545 43.9121 65.2271 43.5957 65.6998 43.5957ZM65.6998 42.8044C64.912 42.8044 64.1242 43.2792 63.8091 43.9913L62.5487 46.6022C62.4699 46.7605 62.3124 46.8396 62.1548 46.8396L59.2401 47.2352C58.4523 47.3143 57.8221 47.8682 57.5858 48.6594C57.3494 49.4506 57.507 50.2418 58.1372 50.7957L60.1854 52.8528C60.343 52.9319 60.343 53.1693 60.343 53.3275L59.8703 56.255C59.7915 56.888 59.9491 57.5209 60.343 57.9957C60.7368 58.4704 61.2883 58.7869 61.9185 58.7869C62.2336 58.7869 62.6275 58.7077 62.8638 58.5495L65.4635 57.1253C65.621 57.0462 65.7786 57.0462 65.9361 57.1253L68.5358 58.4704C68.8509 58.6286 69.166 58.7077 69.4811 58.7077C70.1113 58.7077 70.6627 58.3913 71.0566 57.9165C71.4505 57.4418 71.6081 56.8088 71.5293 56.1759L71.0566 53.3275C71.0566 53.1693 71.0566 53.011 71.2142 52.8528L73.2624 50.8748C73.8138 50.3209 74.0501 49.4506 73.8138 48.7385C73.5775 47.9473 72.9473 47.3935 72.1595 47.3143L69.2448 46.9187C69.0872 46.9187 68.9296 46.7605 68.8509 46.6814L67.5904 44.0704C67.1966 43.2792 66.4876 42.8044 65.6998 42.8044Z" fill="#FF9D28"/>
<path d="M160.232 58.4703C160.153 58.4703 160.075 58.3912 160.075 58.3121V13.6879C160.075 13.6088 160.153 13.5297 160.232 13.5297C160.311 13.5297 160.39 13.6088 160.39 13.6879V58.3121C160.39 58.3912 160.311 58.4703 160.232 58.4703Z" fill="#68C5ED"/>
<path d="M180.793 42.1714H178.509V46.2065H172.994V42.1714H164.644V38.0571L173.31 25.3186H178.509V37.9779H180.793V42.1714ZM172.916 37.9779V35.5252C172.916 35.0505 172.916 34.4175 172.994 33.7054C172.994 32.9142 173.073 32.5186 173.073 32.5186H172.916C172.601 33.2307 172.207 33.9428 171.813 34.5757L169.528 38.0571H172.916V37.9779Z" fill="#68C5ED"/>
<path d="M182.448 43.833C182.448 42.9626 182.684 42.2505 183.236 41.7758C183.787 41.3011 184.496 41.0637 185.52 41.0637C186.465 41.0637 187.174 41.3011 187.647 41.7758C188.12 42.2505 188.435 42.9626 188.435 43.833C188.435 44.7033 188.198 45.3362 187.647 45.811C187.096 46.2857 186.387 46.5231 185.52 46.5231C184.575 46.5231 183.866 46.2857 183.314 45.811C182.684 45.4154 182.448 44.7033 182.448 43.833Z" fill="#68C5ED"/>
<path d="M205.766 34.8923C205.766 39.0066 204.899 41.934 203.166 43.7538C201.433 45.5736 198.597 46.5231 194.737 46.5231C193.477 46.5231 192.531 46.4439 191.822 46.3648V41.8549C192.61 42.0132 193.477 42.0923 194.264 42.0923C196.313 42.0923 197.809 41.6967 198.912 40.8264C200.015 39.956 200.567 38.6901 200.724 36.8703H200.567C200.173 37.5824 199.858 38.0571 199.464 38.3736C199.07 38.6901 198.676 38.9275 198.124 39.0857C197.573 39.2439 196.943 39.3231 196.155 39.3231C194.343 39.3231 192.925 38.6901 191.901 37.5033C190.877 36.3165 190.404 34.6549 190.404 32.5187C190.404 30.2242 191.035 28.4044 192.374 27.0593C193.713 25.7143 195.525 25.0813 197.809 25.0813C200.33 25.0813 202.3 25.9516 203.718 27.6132C205.057 29.3538 205.766 31.7275 205.766 34.8923ZM197.888 29.5912C197.258 29.5912 196.785 29.8286 196.391 30.2242C195.997 30.6989 195.84 31.411 195.84 32.3604C195.84 33.1516 195.997 33.7846 196.313 34.2593C196.628 34.734 197.179 34.9714 197.809 34.9714C198.44 34.9714 198.991 34.734 199.385 34.3384C199.858 33.8637 200.094 33.389 200.094 32.756C200.094 31.8857 199.858 31.1736 199.464 30.5406C199.07 29.9077 198.597 29.5912 197.888 29.5912Z" fill="#68C5ED"/>
<path d="M85.7881 43.5957C86.2607 43.5957 86.7334 43.9121 86.9697 44.3077L88.2302 46.9187C88.3877 47.3143 88.7816 47.5517 89.1755 47.6308L92.0902 48.0264C92.7992 48.1055 93.2719 48.8176 93.1931 49.5297C93.1143 49.8462 93.0356 50.0836 92.7992 50.2418L90.6723 52.2989C90.3571 52.6154 90.1996 53.011 90.2784 53.4858L90.751 56.3341C90.9086 57.0462 90.4359 57.7583 89.7269 57.8374C89.6482 57.8374 89.5694 57.8374 89.4906 57.8374C89.2543 57.8374 89.0967 57.7583 88.8604 57.6792L86.2607 56.3341C85.8669 56.0967 85.3942 56.0967 85.0791 56.3341L82.4794 57.6792C81.8492 57.9957 81.0615 57.7583 80.7464 57.1253C80.5888 56.888 80.5888 56.5715 80.5888 56.255L81.0615 53.4066C81.1402 53.011 80.9827 52.5363 80.6676 52.2198L78.6194 50.2418C78.0679 49.7671 78.0679 48.8968 78.6194 48.422C78.8557 48.1847 79.092 48.1055 79.3284 48.0264L82.2431 47.6308C82.637 47.5517 83.0309 47.3143 83.1884 46.9187L84.4489 44.3077C84.8428 43.9121 85.3154 43.5957 85.7881 43.5957ZM85.7881 42.8044C85.0003 42.8044 84.2913 43.2792 83.8974 43.9913L82.637 46.6022C82.5582 46.7605 82.4007 46.8396 82.2431 46.8396L79.3284 47.2352C78.2255 47.3935 77.4377 48.422 77.5953 49.6088C77.674 50.0836 77.9104 50.4792 78.2255 50.7957L80.3525 52.8528C80.51 52.9319 80.51 53.1693 80.51 53.3275L80.0374 56.1759C79.9586 56.8088 80.1161 57.4418 80.51 57.9165C80.9039 58.3913 81.4553 58.7077 82.0856 58.7077C82.4007 58.7077 82.7946 58.6286 83.0309 58.4704L85.6305 57.1253C85.7093 57.1253 85.7881 57.0462 85.8669 57.0462C85.9456 57.0462 86.0244 57.0462 86.1032 57.1253L88.7028 58.4704C89.0179 58.6286 89.333 58.7077 89.6482 58.7077C90.2784 58.7077 90.8298 58.3913 91.2237 57.9165C91.6176 57.4418 91.7751 56.8088 91.6964 56.1759L91.2237 53.3275C91.2237 53.1693 91.2237 53.011 91.3812 52.8528L93.5082 50.7957C94.296 50.0044 94.3748 48.6594 93.587 47.8682C93.2719 47.5517 92.7992 47.3143 92.4053 47.2352L89.4906 46.8396C89.333 46.8396 89.1755 46.6814 89.0967 46.6022L87.8363 43.9913C87.2848 43.2792 86.5758 42.8044 85.7881 42.8044Z" fill="#FF9D28"/>
<path d="M89.5695 58.3122C89.3332 58.3122 89.018 58.233 88.7817 58.1539L86.1821 56.8089C86.0245 56.7297 85.867 56.7297 85.7882 56.7297C85.6306 56.7297 85.4731 56.7297 85.3943 56.8089L82.7947 58.1539C82.5583 58.3122 82.2432 58.3913 82.0069 58.3122C81.5342 58.3122 81.0616 58.0748 80.6677 57.6792C80.3526 57.2836 80.195 56.8089 80.2738 56.3341L80.7465 53.4067C80.8252 53.0902 80.6677 52.8528 80.5101 52.6155L78.4619 50.6374C77.9893 50.1627 77.8317 49.5297 78.0681 48.8968C78.2256 48.2638 78.777 47.7891 79.4073 47.71L82.322 47.3144C82.6371 47.2352 82.8734 47.077 83.031 46.8396L84.3702 44.2286C84.7641 43.3583 85.7882 43.0418 86.6547 43.4374C86.9698 43.5957 87.285 43.9122 87.4425 44.2286L88.7029 46.8396C88.8605 47.077 89.0968 47.3144 89.4119 47.3144L92.3267 47.71C93.272 47.8682 93.9022 48.7385 93.7447 49.688C93.6659 50.0836 93.5083 50.4001 93.272 50.6374L91.145 52.6946C90.9087 52.9319 90.8299 53.1693 90.9087 53.4858L91.3814 56.4133C91.4601 56.888 91.3026 57.4418 90.9875 57.7583C90.5148 58.1539 90.0421 58.3122 89.5695 58.3122Z" fill="#FF9D28"/>
<path d="M85.7881 43.5957C86.2607 43.5957 86.7334 43.9121 86.9697 44.3077L88.2302 46.9187C88.3877 47.3143 88.7816 47.5517 89.1755 47.6308L92.0902 48.0264C92.7992 48.1055 93.2719 48.8176 93.1931 49.5297C93.1143 49.8462 93.0356 50.0836 92.7992 50.2418L90.6723 52.2989C90.3571 52.6154 90.1996 53.011 90.2784 53.4858L90.751 56.3341C90.9086 57.0462 90.4359 57.7583 89.7269 57.8374C89.6482 57.8374 89.5694 57.8374 89.4906 57.8374C89.2543 57.8374 89.0967 57.7583 88.8604 57.6792L86.2607 56.3341C85.8669 56.0967 85.3942 56.0967 85.0791 56.3341L82.4794 57.6792C81.8492 57.9957 81.0615 57.7583 80.7464 57.1253C80.5888 56.888 80.5888 56.5715 80.5888 56.255L81.0615 53.4066C81.1402 53.011 80.9827 52.5363 80.6676 52.2198L78.6194 50.2418C78.0679 49.7671 78.0679 48.8968 78.6194 48.422C78.8557 48.1847 79.092 48.1055 79.3284 48.0264L82.2431 47.6308C82.637 47.5517 83.0309 47.3143 83.1884 46.9187L84.4489 44.3077C84.8428 43.9121 85.3154 43.5957 85.7881 43.5957ZM85.7881 42.8044C85.0003 42.8044 84.2913 43.2792 83.8974 43.9913L82.637 46.6022C82.5582 46.7605 82.4007 46.8396 82.2431 46.8396L79.3284 47.2352C78.2255 47.3935 77.4377 48.422 77.5953 49.6088C77.674 50.0836 77.9104 50.4792 78.2255 50.7957L80.3525 52.8528C80.51 52.9319 80.51 53.1693 80.51 53.3275L80.0374 56.1759C79.9586 56.8088 80.1161 57.4418 80.51 57.9165C80.9039 58.3913 81.4553 58.7077 82.0856 58.7077C82.4007 58.7077 82.7946 58.6286 83.0309 58.4704L85.6305 57.1253C85.7093 57.1253 85.7881 57.0462 85.8669 57.0462C85.9456 57.0462 86.0244 57.0462 86.1032 57.1253L88.7028 58.4704C89.0179 58.6286 89.333 58.7077 89.6482 58.7077C90.2784 58.7077 90.8298 58.3913 91.2237 57.9165C91.6176 57.4418 91.7751 56.8088 91.6964 56.1759L91.2237 53.3275C91.2237 53.1693 91.2237 53.011 91.3812 52.8528L93.5082 50.7957C94.296 50.0044 94.3748 48.6594 93.587 47.8682C93.2719 47.5517 92.7992 47.3143 92.4053 47.2352L89.4906 46.8396C89.333 46.8396 89.1755 46.6814 89.0967 46.6022L87.8363 43.9913C87.2848 43.2792 86.5758 42.8044 85.7881 42.8044Z" fill="#FF9D28"/>
<path d="M108.791 58.3122C108.555 58.3122 108.24 58.2331 108.003 58.1539L105.404 56.8089C105.246 56.7298 105.089 56.7298 105.01 56.7298C104.852 56.7298 104.695 56.7298 104.616 56.8089L102.016 58.1539C101.78 58.3122 101.465 58.3913 101.229 58.3122C100.756 58.3122 100.283 58.0748 99.8894 57.6792C99.5743 57.2836 99.4167 56.8089 99.4955 56.3342L99.9681 53.4067C100.047 53.0902 99.8894 52.8528 99.7318 52.6155L97.6836 50.5583C97.211 50.0836 97.0534 49.4506 97.2897 48.8177C97.4473 48.1847 97.9987 47.71 98.6289 47.6309L101.544 47.2353C101.859 47.1561 102.095 46.9979 102.253 46.7605L103.513 44.1495C103.907 43.2792 104.931 42.9627 105.798 43.3583C106.113 43.5166 106.428 43.8331 106.585 44.1495L107.846 46.7605C108.003 46.9979 108.24 47.2353 108.555 47.2353L111.47 47.6309C112.415 47.7891 113.045 48.6594 112.888 49.5298C112.809 49.9254 112.651 50.2419 112.415 50.4792L110.367 52.5364C110.13 52.7737 110.052 53.0111 110.13 53.3276L110.603 56.255C110.682 56.7298 110.524 57.2836 110.209 57.6001C109.815 58.0748 109.343 58.3122 108.791 58.3122Z" fill="#FF9D28"/>
<path d="M105.01 43.5957C105.482 43.5957 105.955 43.9121 106.191 44.3077L107.452 46.9187C107.609 47.3143 108.003 47.5517 108.397 47.6308L111.312 48.0264C112.021 48.1055 112.493 48.8176 112.415 49.5297C112.336 49.8462 112.257 50.0836 112.021 50.2418L109.894 52.2989C109.579 52.6154 109.421 53.011 109.5 53.4858L109.973 56.3341C110.13 57.0462 109.657 57.6792 108.948 57.8374C108.87 57.8374 108.791 57.8374 108.712 57.8374C108.476 57.8374 108.318 57.7583 108.082 57.6792L105.482 56.3341C105.088 56.0967 104.616 56.0967 104.301 56.3341L101.701 57.6792C101.071 57.9957 100.283 57.7583 99.9679 57.1253C99.8103 56.888 99.8103 56.5715 99.8103 56.255L100.283 53.4066C100.362 53.011 100.204 52.5363 99.8891 52.2198L97.7621 50.1627C97.2107 49.688 97.2107 48.8176 97.7621 48.3429C97.9984 48.1055 98.2348 48.0264 98.4711 47.9473L101.386 47.5517C101.78 47.4726 102.174 47.2352 102.331 46.8396L103.592 44.2286C104.064 43.9121 104.537 43.5957 105.01 43.5957ZM105.01 42.8044C104.222 42.8044 103.513 43.2792 103.198 43.9913L101.937 46.6022C101.859 46.7605 101.701 46.8396 101.543 46.8396L98.6287 47.2352C97.5258 47.3935 96.738 48.422 96.8956 49.6088C96.9743 50.0836 97.2107 50.4792 97.5258 50.7957L99.6528 52.8528C99.8103 52.9319 99.8103 53.1693 99.8103 53.3275L99.3376 56.1759C99.2589 56.8088 99.4164 57.4418 99.8103 57.9165C100.204 58.3913 100.756 58.7077 101.386 58.7077C101.701 58.7077 102.095 58.6286 102.331 58.4704L104.852 57.0462C104.931 57.0462 105.01 56.9671 105.088 56.9671C105.167 56.9671 105.246 56.9671 105.325 57.0462L107.924 58.3913C108.239 58.5495 108.555 58.6286 108.87 58.6286C109.5 58.6286 110.051 58.3121 110.445 57.8374C110.839 57.3627 110.997 56.7297 110.918 56.0968L110.445 53.2484C110.445 53.0902 110.445 52.9319 110.603 52.7737L112.809 50.7957C113.596 50.0044 113.675 48.6594 112.887 47.8682C112.572 47.5517 112.178 47.3143 111.706 47.2352L108.791 46.8396C108.633 46.8396 108.476 46.6814 108.397 46.6022L107.137 43.9913C106.585 43.2792 105.876 42.8044 105.01 42.8044Z" fill="#FF9D28"/>
<path d="M128.722 58.3122C128.485 58.3122 128.17 58.233 127.934 58.1539L125.334 56.8089C125.098 56.6506 124.783 56.6506 124.468 56.8089L121.868 58.1539C121.632 58.3122 121.316 58.3913 121.08 58.3122C120.607 58.3122 120.135 58.0748 119.82 57.6792C119.505 57.2836 119.347 56.8089 119.426 56.3341L119.898 53.4067C119.977 53.0902 119.82 52.8528 119.662 52.6155L117.614 50.5583C116.984 49.9253 116.905 48.8177 117.614 48.1847C117.85 47.9473 118.244 47.71 118.559 47.71L121.474 47.3144C121.789 47.2352 122.025 47.077 122.183 46.8396L123.443 44.2286C123.837 43.3583 124.861 43.0418 125.728 43.4374C126.043 43.5957 126.358 43.9122 126.516 44.2286L127.776 46.8396C127.934 47.077 128.17 47.3144 128.485 47.3144L131.4 47.71C132.03 47.7891 132.582 48.2638 132.739 48.8968C132.975 49.5297 132.739 50.1627 132.345 50.6374L130.297 52.6946C130.061 52.9319 129.982 53.1693 130.061 53.4858L130.533 56.4133C130.612 56.888 130.455 57.4418 130.139 57.8374C129.746 58.1539 129.273 58.3913 128.722 58.3122Z" fill="#FF9D28"/>
<path d="M124.94 43.5957C125.413 43.5957 125.886 43.9121 126.122 44.3077L127.382 46.9187C127.54 47.3143 127.934 47.5517 128.328 47.6308L131.243 48.0264C131.952 48.1055 132.424 48.8176 132.345 49.5297C132.267 49.8462 132.188 50.0836 131.952 50.2418L129.903 52.2989C129.588 52.6154 129.431 53.011 129.509 53.4858L129.982 56.3341C130.061 57.0462 129.588 57.6792 128.879 57.8374C128.643 57.9165 128.328 57.8374 128.091 57.6792L125.492 56.3341C125.098 56.0967 124.625 56.0967 124.31 56.3341L121.71 57.6792C121.08 57.9957 120.293 57.7583 119.977 57.1253C119.82 56.888 119.82 56.5715 119.82 56.255L120.293 53.4066C120.371 53.011 120.214 52.5363 119.899 52.2198L117.85 50.1627C117.299 49.688 117.299 48.8176 117.85 48.3429C118.087 48.1055 118.323 48.0264 118.559 47.9473L121.474 47.5517C121.868 47.4726 122.262 47.2352 122.419 46.8396L123.68 44.2286C123.995 43.9121 124.468 43.5957 124.94 43.5957ZM125.019 42.8044C124.231 42.8044 123.522 43.2792 123.128 43.9913L121.868 46.6022C121.789 46.7605 121.632 46.8396 121.474 46.8396L118.559 47.2352C117.772 47.3143 117.141 47.8682 116.905 48.6594C116.669 49.4506 116.826 50.2418 117.457 50.7957L119.505 52.8528C119.662 52.9319 119.662 53.1693 119.662 53.3275L119.19 56.1759C119.111 56.8088 119.268 57.4418 119.662 57.9165C120.056 58.3913 120.608 58.7077 121.238 58.7077C121.553 58.7077 121.947 58.6286 122.183 58.4704L124.783 57.1253C124.862 57.1253 124.94 57.0462 125.019 57.0462C125.098 57.0462 125.177 57.0462 125.255 57.1253L127.855 58.4704C128.17 58.6286 128.485 58.7077 128.8 58.7077C129.431 58.7077 129.982 58.3913 130.376 57.9165C130.77 57.4418 130.927 56.8088 130.849 56.1759L130.376 53.3275C130.376 53.1693 130.376 53.011 130.534 52.8528L132.582 50.7957C133.369 50.0044 133.448 48.6594 132.66 47.8682C132.345 47.5517 131.951 47.3143 131.479 47.2352L128.564 46.8396C128.407 46.8396 128.249 46.6814 128.17 46.6022L126.91 43.9913C126.516 43.2792 125.728 42.8044 125.019 42.8044Z" fill="#FF9D28"/>
<path d="M105.088 43.5957C105.561 43.5957 106.034 43.9121 106.27 44.3077L107.53 46.9187C107.688 47.3143 108.082 47.5517 108.476 47.6308L111.391 48.0264C112.1 48.1055 112.572 48.8176 112.493 49.5297C112.415 49.8462 112.336 50.0836 112.1 50.2418L110.051 52.2989C109.736 52.6154 109.579 53.011 109.657 53.4858L110.13 56.3341C110.288 57.0462 109.815 57.6792 109.106 57.8374C109.027 57.8374 108.948 57.8374 108.87 57.8374C108.633 57.8374 108.476 57.7583 108.239 57.6792L105.64 56.3341C105.246 56.0967 104.773 56.0967 104.458 56.3341L101.859 57.6792C101.228 57.9957 100.441 57.6792 100.125 57.0462C100.047 56.8088 99.9679 56.5715 100.047 56.3341L100.519 53.4858C100.598 53.0902 100.441 52.6154 100.125 52.2989L97.9984 50.2418C97.447 49.7671 97.447 48.8968 97.9984 48.422C98.2348 48.1847 98.4711 48.1055 98.7074 48.0264L101.622 47.6308C102.016 47.5517 102.41 47.3143 102.568 46.9187L103.828 44.3077C104.143 43.9121 104.616 43.5957 105.088 43.5957ZM105.088 42.8044C104.301 42.8044 103.513 43.2792 103.198 43.9913L101.937 46.6022C101.859 46.7605 101.701 46.8396 101.543 46.8396L98.6287 47.2352C97.5258 47.3935 96.738 48.422 96.8956 49.6088C96.9743 50.0836 97.2107 50.4792 97.5258 50.7957L99.6528 52.8528C99.8103 52.9319 99.8103 53.1693 99.8103 53.3275L99.3376 56.1759C99.2589 56.8088 99.4164 57.4418 99.8103 57.9165C100.204 58.3913 100.756 58.7077 101.386 58.7077C101.701 58.7077 102.095 58.6286 102.331 58.4704L104.931 57.1253C105.01 57.1253 105.088 57.0462 105.167 57.0462C105.246 57.0462 105.325 57.0462 105.403 57.1253L108.003 58.4704C108.318 58.6286 108.633 58.7077 108.948 58.7077C109.579 58.7077 110.13 58.3913 110.524 57.9165C110.918 57.4418 111.075 56.8088 110.997 56.1759L110.524 53.3275C110.524 53.1693 110.524 53.011 110.682 52.8528L112.73 50.8748C113.518 50.0836 113.596 48.7385 112.809 47.9473C112.493 47.6308 112.1 47.3935 111.627 47.3143L108.712 46.9187C108.555 46.9187 108.397 46.7605 108.318 46.6814L107.058 44.0704C106.585 43.2792 105.876 42.8044 105.088 42.8044Z" fill="#FF9D28"/>
<path d="M105.088 43.5957C105.561 43.5957 106.034 43.9121 106.27 44.3077L107.53 46.9187C107.688 47.3143 108.082 47.5517 108.476 47.6308L111.391 48.0264C112.1 48.1055 112.572 48.8176 112.493 49.5297C112.415 49.8462 112.336 50.0836 112.1 50.2418L110.051 52.2989C109.736 52.6154 109.579 53.011 109.657 53.4858L110.13 56.3341C110.288 57.0462 109.815 57.6792 109.106 57.8374C109.027 57.8374 108.948 57.8374 108.87 57.8374C108.633 57.8374 108.476 57.7583 108.239 57.6792L105.64 56.3341C105.246 56.0967 104.773 56.0967 104.458 56.3341L101.859 57.6792C101.228 57.9957 100.441 57.6792 100.125 57.0462C100.047 56.8088 99.9679 56.5715 100.047 56.3341L100.519 53.4858C100.598 53.0902 100.441 52.6154 100.125 52.2989L97.9984 50.2418C97.447 49.7671 97.447 48.8968 97.9984 48.422C98.2348 48.1847 98.4711 48.1055 98.7074 48.0264L101.622 47.6308C102.016 47.5517 102.41 47.3143 102.568 46.9187L103.828 44.3077C104.143 43.9121 104.616 43.5957 105.088 43.5957ZM105.088 42.8044C104.301 42.8044 103.513 43.2792 103.198 43.9913L101.937 46.6022C101.859 46.7605 101.701 46.8396 101.543 46.8396L98.6287 47.2352C97.5258 47.3935 96.738 48.422 96.8956 49.6088C96.9743 50.0836 97.2107 50.4792 97.5258 50.7957L99.6528 52.8528C99.8103 52.9319 99.8103 53.1693 99.8103 53.3275L99.3376 56.1759C99.2589 56.8088 99.4164 57.4418 99.8103 57.9165C100.204 58.3913 100.756 58.7077 101.386 58.7077C101.701 58.7077 102.095 58.6286 102.331 58.4704L104.931 57.1253C105.01 57.1253 105.088 57.0462 105.167 57.0462C105.246 57.0462 105.325 57.0462 105.403 57.1253L108.003 58.4704C108.318 58.6286 108.633 58.7077 108.948 58.7077C109.579 58.7077 110.13 58.3913 110.524 57.9165C110.918 57.4418 111.075 56.8088 110.997 56.1759L110.524 53.3275C110.524 53.1693 110.524 53.011 110.682 52.8528L112.73 50.8748C113.518 50.0836 113.596 48.7385 112.809 47.9473C112.493 47.6308 112.1 47.3935 111.627 47.3143L108.712 46.9187C108.555 46.9187 108.397 46.7605 108.318 46.6814L107.058 44.0704C106.585 43.2792 105.876 42.8044 105.088 42.8044Z" fill="#FF9D28"/>
<path d="M105.088 43.5957C105.561 43.5957 106.034 43.9121 106.27 44.3077L107.53 46.9187C107.688 47.3143 108.082 47.5517 108.476 47.6308L111.391 48.0264C112.1 48.1055 112.572 48.8176 112.493 49.5297C112.415 49.8462 112.336 50.0836 112.1 50.2418L110.051 52.2989C109.736 52.6154 109.579 53.011 109.657 53.4858L110.13 56.3341C110.288 57.0462 109.815 57.6792 109.106 57.8374C109.027 57.8374 108.948 57.8374 108.87 57.8374C108.633 57.8374 108.476 57.7583 108.239 57.6792L105.64 56.3341C105.246 56.0967 104.773 56.0967 104.458 56.3341L101.859 57.6792C101.228 57.9957 100.441 57.6792 100.125 57.0462C100.047 56.8088 99.9679 56.5715 100.047 56.3341L100.519 53.4858C100.598 53.0902 100.441 52.6154 100.125 52.2989L97.9984 50.2418C97.447 49.7671 97.447 48.8968 97.9984 48.422C98.2348 48.1847 98.4711 48.1055 98.7074 48.0264L101.622 47.6308C102.016 47.5517 102.41 47.3143 102.568 46.9187L103.828 44.3077C104.143 43.9121 104.616 43.5957 105.088 43.5957ZM105.088 42.8044C104.301 42.8044 103.513 43.2792 103.198 43.9913L101.937 46.6022C101.859 46.7605 101.701 46.8396 101.543 46.8396L98.6287 47.2352C97.5258 47.3935 96.738 48.422 96.8956 49.6088C96.9743 50.0836 97.2107 50.4792 97.5258 50.7957L99.6528 52.8528C99.8103 52.9319 99.8103 53.1693 99.8103 53.3275L99.3376 56.1759C99.2589 56.8088 99.4164 57.4418 99.8103 57.9165C100.204 58.3913 100.756 58.7077 101.386 58.7077C101.701 58.7077 102.095 58.6286 102.331 58.4704L104.931 57.1253C105.01 57.1253 105.088 57.0462 105.167 57.0462C105.246 57.0462 105.325 57.0462 105.403 57.1253L108.003 58.4704C108.318 58.6286 108.633 58.7077 108.948 58.7077C109.579 58.7077 110.13 58.3913 110.524 57.9165C110.918 57.4418 111.075 56.8088 110.997 56.1759L110.524 53.3275C110.524 53.1693 110.524 53.011 110.682 52.8528L112.73 50.8748C113.518 50.0836 113.596 48.7385 112.809 47.9473C112.493 47.6308 112.1 47.3935 111.627 47.3143L108.712 46.9187C108.555 46.9187 108.397 46.7605 108.318 46.6814L107.058 44.0704C106.585 43.2792 105.876 42.8044 105.088 42.8044Z" fill="#FF9D28"/>
<path d="M105.088 43.5957C105.561 43.5957 106.034 43.9121 106.27 44.3077L107.53 46.9187C107.688 47.3143 108.082 47.5517 108.476 47.6308L111.391 48.0264C112.1 48.1055 112.572 48.8176 112.493 49.5297C112.415 49.8462 112.336 50.0836 112.1 50.2418L110.051 52.2989C109.736 52.6154 109.579 53.011 109.657 53.4858L110.13 56.3341C110.288 57.0462 109.815 57.6792 109.106 57.8374C109.027 57.8374 108.948 57.8374 108.87 57.8374C108.633 57.8374 108.476 57.7583 108.239 57.6792L105.64 56.3341C105.246 56.0967 104.773 56.0967 104.458 56.3341L101.859 57.6792C101.228 57.9957 100.441 57.6792 100.125 57.0462C100.047 56.8088 99.9679 56.5715 100.047 56.3341L100.519 53.4858C100.598 53.0902 100.441 52.6154 100.125 52.2989L97.9984 50.2418C97.447 49.7671 97.447 48.8968 97.9984 48.422C98.2348 48.1847 98.4711 48.1055 98.7074 48.0264L101.622 47.6308C102.016 47.5517 102.41 47.3143 102.568 46.9187L103.828 44.3077C104.143 43.9121 104.616 43.5957 105.088 43.5957ZM105.088 42.8044C104.301 42.8044 103.513 43.2792 103.198 43.9913L101.937 46.6022C101.859 46.7605 101.701 46.8396 101.543 46.8396L98.6287 47.2352C97.5258 47.3935 96.738 48.422 96.8956 49.6088C96.9743 50.0836 97.2107 50.4792 97.5258 50.7957L99.6528 52.8528C99.8103 52.9319 99.8103 53.1693 99.8103 53.3275L99.3376 56.1759C99.2589 56.8088 99.4164 57.4418 99.8103 57.9165C100.204 58.3913 100.756 58.7077 101.386 58.7077C101.701 58.7077 102.095 58.6286 102.331 58.4704L104.931 57.1253C105.01 57.1253 105.088 57.0462 105.167 57.0462C105.246 57.0462 105.325 57.0462 105.403 57.1253L108.003 58.4704C108.318 58.6286 108.633 58.7077 108.948 58.7077C109.579 58.7077 110.13 58.3913 110.524 57.9165C110.918 57.4418 111.075 56.8088 110.997 56.1759L110.524 53.3275C110.524 53.1693 110.524 53.011 110.682 52.8528L112.73 50.8748C113.518 50.0836 113.596 48.7385 112.809 47.9473C112.493 47.6308 112.1 47.3935 111.627 47.3143L108.712 46.9187C108.555 46.9187 108.397 46.7605 108.318 46.6814L107.058 44.0704C106.585 43.2792 105.876 42.8044 105.088 42.8044Z" fill="#FF9D28"/>
<path d="M105.088 43.5957C105.561 43.5957 106.034 43.9121 106.27 44.3077L107.53 46.9187C107.688 47.3143 108.082 47.5517 108.476 47.6308L111.391 48.0264C112.1 48.1055 112.572 48.8176 112.493 49.5297C112.415 49.8462 112.336 50.0836 112.1 50.2418L110.051 52.2989C109.736 52.6154 109.579 53.011 109.657 53.4858L110.13 56.3341C110.288 57.0462 109.815 57.6792 109.106 57.8374C109.027 57.8374 108.948 57.8374 108.87 57.8374C108.633 57.8374 108.476 57.7583 108.239 57.6792L105.64 56.3341C105.246 56.0968 104.773 56.0968 104.458 56.3341L101.859 57.6792C101.228 57.9957 100.441 57.7583 100.125 57.1253C99.9679 56.888 99.9679 56.5715 99.9679 56.255L100.441 53.4066C100.519 53.011 100.362 52.5363 100.047 52.2198L97.9197 50.1627C97.3682 49.688 97.3682 48.8176 97.9197 48.3429C98.156 48.1055 98.3923 48.0264 98.6287 47.9473L101.543 47.5517C101.937 47.4726 102.331 47.2352 102.489 46.8396L103.749 44.2286C104.143 43.9121 104.537 43.5957 105.088 43.5957ZM105.088 42.8044C104.301 42.8044 103.592 43.2792 103.198 43.9913L101.937 46.6022C101.859 46.7605 101.701 46.8396 101.543 46.8396L98.6287 47.2352C97.5258 47.3935 96.738 48.422 96.8956 49.6088C96.9743 50.0836 97.2107 50.4792 97.5258 50.7957L99.6528 52.8528C99.8103 52.9319 99.8103 53.1693 99.8103 53.3275L99.3376 56.1759C99.2589 56.8088 99.4164 57.4418 99.8103 57.9165C100.204 58.3913 100.756 58.7077 101.386 58.7077C101.701 58.7077 102.095 58.6286 102.331 58.4704L104.931 57.1253C105.01 57.1253 105.088 57.0462 105.167 57.0462C105.246 57.0462 105.325 57.0462 105.403 57.1253L107.924 58.5495C108.239 58.7077 108.555 58.7869 108.87 58.7869C109.5 58.7869 110.051 58.4704 110.445 57.9957C110.839 57.5209 110.997 56.888 110.918 56.255L110.445 53.4066C110.445 53.2484 110.445 53.0902 110.603 52.9319L112.73 50.8748C113.518 50.0836 113.596 48.7385 112.809 47.9473C112.493 47.6308 112.1 47.3935 111.627 47.3143L108.712 46.9187C108.555 46.9187 108.397 46.7605 108.318 46.6814L107.058 44.0704C106.585 43.2792 105.876 42.8044 105.088 42.8044Z" fill="#FF9D28"/>
<path d="M152.197 50.7957C152.985 50.0044 153.064 48.6594 152.276 47.8682C151.961 47.5517 151.488 47.3143 151.094 47.2352L148.18 46.8396C148.022 46.8396 147.864 46.6814 147.786 46.6022L146.525 43.9913C145.974 43.2792 145.265 42.8044 144.477 42.8044C143.689 42.8044 142.98 43.2792 142.586 43.9913L141.326 46.6022C141.247 46.7605 141.09 46.8396 140.932 46.8396L138.017 47.2352C136.914 47.3935 136.127 48.422 136.284 49.6088C136.363 50.0836 136.599 50.4792 136.914 50.7957L139.041 52.8528C139.199 52.9319 139.199 53.1693 139.199 53.3275L138.726 56.1759C138.648 56.8088 138.805 57.4418 139.199 57.9165C139.593 58.3913 140.144 58.7077 140.775 58.7077C141.09 58.7077 141.484 58.6286 141.72 58.4704L144.319 57.1253C144.398 57.1253 144.477 57.0462 144.556 57.0462C144.635 57.0462 144.713 57.0462 144.792 57.1253L147.392 58.4704C147.707 58.6286 148.022 58.7077 148.337 58.7077C148.967 58.7077 149.519 58.3913 149.913 57.9165C150.307 57.4418 150.464 56.8088 150.385 56.1759L149.913 53.3275C149.913 53.1693 149.913 53.011 150.07 52.8528L152.197 50.7957ZM151.882 49.5297C151.803 49.8462 151.725 50.0836 151.488 50.2418L150.464 51.2704V48.0264L150.779 48.1055C151.488 48.1055 151.961 48.8176 151.882 49.5297Z" fill="#FF9D28"/>
</g>
<defs>
<clipPath id="clip0_814_99081">
<rect width="219" height="72" fill="white"/>
</clipPath>
</defs>
</svg>
