<svg width="124" height="83" viewBox="0 0 124 83" fill="none" xmlns="http://www.w3.org/2000/svg">
<path d="M119.753 0H4.24658C1.90126 0 0 1.89594 0 4.23469V78.7653C0 81.1041 1.90126 83 4.24658 83H119.753C122.099 83 124 81.1041 124 78.7653V4.23469C124 1.89594 122.099 0 119.753 0Z" fill="#001C63"/>
<path d="M118.267 3.17603H5.73276C4.32557 3.17603 3.18481 4.31359 3.18481 5.71684V77.2832C3.18481 78.6864 4.32557 79.824 5.73276 79.824H118.267C119.674 79.824 120.815 78.6864 120.815 77.2832V5.71684C120.815 4.31359 119.674 3.17603 118.267 3.17603Z" fill="#001C63" stroke="white" stroke-width="5"/>
<path fill-rule="evenodd" clip-rule="evenodd" d="M22.9316 66.273L19.137 68.2624C18.6065 68.5405 17.9503 68.3371 17.6714 67.8081C17.5603 67.5974 17.522 67.3561 17.5623 67.1215L18.2871 62.908L15.2171 59.9239C14.7879 59.5067 14.7792 58.8216 15.1975 58.3936C15.3641 58.2231 15.5824 58.1122 15.8186 58.078L20.0611 57.4632L21.9584 53.6296C22.2237 53.0937 22.8744 52.8736 23.4119 53.1381C23.6259 53.2434 23.7991 53.4162 23.9048 53.6296L25.8021 57.4632L30.0446 58.078C30.6377 58.1639 31.0487 58.7131 30.9625 59.3046C30.9282 59.5401 30.817 59.7578 30.6461 59.9239L27.5761 62.908L28.3008 67.1215C28.4022 67.7106 28.0054 68.2701 27.4147 68.3711C27.1795 68.4113 26.9375 68.3731 26.7262 68.2624L22.9316 66.273Z" fill="#F7A200"/>
<path fill-rule="evenodd" clip-rule="evenodd" d="M42.4658 66.273L38.6711 68.2624C38.1406 68.5405 37.4845 68.3371 37.2056 67.8081C37.0945 67.5974 37.0562 67.3561 37.0965 67.1215L37.8212 62.908L34.7513 59.9239C34.3221 59.5067 34.3133 58.8216 34.7317 58.3936C34.8983 58.2231 35.1166 58.1122 35.3528 58.078L39.5953 57.4632L41.4926 53.6296C41.7579 53.0937 42.4086 52.8736 42.9461 53.1381C43.1601 53.2434 43.3333 53.4162 43.4389 53.6296L45.3363 57.4632L49.5788 58.078C50.1719 58.1639 50.5829 58.7131 50.4967 59.3046C50.4624 59.5401 50.3512 59.7578 50.1802 59.9239L47.1103 62.908L47.835 67.1215C47.9363 67.7106 47.5396 68.2701 46.9489 68.3711C46.7136 68.4113 46.4717 68.3731 46.2604 68.2624L42.4658 66.273Z" fill="#F7A200"/>
<path fill-rule="evenodd" clip-rule="evenodd" d="M62.0002 66.273L58.2056 68.2624C57.6751 68.5405 57.0189 68.3371 56.74 67.8081C56.6289 67.5974 56.5906 67.3561 56.6309 67.1215L57.3557 62.908L54.2857 59.9239C53.8565 59.5067 53.8478 58.8216 54.2661 58.3936C54.4327 58.2231 54.651 58.1122 54.8872 58.078L59.1297 57.4632L61.027 53.6296C61.2923 53.0937 61.943 52.8736 62.4805 53.1381C62.6945 53.2434 62.8677 53.4162 62.9734 53.6296L64.8707 57.4632L69.1132 58.078C69.7063 58.1639 70.1173 58.7131 70.0311 59.3046C69.9968 59.5401 69.8856 59.7578 69.7147 59.9239L66.6447 62.908L67.3695 67.1215C67.4708 67.7106 67.074 68.2701 66.4833 68.3711C66.2481 68.4113 66.0061 68.3731 65.7948 68.2624L62.0002 66.273Z" fill="#F7A200"/>
<path fill-rule="evenodd" clip-rule="evenodd" d="M81.5344 66.273L77.7397 68.2624C77.2092 68.5405 76.5531 68.3371 76.2742 67.8081C76.1631 67.5974 76.1248 67.3561 76.1651 67.1215L76.8898 62.908L73.8199 59.9239C73.3907 59.5067 73.3819 58.8216 73.8003 58.3936C73.9669 58.2231 74.1852 58.1122 74.4214 58.078L78.6639 57.4632L80.5612 53.6296C80.8265 53.0937 81.4772 52.8736 82.0147 53.1381C82.2287 53.2434 82.4019 53.4162 82.5075 53.6296L84.4049 57.4632L88.6474 58.078C89.2405 58.1639 89.6515 58.7131 89.5653 59.3046C89.531 59.5401 89.4197 59.7578 89.2488 59.9239L86.1789 62.908L86.9036 67.1215C87.0049 67.7106 86.6082 68.2701 86.0175 68.3711C85.7822 68.4113 85.5403 68.3731 85.329 68.2624L81.5344 66.273Z" fill="#F7A200"/>
<mask id="mask0_814_99047" style="mask-type:alpha" maskUnits="userSpaceOnUse" x="93" y="53" width="17" height="16">
<path d="M101.069 66.273L97.2739 68.2623C96.7434 68.5405 96.0873 68.3371 95.8083 67.8081C95.6973 67.5974 95.659 67.3561 95.6993 67.1215L96.424 62.908L93.3541 59.9239C92.9249 59.5067 92.9161 58.8216 93.3345 58.3936C93.5011 58.2231 93.7194 58.1122 93.9555 58.078L98.1981 57.4632L100.095 53.6296C100.361 53.0937 101.011 52.8736 101.549 53.1381C101.763 53.2434 101.936 53.4162 102.042 53.6296L103.939 57.4632L108.182 58.078C108.775 58.1639 109.186 58.7131 109.099 59.3046C109.065 59.5401 108.954 59.7578 108.783 59.9239L105.713 62.908L106.438 67.1215C106.539 67.7106 106.142 68.27 105.552 68.3711C105.316 68.4113 105.074 68.3731 104.863 68.2623L101.069 66.273Z" fill="#252C34"/>
</mask>
<g mask="url(#mask0_814_99047)">
<path d="M101.069 66.273L97.2739 68.2623C96.7434 68.5405 96.0873 68.3371 95.8083 67.8081C95.6973 67.5974 95.659 67.3561 95.6993 67.1215L96.424 62.908L93.3541 59.9239C92.9249 59.5067 92.9161 58.8216 93.3345 58.3936C93.5011 58.2231 93.7194 58.1122 93.9555 58.078L98.1981 57.4632L100.095 53.6296C100.361 53.0937 101.011 52.8736 101.549 53.1381C101.763 53.2434 101.936 53.4162 102.042 53.6296L103.939 57.4632L108.182 58.078C108.775 58.1639 109.186 58.7131 109.099 59.3046C109.065 59.5401 108.954 59.7578 108.783 59.9239L105.713 62.908L106.438 67.1215C106.539 67.7106 106.142 68.27 105.552 68.3711C105.316 68.4113 105.074 68.3731 104.863 68.2623L101.069 66.273Z" fill="#E9ECFA"/>
<path fill-rule="evenodd" clip-rule="evenodd" d="M89.4023 50.04H101.069V69.5196H89.4023V50.04Z" fill="#F7A200"/>
</g>
<path d="M34.7582 46.2598C36.4738 46.2598 37.2807 45.3028 37.2807 43.8969V40.5091H36.0577V43.863C36.0577 44.6507 35.6245 45.1927 34.7582 45.1927C33.8749 45.1927 33.4418 44.6507 33.4418 43.863V40.5091H32.2188V43.9054C32.2188 45.2943 33.0256 46.2598 34.7582 46.2598ZM40.4146 46.2598C41.9434 46.2598 42.6823 45.4807 42.6823 44.4474C42.6823 43.1939 41.4933 42.9144 40.559 42.7027C39.905 42.5503 39.4294 42.4317 39.4294 42.0506C39.4294 41.7118 39.7182 41.4746 40.2618 41.4746C40.8138 41.4746 41.4253 41.6694 41.884 42.0929L42.5549 41.2121C41.9944 40.6955 41.247 40.4244 40.3467 40.4244C39.0133 40.4244 38.1979 41.1867 38.1979 42.1268C38.1979 43.3887 39.387 43.6428 40.3127 43.8545C40.9667 44.007 41.4593 44.151 41.4593 44.5744C41.4593 44.8963 41.1366 45.2096 40.4741 45.2096C39.6927 45.2096 39.0727 44.8624 38.6735 44.4474L38.0111 45.3621C38.5461 45.8957 39.3275 46.2598 40.4146 46.2598ZM47.5064 46.1582V45.1165H44.7037V43.8037H47.447V42.7705H44.7037V41.5424H47.5064V40.5091H43.4977V46.1582H47.5064ZM49.6552 46.1582V44.134H50.5385L51.6511 46.1582H53.0355L51.7615 44.007C52.373 43.863 53.0015 43.3294 53.0015 42.3301C53.0015 41.2798 52.2796 40.5091 51.099 40.5091H48.4492V46.1582H49.6552ZM50.9207 43.1008H49.6552V41.5424H50.9207C51.4048 41.5424 51.77 41.8473 51.77 42.3216C51.77 42.7959 51.4048 43.1008 50.9207 43.1008ZM57.2905 46.1582V44.134H58.1738L59.2864 46.1582H60.6708L59.3968 44.007C60.0083 43.863 60.6368 43.3294 60.6368 42.3301C60.6368 41.2798 59.9149 40.5091 58.7344 40.5091H56.0845V46.1582H57.2905ZM58.556 43.1008H57.2905V41.5424H58.556C59.0401 41.5424 59.4053 41.8473 59.4053 42.3216C59.4053 42.7959 59.0401 43.1008 58.556 43.1008ZM65.5544 46.1582V45.1165H62.7516V43.8037H65.4949V42.7705H62.7516V41.5424H65.5544V40.5091H61.5456V46.1582H65.5544ZM69.5971 46.1582L71.7798 40.5091H70.4039L68.8412 44.8539L67.27 40.5091H65.8941L68.0853 46.1582H69.5971ZM73.5124 46.1582V40.5091H72.3064V46.1582H73.5124ZM78.2176 46.1582V45.1165H75.4149V43.8037H78.1582V42.7705H75.4149V41.5424H78.2176V40.5091H74.2089V46.1582H78.2176ZM81.9376 46.1582L82.9229 42.2792L83.9165 46.1582H85.199L86.8127 40.5091H85.4538L84.4686 44.5914L83.3985 40.5091H82.4557L81.3771 44.5914L80.3834 40.5091H79.033L80.6552 46.1582H81.9376ZM89.8193 46.2598C91.348 46.2598 92.087 45.4807 92.087 44.4474C92.087 43.1939 90.8979 42.9144 89.9637 42.7027C89.3097 42.5503 88.8341 42.4317 88.8341 42.0506C88.8341 41.7118 89.1228 41.4746 89.6664 41.4746C90.2185 41.4746 90.83 41.6694 91.2886 42.0929L91.9596 41.2121C91.399 40.6955 90.6516 40.4244 89.7513 40.4244C88.4179 40.4244 87.6026 41.1867 87.6026 42.1268C87.6026 43.3887 88.7916 43.6428 89.7174 43.8545C90.3713 44.007 90.8639 44.151 90.8639 44.5744C90.8639 44.8963 90.5412 45.2096 89.8787 45.2096C89.0974 45.2096 88.4774 44.8624 88.0782 44.4474L87.4157 45.3621C87.9508 45.8957 88.7322 46.2598 89.8193 46.2598Z" fill="white"/>
<path d="M43.6702 19.3174C43.6886 18.579 43.8346 17.8497 44.1016 17.1623C44.3516 16.5207 44.7411 15.9444 45.2413 15.4759C45.7703 14.9904 46.3946 14.6232 47.0734 14.3983C47.8907 14.1141 48.7496 13.972 49.6138 13.978C50.5723 13.9487 51.5277 14.1004 52.4312 14.4252C53.0815 14.6705 53.681 15.0359 54.1994 15.5028C54.5952 15.8593 54.9096 16.2987 55.1208 16.7905C55.2734 17.1478 55.3756 17.525 55.4243 17.9112C55.4431 18.055 55.3891 18.1988 55.2805 18.2937C55.1778 18.3939 55.0397 18.4483 54.8971 18.4446H53.2993C53.1768 18.4494 53.0564 18.4113 52.9585 18.3368C52.8812 18.2735 52.8177 18.1946 52.7721 18.1051C52.7721 18.0566 52.6762 17.9381 52.5644 17.7603C52.4187 17.5511 52.2385 17.3689 52.0318 17.2215C51.7448 16.994 51.4251 16.8123 51.0838 16.6827C50.6093 16.5188 50.1097 16.4421 49.6085 16.4564C48.7526 16.4146 47.913 16.7035 47.2598 17.2646C46.6646 17.8203 46.3233 18.6004 46.3171 19.4198C46.3171 19.9208 46.2798 20.4596 46.2798 21.0361C46.2798 21.6126 46.2798 22.1514 46.3171 22.6524C46.2762 23.55 46.6197 24.4218 47.2598 25.0446C47.9304 25.5717 48.7658 25.8375 49.6138 25.7935C50.0644 25.7979 50.5137 25.7435 50.9506 25.6319C51.3406 25.5341 51.7044 25.3501 52.0158 25.0931C52.3195 24.8422 52.5558 24.518 52.7028 24.1503C52.8796 23.6924 52.9629 23.203 52.9478 22.7117V22.5986H50.2849C50.1436 22.6003 50.0082 22.5416 49.9121 22.4369C49.8117 22.3375 49.7543 22.2019 49.7523 22.0598V20.6266C49.7543 20.4845 49.8117 20.349 49.9121 20.2495C50.0113 20.1499 50.1452 20.0938 50.2849 20.0932H55.0782C55.2179 20.0938 55.3518 20.1499 55.451 20.2495C55.5513 20.349 55.6087 20.4845 55.6107 20.6266V22.8141C55.6168 23.5617 55.4905 24.3043 55.2379 25.0069C54.9892 25.663 54.5979 26.254 54.0929 26.7364C53.5535 27.2398 52.917 27.625 52.2235 27.8679C50.5307 28.3995 48.7183 28.3995 47.0255 27.8679C46.3442 27.6337 45.721 27.2532 45.1987 26.7526C44.7096 26.2686 44.3314 25.6819 44.0909 25.0339C43.8293 24.3322 43.6871 23.5908 43.6702 22.841C43.6702 22.5932 43.6702 22.3022 43.6382 22.0059C43.6063 21.7096 43.6382 21.3917 43.6382 21.0738C43.6382 20.7559 43.6382 20.4488 43.6382 20.1417C43.6382 19.8346 43.6542 19.5706 43.6702 19.3174Z" fill="white"/>
<path d="M56.6542 22.9339C56.65 22.2265 56.7634 21.5234 56.99 20.8536C57.1954 20.2323 57.5214 19.658 57.9492 19.1637C58.3705 18.6807 58.8903 18.294 59.4734 18.03C60.0991 17.7454 60.7797 17.6029 61.4665 17.6129C62.1521 17.6053 62.8314 17.7439 63.4597 18.0193C64.0337 18.2675 64.5507 18.6316 64.9785 19.0889C65.4068 19.5531 65.7384 20.0986 65.9538 20.6932C66.1839 21.3104 66.2995 21.9647 66.2948 22.6237V23.5114C66.2942 23.6517 66.2387 23.7861 66.1403 23.8858C66.0419 23.9865 65.9078 24.0442 65.7672 24.0462H59.2069C59.2022 24.3232 59.2663 24.5971 59.3935 24.843C59.5169 25.071 59.6878 25.2698 59.8944 25.4259C60.1133 25.5856 60.3587 25.7051 60.6192 25.7788C60.8947 25.858 61.18 25.8976 61.4665 25.8965C61.8104 25.9062 62.1537 25.8629 62.4844 25.7681C62.7187 25.6989 62.9388 25.5884 63.1346 25.4419C63.2444 25.359 63.3622 25.2873 63.4863 25.228C63.6053 25.1829 63.7323 25.1629 63.8594 25.1692H65.4581C65.6016 25.1669 65.74 25.2229 65.8419 25.3243C65.9477 25.4184 66.0031 25.5572 65.9911 25.6986C65.9462 25.9561 65.8422 26.1996 65.6873 26.4099C65.4536 26.7404 65.163 27.0265 64.8293 27.2548C64.3907 27.5625 63.9095 27.8039 63.4011 27.9714C62.7774 28.1784 62.1233 28.2778 61.4665 28.2655C60.7829 28.2753 60.1046 28.1442 59.4734 27.8805C58.8931 27.6409 58.3727 27.2757 57.9492 26.8109C57.5216 26.3186 57.1955 25.7461 56.99 25.1264C56.7554 24.4199 56.6418 23.6785 56.6542 22.9339ZM61.4506 19.9819C61.1178 19.9726 60.7864 20.0289 60.4753 20.1477C60.2255 20.2499 59.9962 20.3967 59.7985 20.5809C59.6224 20.7486 59.4796 20.9482 59.3775 21.1691C59.2867 21.368 59.2239 21.5786 59.191 21.7948H63.6302C63.6009 21.5819 63.5509 21.3723 63.481 21.1691C63.4087 20.9493 63.2885 20.7484 63.1293 20.5809C62.9461 20.3912 62.7244 20.2435 62.4791 20.1477C62.1553 20.0279 61.8115 19.9717 61.4665 19.9819H61.4506Z" fill="white"/>
<path d="M70.361 24.3009C70.3419 24.6546 70.4571 25.0024 70.683 25.273C71.0149 25.5539 71.4459 25.6852 71.8758 25.6362H73.0634C73.2026 25.6382 73.3354 25.6958 73.4328 25.7965C73.5354 25.8929 73.5929 26.0287 73.5912 26.1704V27.4683C73.5892 27.6092 73.5323 27.7436 73.4328 27.8422C73.3366 27.944 73.2026 28.0002 73.0634 27.9971H71.6225C70.609 28.0673 69.6066 27.7489 68.8146 27.1051C68.1094 26.3773 67.7512 25.3756 67.8329 24.3596V20.1239H67.0834C66.7919 20.1239 66.5556 19.8848 66.5556 19.5898V18.2972C66.5519 18.1562 66.6075 18.0203 66.7087 17.9233C66.8074 17.8214 66.9423 17.7636 67.0834 17.7631H67.8276V15.0283C67.8276 14.7333 68.0639 14.4941 68.3554 14.4941H69.8332C69.9717 14.4947 70.1044 14.5504 70.2027 14.649C70.3022 14.7477 70.3591 14.882 70.361 15.0229V17.7631H72.8892C73.1807 17.7631 73.417 18.0022 73.417 18.2972V19.5951C73.415 19.736 73.3581 19.8704 73.2587 19.969C73.1628 20.0714 73.0285 20.1277 72.8892 20.1239H70.3822L70.361 24.3009Z" fill="white"/>
<path d="M81.9544 14.7558C82.1239 14.743 82.2911 14.801 82.4159 14.9157C82.5376 15.0597 82.6289 15.2265 82.6842 15.4064L87.3955 27.3572C87.4046 27.4012 87.4046 27.4465 87.3955 27.4905C87.3983 27.628 87.3416 27.76 87.2399 27.8532C87.1448 27.9517 87.0123 28.0059 86.875 28.0025H85.4906C85.2973 28.0234 85.1037 27.9657 84.954 27.8425C84.8641 27.7512 84.7914 27.6447 84.7394 27.5279L83.913 25.3947H77.8602L77.0285 27.5279C76.9808 27.6457 76.9096 27.7527 76.8192 27.8425C76.6689 27.9646 76.4758 28.0222 76.2826 28.0025H74.8929C74.7559 28.004 74.6242 27.9501 74.528 27.8532C74.4299 27.7579 74.3756 27.6268 74.3777 27.4905C74.3715 27.4463 74.3715 27.4014 74.3777 27.3572L79.0944 15.433C79.1497 15.2532 79.2409 15.0863 79.3627 14.9424C79.4868 14.8265 79.6545 14.7684 79.8242 14.7824L81.9544 14.7558ZM83.0276 22.9896L80.8973 17.5395L78.7832 22.9896H83.0276Z" fill="white"/>
<path d="M93.9689 28.2116C93.6011 28.2171 93.234 28.1778 92.8758 28.0944C92.5856 28.0262 92.3032 27.928 92.0333 27.8015C91.8119 27.6998 91.6042 27.571 91.4147 27.418C91.2668 27.3006 91.1278 27.1725 90.9988 27.0346V30.5923C90.9996 30.7339 90.944 30.87 90.8442 30.9705C90.7448 31.0689 90.6108 31.1244 90.4709 31.125H88.9778C88.6833 31.125 88.4446 30.8865 88.4446 30.5923V18.3425C88.4446 18.0484 88.6833 17.8099 88.9778 17.8099H90.4709C90.6115 17.8119 90.7457 17.8693 90.8442 17.9697C90.9427 18.0689 90.9982 18.2028 90.9988 18.3425V18.7899C91.1266 18.6525 91.2657 18.526 91.4147 18.4117C91.6042 18.2588 91.8119 18.1299 92.0333 18.0283C92.303 17.8999 92.5854 17.8 92.8758 17.73C93.2345 17.6493 93.6013 17.6099 93.9689 17.6128C94.5823 17.6041 95.1896 17.7352 95.7446 17.9963C96.2614 18.2409 96.7225 18.589 97.099 19.0189C97.4772 19.448 97.7768 19.9401 97.9842 20.4729C98.2005 21.0276 98.3231 21.6144 98.3468 22.2092V22.8963V23.5833C98.324 24.1782 98.2014 24.7651 97.9842 25.3196C97.7798 25.8602 97.48 26.3599 97.099 26.7949C96.7222 27.2232 96.2612 27.5695 95.7446 27.8122C95.191 28.0788 94.5836 28.2154 93.9689 28.2116ZM95.7926 23.4608C95.8353 23.0963 95.8353 22.7281 95.7926 22.3636C95.7871 21.6728 95.5048 21.0129 95.0088 20.5315C94.5464 20.1643 93.9673 19.9753 93.377 19.9989C92.7927 19.9857 92.2237 20.1865 91.7773 20.5635C91.3196 20.9857 91.0474 21.5715 91.0201 22.1932C90.9917 22.4407 90.9792 22.6898 90.9828 22.9389C90.9791 23.188 90.9916 23.437 91.0201 23.6845C91.0557 24.295 91.3272 24.8678 91.7773 25.2823C92.2169 25.6738 92.7882 25.8849 93.377 25.8735C93.9706 25.8896 94.5501 25.691 95.0088 25.3143C95.5086 24.8266 95.7911 24.1587 95.7926 23.4608Z" fill="white"/>
<path d="M104.905 28.2116C104.238 28.2228 103.576 28.0825 102.971 27.8015C102.751 27.6974 102.543 27.5687 102.352 27.418C102.205 27.3021 102.068 27.1738 101.942 27.0346V30.5923C101.942 30.8865 101.703 31.1249 101.409 31.1249H99.9168C99.777 31.1244 99.643 31.0689 99.5437 30.9705C99.444 30.87 99.3884 30.7339 99.3892 30.5923V18.3425C99.3898 18.2028 99.4453 18.0689 99.5437 17.9697C99.6421 17.8693 99.7762 17.8119 99.9168 17.8099H101.409C101.703 17.8099 101.942 18.0483 101.942 18.3425V18.7899C102.066 18.6511 102.204 18.5245 102.352 18.4117C102.543 18.261 102.751 18.1324 102.971 18.0283C103.242 17.9008 103.526 17.8008 103.818 17.73C104.168 17.6513 104.525 17.6119 104.884 17.6128C105.499 17.6042 106.107 17.7353 106.664 17.9963C107.18 18.2423 107.64 18.5902 108.018 19.0189C108.403 19.4473 108.712 19.9392 108.929 20.4729C109.143 21.0284 109.265 21.6147 109.291 22.2092V22.8962V23.5833C109.266 24.1779 109.143 24.7643 108.929 25.3196C108.723 25.8592 108.423 26.3586 108.044 26.7949C107.667 27.222 107.206 27.5681 106.691 27.8122C106.134 28.0795 105.523 28.2161 104.905 28.2116ZM106.733 23.4608C106.771 23.096 106.771 22.7284 106.733 22.3636C106.725 21.6733 106.444 21.0143 105.95 20.5315C105.488 20.1643 104.909 19.9753 104.319 19.9989C103.735 19.9847 103.166 20.1857 102.72 20.5634C102.261 20.9843 101.988 21.5709 101.963 22.1932C101.935 22.4407 101.922 22.6898 101.926 22.9389C101.922 23.1879 101.935 23.437 101.963 23.6845C102.018 24.945 103.079 25.9262 104.34 25.8841C104.934 25.9002 105.513 25.7017 105.971 25.3249C106.463 24.8298 106.738 24.1588 106.733 23.4608Z" fill="white"/>
<path d="M39.0306 21.1622L32.3481 14.6409C32.1296 14.4452 31.7939 14.4452 31.5754 14.6409L30.2367 15.9208L35.6078 21.1622C35.8255 21.379 35.8255 21.726 35.6078 21.9429L30.0735 27.3383L31.3904 28.6181C31.4933 28.7254 31.6371 28.7862 31.7876 28.7862C31.9382 28.7862 32.082 28.7254 32.1849 28.6181L39.0306 21.9429C39.2484 21.726 39.2484 21.379 39.0306 21.1622Z" fill="#2CB5B4"/>
<path d="M27.6337 14.8617L27.1651 14.399C27.0656 14.294 26.9265 14.2344 26.7808 14.2344C26.6352 14.2344 26.4961 14.294 26.3965 14.399L25.1226 15.652L25.9806 16.4996L27.6337 18.1322L29.2919 16.4996L27.6337 14.8617Z" fill="#8CBF44"/>
<path d="M27.6368 24.8884L25.9765 26.5251L25.1226 27.3668L26.3929 28.619C26.4927 28.7256 26.6331 28.7863 26.7803 28.7863C26.9275 28.7863 27.0679 28.7256 27.1677 28.619L27.6368 28.1566L29.2919 26.5251L27.6368 24.8884Z" fill="#8CBF44"/>
<path d="M30.3935 21.0412C30.5048 21.1439 30.5682 21.2884 30.5682 21.4398C30.5682 21.5912 30.5048 21.7357 30.3935 21.8383L27.4678 24.7394L29.1722 26.4475L33.8077 21.8166C33.919 21.714 33.9824 21.5695 33.9824 21.4181C33.9824 21.2667 33.919 21.1222 33.8077 21.0195L29.335 16.573L27.6252 18.2757L30.3935 21.0412Z" fill="#B8CE2C"/>
<path d="M19.7439 21.1972L24.3407 16.5865L22.6452 14.8858L22.1661 14.4053C22.0644 14.2962 21.9221 14.2344 21.7732 14.2344C21.6243 14.2344 21.482 14.2962 21.3803 14.4053L14.6089 21.1972C14.5002 21.2993 14.4385 21.442 14.4385 21.5913C14.4385 21.7407 14.5002 21.8834 14.6089 21.9855L21.2242 28.6154C21.3259 28.7244 21.4682 28.7863 21.6171 28.7863C21.766 28.7863 21.9083 28.7244 22.01 28.6154L22.4891 28.1349L24.1846 26.4396L19.7439 21.9855C19.6352 21.8834 19.5735 21.7407 19.5735 21.5913C19.5735 21.442 19.6352 21.2993 19.7439 21.1972Z" fill="#87EFEF"/>
<path d="M24.9279 21.1937L26.9465 19.1485L25.2599 17.4495L24.3924 16.573L19.8196 21.1937C19.7115 21.296 19.6501 21.439 19.6501 21.5887C19.6501 21.7384 19.7115 21.8814 19.8196 21.9837L24.2371 26.4475L25.1046 25.571L26.7859 23.8666L24.9279 21.9837C24.8197 21.8814 24.7584 21.7384 24.7584 21.5887C24.7584 21.439 24.8197 21.296 24.9279 21.1937Z" fill="#8CBF44"/>
<path d="M24.7691 21.9824L26.6082 23.849L28.6116 21.8268C28.8237 21.6078 28.8237 21.2573 28.6116 21.0383L26.7672 19.1716L24.7691 21.1992C24.6621 21.3006 24.6013 21.4424 24.6013 21.5908C24.6013 21.7392 24.6621 21.881 24.7691 21.9824Z" fill="#B8CE2C"/>
<path d="M27.6337 14.8617L27.1651 14.399C27.0656 14.294 26.9265 14.2344 26.7808 14.2344C26.6352 14.2344 26.4961 14.294 26.3965 14.399L25.1226 15.652L25.9806 16.4996L27.6337 18.1322L29.2919 16.4996L27.6337 14.8617Z" fill="#41E3E2"/>
<path d="M27.6368 24.8884L25.9765 26.5251L25.1226 27.3668L26.3929 28.619C26.4927 28.7256 26.6331 28.7863 26.7803 28.7863C26.9275 28.7863 27.0679 28.7256 27.1677 28.619L27.6368 28.1566L29.2919 26.5251L27.6368 24.8884Z" fill="#41E3E2"/>
<path d="M30.3935 21.0412C30.5048 21.1439 30.5682 21.2884 30.5682 21.4398C30.5682 21.5912 30.5048 21.7357 30.3935 21.8383L27.4678 24.7394L29.1722 26.4475L33.8077 21.8166C33.919 21.714 33.9824 21.5695 33.9824 21.4181C33.9824 21.2667 33.919 21.1222 33.8077 21.0195L29.335 16.573L27.6252 18.2757L30.3935 21.0412Z" fill="#4FBCC1"/>
<path d="M19.7439 21.1972L24.3407 16.5865L22.6452 14.8858L22.1661 14.4053C22.0644 14.2962 21.9221 14.2344 21.7732 14.2344C21.6243 14.2344 21.482 14.2962 21.3803 14.4053L14.6089 21.1972C14.5002 21.2993 14.4385 21.442 14.4385 21.5913C14.4385 21.7407 14.5002 21.8834 14.6089 21.9855L21.2242 28.6154C21.3259 28.7244 21.4682 28.7863 21.6171 28.7863C21.766 28.7863 21.9083 28.7244 22.01 28.6154L22.4891 28.1349L24.1846 26.4396L19.7439 21.9855C19.6352 21.8834 19.5735 21.7407 19.5735 21.5913C19.5735 21.442 19.6352 21.2993 19.7439 21.1972Z" fill="#87EFEF"/>
<path d="M24.9279 21.1937L26.9465 19.1485L25.2599 17.4495L24.3924 16.573L19.8196 21.1937C19.7115 21.296 19.6501 21.439 19.6501 21.5887C19.6501 21.7384 19.7115 21.8814 19.8196 21.9837L24.2371 26.4475L25.1046 25.571L26.7859 23.8666L24.9279 21.9837C24.8197 21.8814 24.7584 21.7384 24.7584 21.5887C24.7584 21.439 24.8197 21.296 24.9279 21.1937Z" fill="#41E3E2"/>
<path d="M24.7691 21.9824L26.6082 23.849L28.6116 21.8268C28.8237 21.6078 28.8237 21.2573 28.6116 21.0383L26.7672 19.1716L24.7691 21.1992C24.6621 21.3006 24.6013 21.4424 24.6013 21.5908C24.6013 21.7392 24.6621 21.881 24.7691 21.9824Z" fill="#4FBCC1"/>
</svg>
