<svg width="1596" height="1345" fill="none" xmlns="http://www.w3.org/2000/svg">
  <g filter="url(#filter0_d)">
    <rect x="253.5" y="48.943" width="1125" height="1066.5" rx="10" fill="#13B5EA"/>
  </g>
  <g filter="url(#filter1_d)">
    <path d="M772.994 1217.31c0-5.53 4.477-10 10-10h249.996c5.53 0 10 4.47 10 10v67.75c0 5.52-4.47 10-10 10H782.994c-5.523 0-10-4.48-10-10v-67.75z" fill="#57C40A"/>
    <path d="M852.75 1250.52v-6.34h5.418c1.134 0 1.985.26 2.552.76.567.48.85 1.27.85 2.36 0 1.14-.283 1.96-.85 2.46s-1.418.76-2.552.76h-5.418zm-4.945-10.18v22.49h4.945v-8.79h4.946c1.239 0 2.131.28 2.677.82.546.55.903 1.41 1.071 2.59.126.9.221 1.84.284 2.83.063.99.231 1.84.504 2.55h4.945a3.483 3.483 0 01-.535-1.13c-.105-.46-.189-.95-.252-1.45-.042-.5-.074-1-.095-1.48-.021-.48-.042-.9-.063-1.26-.042-.57-.126-1.14-.252-1.7a5.253 5.253 0 00-.535-1.55 3.944 3.944 0 00-.977-1.22c-.399-.36-.903-.62-1.512-.79v-.06c1.26-.51 2.163-1.24 2.709-2.21.567-.97.851-2.11.851-3.43 0-.86-.158-1.66-.473-2.4a5.552 5.552 0 00-1.323-1.98c-.567-.57-1.26-1.01-2.079-1.32-.798-.34-1.701-.51-2.709-.51h-12.127zm33.205 12.6h-7.277c.021-.31.084-.67.189-1.07.126-.4.326-.78.599-1.13.294-.36.672-.65 1.134-.89.483-.25 1.081-.37 1.795-.37 1.092 0 1.901.29 2.426.88.546.59.924 1.45 1.134 2.58zm-7.277 2.84h11.75c.084-1.26-.021-2.47-.315-3.63a8.694 8.694 0 00-1.449-3.08c-.651-.91-1.491-1.62-2.52-2.15-1.029-.54-2.237-.81-3.623-.81-1.239 0-2.373.22-3.402.66a8.003 8.003 0 00-2.614 1.82 7.858 7.858 0 00-1.701 2.71c-.399 1.05-.599 2.19-.599 3.41 0 1.26.189 2.41.567 3.46a8.112 8.112 0 001.67 2.71c.714.76 1.585 1.34 2.614 1.76 1.029.4 2.184.6 3.465.6 1.848 0 3.423-.42 4.725-1.26 1.302-.84 2.268-2.23 2.898-4.19h-3.937c-.147.51-.546.99-1.197 1.45-.651.44-1.428.66-2.331.66-1.26 0-2.226-.32-2.898-.97-.672-.65-1.04-1.7-1.103-3.15zm18.165-1.07c0-.68.063-1.32.189-1.93.147-.63.378-1.18.693-1.67.315-.5.724-.9 1.228-1.19.504-.3 1.124-.44 1.859-.44.693 0 1.281.15 1.764.47.504.31.903.72 1.197 1.23.294.5.504 1.07.63 1.7.147.63.22 1.26.22 1.89 0 .67-.073 1.32-.22 1.95a4.696 4.696 0 01-.662 1.64c-.294.46-.693.84-1.197 1.13-.483.28-1.092.41-1.827.41-.735 0-1.354-.14-1.858-.44a3.703 3.703 0 01-1.197-1.16 5.552 5.552 0 01-.63-1.67 9.766 9.766 0 01-.189-1.92zm12.096 13.82v-21.98h-4.253v2.08h-.063c-.504-.91-1.207-1.55-2.11-1.93a6.935 6.935 0 00-2.835-.59c-1.239 0-2.321.24-3.245.72a6.719 6.719 0 00-2.268 1.95c-.609.8-1.06 1.73-1.354 2.78a11.96 11.96 0 00-.441 3.24c0 1.57.22 2.91.661 4 .441 1.07.998 1.94 1.67 2.61.672.66 1.407 1.13 2.205 1.42.819.28 1.606.41 2.362.41 1.008 0 1.985-.19 2.93-.57.945-.37 1.68-1 2.205-1.89h.063v7.75h4.473zm18.641-5.7v-16.28h-4.473v8.53c0 1.66-.273 2.86-.819 3.59-.546.72-1.428 1.08-2.646 1.08-1.071 0-1.817-.33-2.237-.98-.42-.67-.63-1.68-.63-3.03v-9.19h-4.473v10.01c0 1.01.084 1.94.252 2.78.189.81.504 1.52.945 2.11.441.56 1.04 1 1.796 1.32.777.31 1.764.47 2.961.47.945 0 1.869-.21 2.772-.63.903-.42 1.638-1.1 2.205-2.05h.094v2.27h4.253zm14.339-9.89h-7.276c.021-.31.084-.67.189-1.07.126-.4.325-.78.598-1.13.294-.36.672-.65 1.134-.89.483-.25 1.082-.37 1.796-.37 1.092 0 1.9.29 2.425.88.546.59.924 1.45 1.134 2.58zm-7.276 2.84h11.749c.084-1.26-.021-2.47-.315-3.63a8.694 8.694 0 00-1.449-3.08c-.651-.91-1.491-1.62-2.52-2.15-1.029-.54-2.236-.81-3.622-.81-1.239 0-2.373.22-3.402.66a8.007 8.007 0 00-2.615 1.82 7.858 7.858 0 00-1.701 2.71c-.399 1.05-.598 2.19-.598 3.41 0 1.26.189 2.41.567 3.46a8.11 8.11 0 001.669 2.71c.714.76 1.586 1.34 2.615 1.76 1.029.4 2.184.6 3.465.6 1.848 0 3.423-.42 4.725-1.26 1.302-.84 2.268-2.23 2.898-4.19h-3.938c-.147.51-.546.99-1.197 1.45-.651.44-1.428.66-2.331.66-1.26 0-2.226-.32-2.898-.97-.672-.65-1.039-1.7-1.102-3.15zm17.85 1.76h-4.253c.042 1.09.284 2.01.725 2.74a5.705 5.705 0 001.732 1.73c.714.44 1.523.76 2.426.95.903.19 1.827.28 2.772.28.924 0 1.827-.09 2.709-.28.903-.17 1.701-.47 2.394-.92a5.001 5.001 0 001.669-1.73c.441-.73.662-1.64.662-2.71 0-.75-.147-1.38-.441-1.89a3.912 3.912 0 00-1.166-1.29 5.87 5.87 0 00-1.669-.85c-.609-.21-1.239-.39-1.89-.53-.63-.15-1.25-.29-1.859-.41-.609-.13-1.155-.27-1.638-.41-.462-.17-.84-.38-1.134-.63a1.243 1.243 0 01-.441-.98c0-.34.084-.6.252-.79.168-.21.368-.36.599-.47.252-.1.525-.17.819-.19.294-.04.567-.06.819-.06.798 0 1.491.16 2.079.47.588.29.913.87.976 1.73h4.253c-.084-1-.347-1.83-.788-2.49-.42-.67-.955-1.2-1.606-1.6-.651-.4-1.397-.68-2.237-.85-.819-.17-1.669-.25-2.551-.25-.882 0-1.743.08-2.583.25-.84.14-1.596.42-2.268.82-.672.37-1.218.9-1.638 1.57-.399.67-.599 1.53-.599 2.58 0 .72.147 1.33.441 1.83.294.48.683.89 1.166 1.23a7.19 7.19 0 001.638.79c.63.19 1.27.35 1.921.5 1.596.34 2.835.67 3.717 1.01.903.34 1.355.84 1.355 1.51 0 .4-.095.74-.284 1.01-.189.25-.43.46-.724.63a3.97 3.97 0 01-.945.35c-.336.06-.662.09-.977.09-.441 0-.871-.05-1.291-.16-.399-.1-.756-.26-1.071-.47a2.979 2.979 0 01-.788-.85c-.189-.36-.283-.78-.283-1.26zm19.106-10.99v-4.89h-4.473v4.89h-2.709v2.99h2.709v9.61c0 .82.136 1.48.409 1.98.273.51.641.89 1.103 1.17.483.27 1.029.45 1.638.53.63.11 1.291.16 1.984.16.441 0 .893-.01 1.355-.03.462-.02.882-.06 1.26-.13v-3.46c-.21.04-.431.07-.662.09-.231.02-.472.03-.724.03-.756 0-1.26-.12-1.512-.37-.252-.26-.378-.76-.378-1.52v-8.06h3.276v-2.99h-3.276z" fill="#fff"/>
  </g>
  <g filter="url(#filter2_d)">
    <path d="M1072.5 1217.31c0-5.53 4.48-10 10-10h250c5.52 0 10 4.47 10 10v67.75c0 5.52-4.48 10-10 10h-250c-5.52 0-10-4.48-10-10v-67.75z" fill="#EFF1F3"/>
    <path d="M1172.51 1247.9h4.79c-.15-1.3-.51-2.46-1.07-3.46a8.185 8.185 0 00-2.18-2.52c-.86-.7-1.85-1.22-2.96-1.58-1.09-.36-2.26-.53-3.5-.53-1.72 0-3.27.3-4.66.91-1.36.61-2.52 1.45-3.46 2.52-.95 1.07-1.67 2.33-2.18 3.78-.5 1.43-.75 2.98-.75 4.66 0 1.64.25 3.17.75 4.6.51 1.41 1.23 2.64 2.18 3.69.94 1.05 2.1 1.88 3.46 2.48 1.39.59 2.94.89 4.66.89 1.39 0 2.66-.21 3.82-.63a8.833 8.833 0 003.02-1.83c.86-.8 1.55-1.76 2.08-2.9.52-1.13.85-2.4.98-3.81h-4.79c-.19 1.51-.72 2.73-1.58 3.65-.84.93-2.01 1.39-3.53 1.39-1.11 0-2.05-.21-2.83-.63a5.522 5.522 0 01-1.89-1.73 7.79 7.79 0 01-1.07-2.4c-.21-.9-.32-1.82-.32-2.77 0-.99.11-1.94.32-2.87.23-.92.59-1.74 1.07-2.45.48-.74 1.11-1.31 1.89-1.73.78-.45 1.72-.67 2.83-.67.61 0 1.19.11 1.74.32a4.8 4.8 0 011.51.82c.44.35.81.77 1.1 1.26.3.46.48.97.57 1.54zm7.67 3.66c.07-1.05.33-1.93.79-2.62.46-.69 1.05-1.25 1.77-1.67.71-.42 1.51-.71 2.39-.88.9-.19 1.81-.28 2.71-.28.82 0 1.65.06 2.49.18.84.11 1.6.33 2.3.67.69.33 1.26.8 1.7 1.41.44.59.66 1.38.66 2.37v8.47c0 .73.04 1.44.12 2.11.09.67.24 1.18.45 1.51h-4.54c-.08-.25-.16-.5-.22-.75-.04-.28-.07-.55-.1-.82-.71.73-1.55 1.25-2.52 1.54-.96.29-1.95.44-2.96.44-.77 0-1.5-.09-2.17-.28-.67-.19-1.26-.48-1.76-.88-.51-.4-.91-.91-1.2-1.52-.27-.6-.41-1.33-.41-2.17 0-.92.16-1.68.47-2.27.34-.61.76-1.09 1.26-1.45.53-.35 1.12-.62 1.77-.78.67-.19 1.34-.34 2.01-.44.67-.11 1.34-.19 1.99-.26.65-.06 1.23-.15 1.73-.28.5-.13.9-.3 1.2-.54.29-.25.43-.6.41-1.07 0-.48-.09-.86-.26-1.13-.14-.29-.35-.52-.63-.66-.25-.17-.55-.28-.91-.32-.34-.06-.7-.09-1.1-.09-.88 0-1.58.19-2.08.57-.51.37-.8 1-.88 1.89h-4.48zm10.34 3.3c-.19.17-.43.31-.73.41-.27.09-.58.16-.91.22-.32.07-.65.12-1.01.16-.36.04-.71.09-1.07.16-.34.06-.67.14-1.01.25-.31.1-.6.25-.85.44-.23.17-.42.39-.57.66-.14.28-.22.62-.22 1.04 0 .4.08.74.22 1.01.15.27.35.49.6.66.25.15.55.25.88.32.34.06.69.09 1.04.09.89 0 1.57-.15 2.05-.44.48-.29.84-.64 1.07-1.04.23-.42.37-.84.41-1.26.06-.42.1-.76.1-1.01v-1.67zm7.92-8.31v16.28h4.48v-8.53c0-1.66.27-2.85.82-3.56.54-.74 1.42-1.11 2.64-1.11 1.07 0 1.82.34 2.24 1.01.42.65.63 1.65.63 2.99v9.2h4.47v-10.01c0-1.01-.09-1.93-.28-2.75-.17-.84-.48-1.54-.92-2.11-.44-.58-1.05-1.04-1.82-1.35-.76-.34-1.74-.5-2.93-.5-.95 0-1.87.22-2.77.66-.91.42-1.64 1.1-2.21 2.04h-.09v-2.26h-4.26zm29.75 5.73h4.37c-.06-1.05-.31-1.95-.75-2.71a5.81 5.81 0 00-1.73-1.92c-.7-.53-1.49-.91-2.4-1.17-.88-.25-1.8-.37-2.77-.37-1.32 0-2.5.22-3.53.66-1.03.44-1.9 1.06-2.61 1.86-.72.77-1.26 1.71-1.64 2.8-.36 1.07-.54 2.24-.54 3.5 0 1.21.2 2.34.6 3.37.4 1 .96 1.88 1.67 2.61.72.74 1.58 1.31 2.59 1.73 1.02.4 2.15.6 3.37.6 2.16 0 3.93-.57 5.32-1.7 1.39-1.13 2.23-2.78 2.52-4.94h-4.32c-.14 1-.51 1.81-1.1 2.42-.57.59-1.38.88-2.46.88-.69 0-1.28-.15-1.76-.47-.48-.31-.87-.71-1.17-1.2-.27-.5-.47-1.06-.59-1.67a8.75 8.75 0 010-3.62c.12-.63.33-1.2.63-1.7.31-.52.71-.94 1.19-1.26.49-.34 1.08-.5 1.8-.5 1.91 0 3.01.93 3.31 2.8zm17.94.66h-7.28c.02-.31.09-.67.19-1.07.13-.4.33-.78.6-1.13.3-.36.67-.65 1.14-.89.48-.25 1.08-.37 1.79-.37 1.09 0 1.9.29 2.43.88.54.59.92 1.45 1.13 2.58zm-7.28 2.84h11.75c.09-1.26-.02-2.47-.31-3.63-.3-1.15-.78-2.18-1.45-3.08-.65-.91-1.49-1.62-2.52-2.15-1.03-.54-2.24-.81-3.62-.81-1.24 0-2.38.22-3.41.66-1 .44-1.87 1.05-2.61 1.82-.73.76-1.3 1.66-1.7 2.71-.4 1.05-.6 2.19-.6 3.41 0 1.26.19 2.41.57 3.46.4 1.05.95 1.95 1.67 2.71.71.76 1.58 1.34 2.61 1.76 1.03.4 2.19.6 3.47.6 1.84 0 3.42-.42 4.72-1.26 1.3-.84 2.27-2.23 2.9-4.19h-3.94c-.14.51-.54.99-1.19 1.45-.66.44-1.43.66-2.34.66-1.26 0-2.22-.32-2.89-.97-.68-.65-1.04-1.7-1.11-3.15zm14.51-15.44v22.49h4.48v-22.49h-4.48z" fill="#9FACBA"/>
  </g>
  <g filter="url(#filter3_d)">
    <rect x="217.5" y="81.793" width="1125" height="1097.13" rx="10" fill="#fff" stroke="#BFC8D1" stroke-width="5.424"/>
    <path d="M1279.5 151.544l-22.5 22.499m22.5-.001l-22.5-22.499" stroke="#BFC8D1" stroke-width="6" stroke-miterlimit="10"/>
    <path fill-rule="evenodd" clip-rule="evenodd" d="M1218.79 408.505h20.43l-10.21 10.213-10.22-10.213z" fill="#13B5EA"/>
    <path fill-rule="evenodd" clip-rule="evenodd" d="M1215.51 407.143h27l-13.5 13.5-13.5-13.5zm3.29 440.562h20.42l-10.21 10.213-10.21-10.213z" fill="#13B5EA"/>
    <path fill-rule="evenodd" clip-rule="evenodd" d="M1215.51 846.343h27l-13.5 13.5-13.5-13.5z" fill="#13B5EA"/>
    <path d="M287.651 312.71v18.333h4.945V312.71h6.741v-4.158H280.91v4.158h6.741zm18.315 20.349l6.804-18.302h-4.63l-3.56 11.151h-.063l-3.685-11.151h-4.757l5.702 15.278c.126.315.189.651.189 1.008 0 .483-.147.924-.441 1.323-.273.399-.704.63-1.292.693a9.28 9.28 0 01-1.323-.032c-.441-.042-.871-.084-1.291-.126v3.686c.462.042.913.073 1.354.094.462.042.924.063 1.386.063 1.533 0 2.73-.283 3.591-.85.861-.567 1.533-1.512 2.016-2.835zm16.506-4.946c-.714 0-1.323-.147-1.827-.441a3.751 3.751 0 01-1.229-1.134 5.659 5.659 0 01-.661-1.669 9.779 9.779 0 01-.189-1.922c0-.672.063-1.323.189-1.953.126-.63.336-1.186.63-1.669a3.732 3.732 0 011.197-1.166c.504-.315 1.123-.472 1.858-.472.714 0 1.313.157 1.796.472.504.294.913.693 1.228 1.197a4.72 4.72 0 01.662 1.67c.147.63.22 1.27.22 1.921s-.063 1.292-.189 1.922a4.713 4.713 0 01-.661 1.669c-.294.462-.693.84-1.197 1.134-.483.294-1.092.441-1.827.441zm-8.222-13.356v21.987h4.473v-7.717h.063a5.431 5.431 0 002.079 1.827 6.587 6.587 0 002.804.598c1.197 0 2.236-.231 3.118-.693a6.437 6.437 0 002.237-1.858 7.86 7.86 0 001.354-2.678c.294-1.008.441-2.058.441-3.15 0-1.155-.147-2.257-.441-3.307-.294-1.071-.745-2.006-1.354-2.804a6.83 6.83 0 00-2.3-1.921c-.924-.483-2.026-.725-3.307-.725-1.008 0-1.932.2-2.772.599-.84.399-1.533 1.039-2.079 1.921h-.063v-2.079h-4.253zm30.202 6.395h-7.277c.021-.315.084-.672.189-1.071.126-.399.326-.777.599-1.134a3.43 3.43 0 011.134-.882c.483-.252 1.081-.378 1.795-.378 1.092 0 1.901.294 2.426.882.546.588.924 1.449 1.134 2.583zm-7.277 2.835h11.75a11.5 11.5 0 00-.315-3.623 8.71 8.71 0 00-1.449-3.087 6.942 6.942 0 00-2.52-2.142c-1.029-.546-2.237-.819-3.623-.819-1.239 0-2.373.221-3.402.662a7.932 7.932 0 00-2.614 1.827 7.816 7.816 0 00-1.701 2.709c-.399 1.05-.599 2.184-.599 3.402 0 1.26.189 2.415.567 3.465.399 1.05.956 1.953 1.67 2.709s1.585 1.344 2.614 1.764c1.029.399 2.184.598 3.465.598 1.848 0 3.423-.42 4.725-1.26 1.302-.84 2.268-2.236 2.898-4.189h-3.937c-.147.504-.546.987-1.197 1.449-.651.441-1.428.661-2.331.661-1.26 0-2.226-.325-2.898-.976-.672-.651-1.04-1.701-1.103-3.15zm27.104-1.071c0-.651.063-1.292.189-1.922.126-.63.336-1.186.63-1.669a3.627 3.627 0 011.228-1.166c.504-.315 1.134-.472 1.89-.472s1.386.157 1.89.472c.525.294.935.683 1.229 1.166.315.483.535 1.039.661 1.669.126.63.189 1.271.189 1.922s-.063 1.291-.189 1.921a5.055 5.055 0 01-.661 1.67 3.283 3.283 0 01-1.229 1.165c-.504.294-1.134.441-1.89.441s-1.386-.147-1.89-.441a3.625 3.625 0 01-1.228-1.165 5.502 5.502 0 01-.63-1.67 9.769 9.769 0 01-.189-1.921zm-4.473 0c0 1.302.199 2.478.598 3.528a7.816 7.816 0 001.701 2.709 7.55 7.55 0 002.646 1.701c1.029.399 2.184.598 3.465.598 1.281 0 2.436-.199 3.465-.598 1.05-.399 1.943-.966 2.678-1.701a7.816 7.816 0 001.701-2.709c.399-1.05.598-2.226.598-3.528s-.199-2.478-.598-3.528c-.399-1.071-.966-1.974-1.701-2.709-.735-.756-1.628-1.334-2.678-1.733-1.029-.42-2.184-.63-3.465-.63-1.281 0-2.436.21-3.465.63a7.34 7.34 0 00-2.646 1.733c-.735.735-1.302 1.638-1.701 2.709-.399 1.05-.598 2.226-.598 3.528zm20.72-5.166v13.293h4.473V317.75h3.087v-2.993h-3.087v-.976c0-.672.126-1.145.378-1.418.273-.294.714-.441 1.323-.441.567 0 1.113.032 1.638.095v-3.339l-1.166-.063a11.427 11.427 0 00-1.197-.063c-1.827 0-3.192.462-4.095 1.386-.903.924-1.354 2.11-1.354 3.559v1.26h-2.678v2.993h2.678zm23.663.976v-6.331h5.418c1.134 0 1.984.252 2.551.756.567.483.851 1.27.851 2.362 0 1.134-.284 1.953-.851 2.457-.567.504-1.417.756-2.551.756h-5.418zm-4.946-10.174v22.491h4.946v-8.789h4.945c1.239 0 2.132.273 2.678.819.546.546.903 1.407 1.071 2.583.126.903.22 1.848.283 2.835.063.987.231 1.838.504 2.552h4.946a3.547 3.547 0 01-.536-1.134 14.848 14.848 0 01-.252-1.449 37.399 37.399 0 01-.094-1.481 83.844 83.844 0 00-.063-1.26 11.877 11.877 0 00-.252-1.701 5.161 5.161 0 00-.536-1.543 4.013 4.013 0 00-.976-1.229c-.399-.357-.903-.619-1.512-.787v-.063c1.26-.504 2.163-1.239 2.709-2.205.567-.966.85-2.111.85-3.434 0-.861-.157-1.659-.472-2.394a5.49 5.49 0 00-1.323-1.984c-.567-.567-1.26-1.008-2.079-1.323-.798-.336-1.701-.504-2.709-.504h-12.128zm33.205 12.6h-7.276c.021-.315.084-.672.189-1.071.126-.399.325-.777.598-1.134a3.43 3.43 0 011.134-.882c.483-.252 1.082-.378 1.796-.378 1.092 0 1.9.294 2.425.882.546.588.924 1.449 1.134 2.583zm-7.276 2.835h11.749a11.5 11.5 0 00-.315-3.623 8.71 8.71 0 00-1.449-3.087 6.942 6.942 0 00-2.52-2.142c-1.029-.546-2.236-.819-3.622-.819-1.239 0-2.373.221-3.402.662a7.936 7.936 0 00-2.615 1.827 7.816 7.816 0 00-1.701 2.709c-.399 1.05-.598 2.184-.598 3.402 0 1.26.189 2.415.567 3.465.399 1.05.955 1.953 1.669 2.709.714.756 1.586 1.344 2.615 1.764 1.029.399 2.184.598 3.465.598 1.848 0 3.423-.42 4.725-1.26 1.302-.84 2.268-2.236 2.898-4.189H432.7c-.147.504-.546.987-1.197 1.449-.651.441-1.428.661-2.331.661-1.26 0-2.226-.325-2.898-.976-.672-.651-1.039-1.701-1.102-3.15zm18.165-1.071c0-.672.063-1.313.189-1.922.147-.63.378-1.186.693-1.669a3.525 3.525 0 011.228-1.197c.504-.294 1.124-.441 1.859-.441.693 0 1.281.157 1.764.472.504.315.903.725 1.197 1.229.294.504.504 1.071.63 1.701.147.63.22 1.26.22 1.89 0 .672-.073 1.323-.22 1.953a4.717 4.717 0 01-.662 1.638c-.294.462-.693.84-1.197 1.134-.483.273-1.092.409-1.827.409-.735 0-1.354-.147-1.858-.441a3.729 3.729 0 01-1.197-1.165 5.502 5.502 0 01-.63-1.67 9.769 9.769 0 01-.189-1.921zm12.096 13.828v-21.987h-4.253v2.079h-.063c-.504-.903-1.207-1.543-2.11-1.921a6.798 6.798 0 00-2.835-.599c-1.239 0-2.321.242-3.245.725a6.772 6.772 0 00-2.268 1.953c-.609.798-1.06 1.722-1.354 2.772a11.972 11.972 0 00-.441 3.244c0 1.575.22 2.909.661 4.001.441 1.071.998 1.942 1.67 2.614.672.651 1.407 1.124 2.205 1.418.819.273 1.606.409 2.362.409a7.821 7.821 0 002.93-.567 4.409 4.409 0 002.205-1.89h.063v7.749h4.473zm18.641-5.701v-16.286h-4.473v8.537c0 1.659-.273 2.856-.819 3.591-.546.714-1.428 1.071-2.646 1.071-1.071 0-1.817-.326-2.237-.977-.42-.672-.63-1.68-.63-3.024v-9.198h-4.473v10.017c0 1.008.084 1.932.252 2.772.189.819.504 1.523.945 2.111.441.567 1.04 1.008 1.796 1.323.777.315 1.764.472 2.961.472.945 0 1.869-.21 2.772-.63.903-.42 1.638-1.102 2.205-2.047h.094v2.268h4.253zm14.339-9.891h-7.277c.021-.315.084-.672.189-1.071.126-.399.326-.777.599-1.134a3.43 3.43 0 011.134-.882c.483-.252 1.081-.378 1.795-.378 1.092 0 1.901.294 2.426.882.546.588.924 1.449 1.134 2.583zm-7.277 2.835h11.75a11.5 11.5 0 00-.315-3.623 8.71 8.71 0 00-1.449-3.087 6.942 6.942 0 00-2.52-2.142c-1.029-.546-2.237-.819-3.623-.819-1.239 0-2.373.221-3.402.662a7.932 7.932 0 00-2.614 1.827 7.816 7.816 0 00-1.701 2.709c-.399 1.05-.599 2.184-.599 3.402 0 1.26.189 2.415.567 3.465.399 1.05.956 1.953 1.67 2.709s1.585 1.344 2.614 1.764c1.029.399 2.184.598 3.465.598 1.848 0 3.423-.42 4.725-1.26 1.302-.84 2.268-2.236 2.898-4.189h-3.937c-.147.504-.546.987-1.197 1.449-.651.441-1.428.661-2.331.661-1.26 0-2.226-.325-2.898-.976-.672-.651-1.04-1.701-1.103-3.15zm17.85 1.764h-4.252c.042 1.092.283 2.005.724 2.74a5.684 5.684 0 001.733 1.733 7.494 7.494 0 002.425.945c.903.189 1.827.283 2.772.283.924 0 1.827-.094 2.709-.283.903-.168 1.701-.473 2.394-.914a5.071 5.071 0 001.67-1.732c.441-.735.661-1.638.661-2.709 0-.756-.147-1.386-.441-1.89a3.83 3.83 0 00-1.165-1.292 5.954 5.954 0 00-1.67-.85 17.863 17.863 0 00-1.89-.536 75.427 75.427 0 00-1.858-.409 18.606 18.606 0 01-1.638-.41c-.462-.168-.84-.378-1.134-.63a1.226 1.226 0 01-.441-.976c0-.336.084-.599.252-.788.168-.21.367-.367.598-.472.252-.105.525-.168.819-.189.294-.042.567-.063.819-.063.798 0 1.491.157 2.079.472.588.294.914.872.977 1.733h4.252c-.084-1.008-.346-1.838-.787-2.489a4.894 4.894 0 00-1.607-1.606 6.786 6.786 0 00-2.236-.851 12.674 12.674 0 00-2.552-.252c-.882 0-1.743.084-2.583.252-.84.147-1.596.42-2.268.819a4.525 4.525 0 00-1.638 1.575c-.399.672-.598 1.533-.598 2.583 0 .714.147 1.323.441 1.827.294.483.682.893 1.165 1.229a7.4 7.4 0 001.638.787c.63.189 1.271.357 1.922.504 1.596.336 2.835.672 3.717 1.008.903.336 1.354.84 1.354 1.512 0 .399-.094.735-.283 1.008a2.349 2.349 0 01-.725.63 3.844 3.844 0 01-.945.347 5.289 5.289 0 01-2.268-.063 3.538 3.538 0 01-1.071-.473 3.042 3.042 0 01-.787-.85c-.189-.357-.284-.777-.284-1.26zm19.107-10.994v-4.882h-4.473v4.882h-2.709v2.993h2.709v9.607c0 .819.136 1.481.409 1.985.273.504.641.892 1.103 1.165a4.563 4.563 0 001.638.536c.63.105 1.291.157 1.984.157.441 0 .893-.01 1.355-.031.462-.021.882-.063 1.26-.126v-3.465c-.21.042-.431.073-.662.094a7.992 7.992 0 01-.724.032c-.756 0-1.26-.126-1.512-.378s-.378-.756-.378-1.512v-8.064h3.276v-2.993h-3.276zM287.619 546.485V532.31h3.528c1.218 0 2.237.178 3.056.535.84.336 1.512.83 2.016 1.481.504.651.861 1.438 1.071 2.362.231.903.346 1.922.346 3.056 0 1.239-.157 2.289-.472 3.15-.315.861-.735 1.564-1.26 2.11a4.659 4.659 0 01-1.796 1.134 6.352 6.352 0 01-2.079.347h-4.41zm-4.945-18.333v22.491h9.702c1.722 0 3.213-.284 4.473-.851 1.281-.588 2.341-1.386 3.181-2.394.861-1.008 1.502-2.205 1.922-3.591.42-1.386.63-2.898.63-4.536 0-1.869-.263-3.496-.788-4.882-.504-1.386-1.218-2.541-2.142-3.465a8.62 8.62 0 00-3.245-2.079c-1.238-.462-2.582-.693-4.031-.693h-9.702zm33.82 12.6h-7.277c.021-.315.084-.672.189-1.071.126-.399.326-.777.599-1.134a3.43 3.43 0 011.134-.882c.483-.252 1.081-.378 1.795-.378 1.092 0 1.901.294 2.426.882.546.588.924 1.449 1.134 2.583zm-7.277 2.835h11.75a11.5 11.5 0 00-.315-3.623 8.71 8.71 0 00-1.449-3.087 6.942 6.942 0 00-2.52-2.142c-1.029-.546-2.237-.819-3.623-.819-1.239 0-2.373.221-3.402.662a7.932 7.932 0 00-2.614 1.827 7.816 7.816 0 00-1.701 2.709c-.399 1.05-.599 2.184-.599 3.402 0 1.26.189 2.415.567 3.465.399 1.05.956 1.953 1.67 2.709s1.585 1.344 2.614 1.764c1.029.399 2.184.598 3.465.598 1.848 0 3.423-.42 4.725-1.26 1.302-.84 2.268-2.236 2.898-4.189h-3.937c-.147.504-.546.987-1.197 1.449-.651.441-1.428.661-2.331.661-1.26 0-2.226-.325-2.898-.976-.672-.651-1.04-1.701-1.103-3.15zm17.85 1.764h-4.252c.042 1.092.283 2.005.724 2.74a5.684 5.684 0 001.733 1.733 7.494 7.494 0 002.425.945c.903.189 1.827.283 2.772.283.924 0 1.827-.094 2.709-.283.903-.168 1.701-.473 2.394-.914a5.071 5.071 0 001.67-1.732c.441-.735.661-1.638.661-2.709 0-.756-.147-1.386-.441-1.89a3.83 3.83 0 00-1.165-1.292 5.954 5.954 0 00-1.67-.85 17.863 17.863 0 00-1.89-.536 75.427 75.427 0 00-1.858-.409 18.606 18.606 0 01-1.638-.41c-.462-.168-.84-.378-1.134-.63a1.226 1.226 0 01-.441-.976c0-.336.084-.599.252-.788.168-.21.367-.367.598-.472.252-.105.525-.168.819-.189.294-.042.567-.063.819-.063.798 0 1.491.157 2.079.472.588.294.914.872.977 1.733h4.252c-.084-1.008-.346-1.838-.787-2.489a4.894 4.894 0 00-1.607-1.606 6.786 6.786 0 00-2.236-.851 12.674 12.674 0 00-2.552-.252c-.882 0-1.743.084-2.583.252-.84.147-1.596.42-2.268.819a4.525 4.525 0 00-1.638 1.575c-.399.672-.598 1.533-.598 2.583 0 .714.147 1.323.441 1.827.294.483.682.893 1.165 1.229a7.4 7.4 0 001.638.787c.63.189 1.271.357 1.922.504 1.596.336 2.835.672 3.717 1.008.903.336 1.354.84 1.354 1.512 0 .399-.094.735-.283 1.008a2.349 2.349 0 01-.725.63 3.844 3.844 0 01-.945.347 5.289 5.289 0 01-2.268-.063 3.538 3.538 0 01-1.071-.473 3.042 3.042 0 01-.787-.85c-.189-.357-.284-.777-.284-1.26zm24.524-5.261h4.379c-.063-1.05-.315-1.953-.756-2.709a5.859 5.859 0 00-1.733-1.921 7.066 7.066 0 00-2.394-1.166 10.042 10.042 0 00-2.772-.378c-1.323 0-2.499.221-3.528.662a7.329 7.329 0 00-2.614 1.858c-.714.777-1.26 1.712-1.638 2.804-.357 1.071-.536 2.236-.536 3.496 0 1.218.2 2.342.599 3.371a7.85 7.85 0 001.669 2.614 7.66 7.66 0 002.583 1.733c1.029.399 2.153.598 3.371.598 2.163 0 3.937-.567 5.323-1.701 1.386-1.134 2.226-2.782 2.52-4.945h-4.315c-.147 1.008-.515 1.816-1.103 2.425-.567.588-1.386.882-2.457.882-.693 0-1.281-.157-1.764-.472a3.729 3.729 0 01-1.165-1.197 6.066 6.066 0 01-.599-1.67 8.842 8.842 0 01-.189-1.795c0-.609.063-1.218.189-1.827.126-.63.336-1.197.63-1.701a3.828 3.828 0 011.197-1.26c.483-.336 1.082-.504 1.796-.504 1.911 0 3.013.934 3.307 2.803zm6.983-5.733v16.286h4.473v-7.34c0-.735.073-1.417.22-2.047.147-.63.389-1.176.725-1.638a3.672 3.672 0 011.386-1.134c.567-.273 1.26-.41 2.079-.41.273 0 .556.021.85.063.294.021.546.053.756.095v-4.158a3.487 3.487 0 00-.976-.158c-.567 0-1.113.084-1.638.252a5.704 5.704 0 00-1.481.725 5.088 5.088 0 00-1.228 1.102c-.357.42-.641.882-.851 1.386h-.063v-3.024h-4.252zm16.825-2.52v-3.685h-4.473v3.685h4.473zm-4.473 2.52v16.286h4.473v-16.286h-4.473zm16.199 13.356c-.714 0-1.323-.147-1.827-.441a3.751 3.751 0 01-1.229-1.134 5.659 5.659 0 01-.661-1.669 9.779 9.779 0 01-.189-1.922c0-.672.063-1.323.189-1.953.126-.63.336-1.186.63-1.669a3.732 3.732 0 011.197-1.166c.504-.315 1.123-.472 1.858-.472.714 0 1.313.157 1.796.472.504.294.913.693 1.228 1.197a4.72 4.72 0 01.662 1.67c.147.63.22 1.27.22 1.921s-.063 1.292-.189 1.922a4.713 4.713 0 01-.661 1.669c-.294.462-.693.84-1.197 1.134-.483.294-1.092.441-1.827.441zm-8.222-13.356v21.987h4.473v-7.717h.063a5.431 5.431 0 002.079 1.827 6.587 6.587 0 002.804.598c1.197 0 2.236-.231 3.118-.693a6.437 6.437 0 002.237-1.858 7.86 7.86 0 001.354-2.678c.294-1.008.441-2.058.441-3.15 0-1.155-.147-2.257-.441-3.307-.294-1.071-.745-2.006-1.354-2.804a6.83 6.83 0 00-2.3-1.921c-.924-.483-2.026-.725-3.307-.725-1.008 0-1.932.2-2.772.599-.84.399-1.533 1.039-2.079 1.921h-.063v-2.079h-4.253zm24.909 0v-4.882h-4.473v4.882h-2.709v2.993h2.709v9.607c0 .819.137 1.481.41 1.985.273.504.64.892 1.102 1.165a4.563 4.563 0 001.638.536c.63.105 1.292.157 1.985.157.441 0 .892-.01 1.354-.031.462-.021.882-.063 1.26-.126v-3.465c-.21.042-.43.073-.661.094a8.015 8.015 0 01-.725.032c-.756 0-1.26-.126-1.512-.378s-.378-.756-.378-1.512v-8.064h3.276v-2.993h-3.276zm9.986-2.52v-3.685h-4.473v3.685h4.473zm-4.473 2.52v16.286h4.473v-16.286h-4.473zm11.947 8.159c0-.651.063-1.292.189-1.922.126-.63.336-1.186.63-1.669a3.627 3.627 0 011.228-1.166c.504-.315 1.134-.472 1.89-.472s1.386.157 1.89.472c.525.294.935.683 1.229 1.166.315.483.535 1.039.661 1.669.126.63.189 1.271.189 1.922s-.063 1.291-.189 1.921a5.055 5.055 0 01-.661 1.67 3.283 3.283 0 01-1.229 1.165c-.504.294-1.134.441-1.89.441s-1.386-.147-1.89-.441a3.625 3.625 0 01-1.228-1.165 5.502 5.502 0 01-.63-1.67 9.769 9.769 0 01-.189-1.921zm-4.473 0c0 1.302.199 2.478.598 3.528a7.816 7.816 0 001.701 2.709 7.55 7.55 0 002.646 1.701c1.029.399 2.184.598 3.465.598 1.281 0 2.436-.199 3.465-.598 1.05-.399 1.943-.966 2.678-1.701a7.816 7.816 0 001.701-2.709c.399-1.05.598-2.226.598-3.528s-.199-2.478-.598-3.528c-.399-1.071-.966-1.974-1.701-2.709-.735-.756-1.628-1.334-2.678-1.733-1.029-.42-2.184-.63-3.465-.63-1.281 0-2.436.21-3.465.63a7.34 7.34 0 00-2.646 1.733c-.735.735-1.302 1.638-1.701 2.709-.399 1.05-.598 2.226-.598 3.528zm19.743-8.159v16.286h4.473v-8.537c0-1.659.273-2.845.819-3.559.546-.735 1.428-1.103 2.646-1.103 1.071 0 1.817.336 2.237 1.008.42.651.63 1.649.63 2.993v9.198h4.473v-10.017c0-1.008-.095-1.922-.284-2.741-.168-.84-.472-1.543-.913-2.11-.441-.588-1.05-1.04-1.827-1.355-.756-.336-1.733-.504-2.93-.504-.945 0-1.869.221-2.772.662-.903.42-1.638 1.102-2.205 2.047h-.094v-2.268h-4.253zM288.344 761.549l2.929-8.253h.063l2.835 8.253h-5.827zm.472-13.797l-8.505 22.491h4.977l1.764-5.009h8.411l1.701 5.009h5.134l-8.41-22.491h-5.072zm23.153 19.561c-.714 0-1.323-.147-1.827-.441a3.751 3.751 0 01-1.229-1.134 5.659 5.659 0 01-.661-1.669 9.779 9.779 0 01-.189-1.922c0-.672.063-1.323.189-1.953.126-.63.336-1.186.63-1.669a3.732 3.732 0 011.197-1.166c.504-.315 1.123-.472 1.858-.472.714 0 1.313.157 1.796.472.504.294.913.693 1.228 1.197a4.72 4.72 0 01.662 1.67c.147.63.22 1.27.22 1.921s-.063 1.292-.189 1.922a4.713 4.713 0 01-.661 1.669c-.294.462-.693.84-1.197 1.134-.483.294-1.092.441-1.827.441zm-8.222-13.356v21.987h4.473v-7.717h.063a5.431 5.431 0 002.079 1.827 6.587 6.587 0 002.804.598c1.197 0 2.236-.231 3.118-.693a6.437 6.437 0 002.237-1.858 7.86 7.86 0 001.354-2.678c.294-1.008.441-2.058.441-3.15 0-1.155-.147-2.257-.441-3.307-.294-1.071-.745-2.006-1.354-2.804a6.83 6.83 0 00-2.3-1.921c-.924-.483-2.026-.725-3.307-.725-1.008 0-1.932.2-2.772.599-.84.399-1.533 1.039-2.079 1.921H308v-2.079h-4.253zm27.461 13.356c-.714 0-1.323-.147-1.827-.441a3.748 3.748 0 01-1.228-1.134 5.66 5.66 0 01-.662-1.669 9.779 9.779 0 01-.189-1.922c0-.672.063-1.323.189-1.953.126-.63.336-1.186.63-1.669a3.732 3.732 0 011.197-1.166c.504-.315 1.124-.472 1.859-.472.714 0 1.312.157 1.795.472.504.294.914.693 1.229 1.197.315.483.535 1.04.661 1.67.147.63.221 1.27.221 1.921s-.063 1.292-.189 1.922a4.714 4.714 0 01-.662 1.669c-.294.462-.693.84-1.197 1.134-.483.294-1.092.441-1.827.441zm-8.221-13.356v21.987h4.473v-7.717h.063a5.431 5.431 0 002.079 1.827 6.583 6.583 0 002.803.598c1.197 0 2.237-.231 3.119-.693a6.434 6.434 0 002.236-1.858 7.862 7.862 0 001.355-2.678c.294-1.008.441-2.058.441-3.15 0-1.155-.147-2.257-.441-3.307-.294-1.071-.746-2.006-1.355-2.804a6.826 6.826 0 00-2.299-1.921c-.924-.483-2.027-.725-3.308-.725-1.008 0-1.932.2-2.772.599-.84.399-1.533 1.039-2.079 1.921h-.063v-2.079h-4.252zm19.239 0v16.286h4.473v-7.34c0-.735.074-1.417.221-2.047a4.48 4.48 0 01.724-1.638 3.672 3.672 0 011.386-1.134c.567-.273 1.26-.41 2.079-.41.273 0 .557.021.851.063.294.021.546.053.756.095v-4.158a3.494 3.494 0 00-.977-.158c-.567 0-1.113.084-1.638.252a5.698 5.698 0 00-1.48.725 5.092 5.092 0 00-1.229 1.102c-.357.42-.64.882-.85 1.386h-.063v-3.024h-4.253zm15.641 8.159c0-.651.063-1.292.189-1.922.126-.63.336-1.186.63-1.669a3.63 3.63 0 011.229-1.166c.504-.315 1.134-.472 1.89-.472s1.386.157 1.89.472c.525.294.934.683 1.228 1.166.315.483.536 1.039.662 1.669.126.63.189 1.271.189 1.922s-.063 1.291-.189 1.921a5.057 5.057 0 01-.662 1.67 3.28 3.28 0 01-1.228 1.165c-.504.294-1.134.441-1.89.441s-1.386-.147-1.89-.441a3.628 3.628 0 01-1.229-1.165 5.502 5.502 0 01-.63-1.67 9.769 9.769 0 01-.189-1.921zm-4.473 0c0 1.302.2 2.478.599 3.528a7.816 7.816 0 001.701 2.709 7.55 7.55 0 002.646 1.701c1.029.399 2.184.598 3.465.598 1.281 0 2.436-.199 3.465-.598 1.05-.399 1.942-.966 2.677-1.701a7.816 7.816 0 001.701-2.709c.399-1.05.599-2.226.599-3.528s-.2-2.478-.599-3.528c-.399-1.071-.966-1.974-1.701-2.709-.735-.756-1.627-1.334-2.677-1.733-1.029-.42-2.184-.63-3.465-.63-1.281 0-2.436.21-3.465.63a7.34 7.34 0 00-2.646 1.733c-.735.735-1.302 1.638-1.701 2.709-.399 1.05-.599 2.226-.599 3.528zm28.752 8.127l5.513-16.286h-4.442l-3.433 11.12h-.063l-3.434-11.12h-4.693l5.575 16.286h4.977zm18.301-9.891h-7.276c.021-.315.084-.672.189-1.071.126-.399.325-.777.598-1.134a3.43 3.43 0 011.134-.882c.483-.252 1.082-.378 1.796-.378 1.092 0 1.9.294 2.425.882.546.588.924 1.449 1.134 2.583zm-7.276 2.835h11.749a11.5 11.5 0 00-.315-3.623 8.71 8.71 0 00-1.449-3.087 6.942 6.942 0 00-2.52-2.142c-1.029-.546-2.236-.819-3.622-.819-1.239 0-2.373.221-3.402.662a7.936 7.936 0 00-2.615 1.827 7.816 7.816 0 00-1.701 2.709c-.399 1.05-.598 2.184-.598 3.402 0 1.26.189 2.415.567 3.465.399 1.05.955 1.953 1.669 2.709.714.756 1.586 1.344 2.615 1.764 1.029.399 2.184.598 3.465.598 1.848 0 3.423-.42 4.725-1.26 1.302-.84 2.268-2.236 2.898-4.189h-3.938c-.147.504-.546.987-1.197 1.449-.651.441-1.428.661-2.331.661-1.26 0-2.226-.325-2.898-.976-.672-.651-1.039-1.701-1.102-3.15zm14.385-9.23v16.286h4.473v-7.34c0-.735.073-1.417.22-2.047.147-.63.389-1.176.725-1.638a3.672 3.672 0 011.386-1.134c.567-.273 1.26-.41 2.079-.41.273 0 .556.021.85.063.294.021.546.053.756.095v-4.158a3.487 3.487 0 00-.976-.158c-.567 0-1.113.084-1.638.252a5.704 5.704 0 00-1.481.725 5.088 5.088 0 00-1.228 1.102c-.357.42-.641.882-.851 1.386h-.063v-3.024h-4.252zm-121.512 228.42h-4.788c-.021 1.386.231 2.583.756 3.591a7.15 7.15 0 002.111 2.489 9.03 9.03 0 003.087 1.417c1.176.315 2.383.473 3.622.473 1.533 0 2.877-.179 4.032-.536 1.176-.357 2.153-.85 2.93-1.48a6.297 6.297 0 001.795-2.3 6.87 6.87 0 00.599-2.866c0-1.26-.273-2.289-.819-3.087-.525-.819-1.155-1.47-1.89-1.953a7.953 7.953 0 00-2.237-1.04 17.844 17.844 0 00-1.732-.472 482.847 482.847 0 01-3.434-.882c-.861-.231-1.543-.462-2.047-.693-.483-.231-.809-.483-.977-.756-.168-.273-.252-.63-.252-1.071 0-.483.105-.882.315-1.197.21-.315.473-.578.788-.788.336-.21.703-.357 1.102-.441a5.796 5.796 0 011.197-.126c.609 0 1.166.053 1.67.158.525.105.987.283 1.386.535.399.252.714.599.945 1.04.252.441.399.997.441 1.669h4.788c0-1.302-.252-2.404-.756-3.307a6.272 6.272 0 00-1.985-2.268c-.84-.588-1.806-1.008-2.898-1.26a13.592 13.592 0 00-3.37-.41c-1.008 0-2.016.137-3.024.41a8.442 8.442 0 00-2.709 1.26 6.821 6.821 0 00-1.953 2.142c-.483.84-.725 1.837-.725 2.992 0 1.029.189 1.911.567 2.646a5.8 5.8 0 001.544 1.796c.63.483 1.344.882 2.142 1.197.798.294 1.617.546 2.457.756.819.231 1.627.441 2.425.63a15.25 15.25 0 012.142.661c.63.252 1.134.567 1.512.945.399.378.599.872.599 1.481 0 .567-.147 1.039-.441 1.417a3.176 3.176 0 01-1.103.851c-.441.21-.913.357-1.417.441-.504.063-.977.094-1.418.094a8.027 8.027 0 01-1.89-.22 5.353 5.353 0 01-1.606-.725 3.798 3.798 0 01-1.071-1.291c-.273-.525-.41-1.166-.41-1.922zm22.266-8.82v-4.882h-4.473v4.882h-2.709v2.993h2.709v9.607c0 .819.137 1.481.41 1.985.273.504.64.892 1.102 1.165a4.563 4.563 0 001.638.536c.63.105 1.292.157 1.985.157.441 0 .892-.01 1.354-.031.462-.021.882-.063 1.26-.126v-3.465c-.21.042-.43.073-.661.094a8.015 8.015 0 01-.725.032c-.756 0-1.26-.126-1.512-.378s-.378-.756-.378-1.512v-8.064h3.276v-2.993h-3.276zm5.198 5.009c.063-1.05.325-1.922.787-2.615a5.361 5.361 0 011.764-1.669 7.419 7.419 0 012.394-.882 13.192 13.192 0 012.709-.284c.819 0 1.649.063 2.489.189.84.105 1.606.326 2.299.662.693.336 1.26.808 1.701 1.417.441.588.662 1.376.662 2.363v8.473c0 .735.042 1.439.126 2.111.084.672.231 1.176.441 1.512h-4.536a10.263 10.263 0 01-.221-.756 10.862 10.862 0 01-.094-.819 5.828 5.828 0 01-2.52 1.543c-.966.294-1.953.441-2.961.441a8.004 8.004 0 01-2.174-.283 4.978 4.978 0 01-1.764-.882 4.257 4.257 0 01-1.197-1.512c-.273-.609-.409-1.334-.409-2.174 0-.924.157-1.68.472-2.268.336-.609.756-1.092 1.26-1.449a5.595 5.595 0 011.764-.787 17.314 17.314 0 012.016-.441 34.206 34.206 0 011.985-.252 11.922 11.922 0 001.732-.284c.504-.126.903-.304 1.197-.535.294-.252.431-.609.41-1.071 0-.483-.084-.861-.252-1.134a1.481 1.481 0 00-.63-.662 2.056 2.056 0 00-.914-.315 5.989 5.989 0 00-1.102-.094c-.882 0-1.575.189-2.079.567-.504.378-.798 1.008-.882 1.89h-4.473zm10.332 3.307a2.184 2.184 0 01-.725.41 8.348 8.348 0 01-.913.22 12.73 12.73 0 01-1.008.158 18.8 18.8 0 00-1.071.157 8.839 8.839 0 00-1.008.252 2.976 2.976 0 00-.851.441 1.94 1.94 0 00-.567.662c-.147.273-.22.619-.22 1.039 0 .399.073.735.22 1.008.147.273.347.494.599.662.252.147.546.252.882.315.336.063.682.094 1.039.094.882 0 1.565-.147 2.048-.441.483-.294.84-.64 1.071-1.039.231-.42.367-.84.409-1.26.063-.42.095-.756.095-1.008v-1.67zm7.927-8.316v16.286h4.473v-7.34c0-.735.074-1.417.221-2.047a4.48 4.48 0 01.724-1.638 3.672 3.672 0 011.386-1.134c.567-.273 1.26-.41 2.079-.41.273 0 .557.021.851.063.294.021.546.053.756.095v-4.158a3.494 3.494 0 00-.977-.158c-.567 0-1.113.084-1.638.252a5.698 5.698 0 00-1.48.725 5.092 5.092 0 00-1.229 1.102c-.357.42-.64.882-.85 1.386h-.063v-3.024h-4.253zm17.896 0v-4.882h-4.473v4.882h-2.709v2.993h2.709v9.607c0 .819.136 1.481.409 1.985.273.504.641.892 1.103 1.165a4.563 4.563 0 001.638.536c.63.105 1.291.157 1.984.157.441 0 .893-.01 1.355-.031.462-.021.882-.063 1.26-.126v-3.465c-.21.042-.431.073-.662.094a7.992 7.992 0 01-.724.032c-.756 0-1.26-.126-1.512-.378s-.378-.756-.378-1.512v-8.064h3.276v-2.993h-3.276zm19.554 12.128V971.51h3.528c1.218 0 2.237.178 3.056.535.84.336 1.512.83 2.016 1.481.504.651.861 1.438 1.071 2.362.231.903.346 1.922.346 3.056 0 1.239-.157 2.289-.472 3.15-.315.861-.735 1.564-1.26 2.11a4.659 4.659 0 01-1.796 1.134 6.352 6.352 0 01-2.079.347h-4.41zm-4.945-18.333v22.491h9.702c1.722 0 3.213-.284 4.473-.851 1.281-.588 2.341-1.386 3.181-2.394.861-1.008 1.502-2.205 1.922-3.591.42-1.386.63-2.898.63-4.536 0-1.869-.263-3.496-.788-4.882-.504-1.386-1.218-2.541-2.142-3.465a8.617 8.617 0 00-3.244-2.079c-1.239-.462-2.583-.693-4.032-.693h-9.702zm22.669 11.214c.063-1.05.325-1.922.787-2.615a5.361 5.361 0 011.764-1.669 7.419 7.419 0 012.394-.882 13.192 13.192 0 012.709-.284c.819 0 1.649.063 2.489.189.84.105 1.606.326 2.299.662.693.336 1.26.808 1.701 1.417.441.588.662 1.376.662 2.363v8.473c0 .735.042 1.439.126 2.111.084.672.231 1.176.441 1.512h-4.536a10.263 10.263 0 01-.221-.756 10.862 10.862 0 01-.094-.819 5.828 5.828 0 01-2.52 1.543c-.966.294-1.953.441-2.961.441a8.004 8.004 0 01-2.174-.283 4.978 4.978 0 01-1.764-.882 4.257 4.257 0 01-1.197-1.512c-.273-.609-.409-1.334-.409-2.174 0-.924.157-1.68.472-2.268.336-.609.756-1.092 1.26-1.449a5.595 5.595 0 011.764-.787 17.314 17.314 0 012.016-.441 34.206 34.206 0 011.985-.252 11.922 11.922 0 001.732-.284c.504-.126.903-.304 1.197-.535.294-.252.431-.609.41-1.071 0-.483-.084-.861-.252-1.134a1.481 1.481 0 00-.63-.662 2.056 2.056 0 00-.914-.315 5.989 5.989 0 00-1.102-.094c-.882 0-1.575.189-2.079.567-.504.378-.798 1.008-.882 1.89h-4.473zm10.332 3.307a2.184 2.184 0 01-.725.41 8.348 8.348 0 01-.913.22 12.73 12.73 0 01-1.008.158 18.8 18.8 0 00-1.071.157 8.839 8.839 0 00-1.008.252 2.976 2.976 0 00-.851.441 1.94 1.94 0 00-.567.662c-.147.273-.22.619-.22 1.039 0 .399.073.735.22 1.008.147.273.347.494.599.662.252.147.546.252.882.315.336.063.682.094 1.039.094.882 0 1.565-.147 2.048-.441.483-.294.84-.64 1.071-1.039.231-.42.367-.84.409-1.26.063-.42.095-.756.095-1.008v-1.67zm13.597-8.316v-4.882h-4.473v4.882h-2.709v2.993h2.709v9.607c0 .819.137 1.481.41 1.985.273.504.64.892 1.102 1.165a4.563 4.563 0 001.638.536c.63.105 1.292.157 1.985.157.441 0 .892-.01 1.354-.031.462-.021.882-.063 1.26-.126v-3.465c-.21.042-.43.073-.661.094a8.015 8.015 0 01-.725.032c-.756 0-1.26-.126-1.512-.378s-.378-.756-.378-1.512v-8.064h3.276v-2.993h-3.276zm16.349 6.395h-7.277c.021-.315.084-.672.189-1.071.126-.399.326-.777.599-1.134a3.43 3.43 0 011.134-.882c.483-.252 1.081-.378 1.795-.378 1.092 0 1.901.294 2.426.882.546.588.924 1.449 1.134 2.583zm-7.277 2.835h11.75a11.5 11.5 0 00-.315-3.623 8.71 8.71 0 00-1.449-3.087 6.942 6.942 0 00-2.52-2.142c-1.029-.546-2.237-.819-3.623-.819-1.239 0-2.373.221-3.402.662a7.932 7.932 0 00-2.614 1.827 7.816 7.816 0 00-1.701 2.709c-.399 1.05-.599 2.184-.599 3.402 0 1.26.189 2.415.567 3.465.399 1.05.956 1.953 1.67 2.709s1.585 1.344 2.614 1.764c1.029.399 2.184.598 3.465.598 1.848 0 3.423-.42 4.725-1.26 1.302-.84 2.268-2.236 2.898-4.189h-3.937c-.147.504-.546.987-1.197 1.449-.651.441-1.428.661-2.331.661-1.26 0-2.226-.325-2.898-.976-.672-.651-1.04-1.701-1.103-3.15zm384.732-15.435v22.491h17.073v-4.158h-12.128v-5.513h10.899v-3.843h-10.899v-4.819h11.876v-4.158h-16.821zm19.935 6.205v16.286h4.473v-8.537c0-1.659.273-2.845.819-3.559.546-.735 1.428-1.103 2.646-1.103 1.071 0 1.817.336 2.237 1.008.42.651.63 1.649.63 2.993v9.198h4.473v-10.017c0-1.008-.095-1.922-.284-2.741-.168-.84-.472-1.543-.913-2.11-.441-.588-1.05-1.04-1.827-1.355-.756-.336-1.733-.504-2.93-.504-.945 0-1.869.221-2.772.662-.903.42-1.638 1.102-2.205 2.047h-.094v-2.268h-4.253zm30.216 8.096c0 .672-.063 1.323-.189 1.953a5.483 5.483 0 01-.63 1.701 3.352 3.352 0 01-1.197 1.165c-.483.294-1.092.441-1.827.441-.693 0-1.292-.147-1.796-.441a4.44 4.44 0 01-1.228-1.197 5.572 5.572 0 01-.693-1.701 8.294 8.294 0 01-.221-1.89c0-.672.063-1.312.189-1.921.147-.63.368-1.187.662-1.67a3.625 3.625 0 011.228-1.165c.504-.294 1.124-.441 1.859-.441.735 0 1.344.147 1.827.441.483.294.871.682 1.165 1.165.315.462.536 1.008.662 1.638.126.609.189 1.25.189 1.922zm.063 6.111v2.079h4.252v-22.491h-4.473v8.19h-.063a4.685 4.685 0 00-2.079-1.796 6.168 6.168 0 00-2.74-.63c-1.197 0-2.247.242-3.15.725a6.744 6.744 0 00-2.268 1.858c-.588.777-1.04 1.68-1.355 2.709a11.193 11.193 0 00-.441 3.15c0 1.134.147 2.226.441 3.276a9.396 9.396 0 001.355 2.804 6.826 6.826 0 002.299 1.921c.924.462 1.995.693 3.213.693 1.071 0 2.027-.189 2.867-.567.861-.399 1.554-1.039 2.079-1.921h.063zm21.783-2.079V971.51h3.528c1.218 0 2.237.178 3.056.535.84.336 1.512.83 2.016 1.481.504.651.861 1.438 1.071 2.362.231.903.346 1.922.346 3.056 0 1.239-.157 2.289-.472 3.15-.315.861-.735 1.564-1.26 2.11a4.659 4.659 0 01-1.796 1.134 6.352 6.352 0 01-2.079.347h-4.41zm-4.945-18.333v22.491h9.702c1.722 0 3.213-.284 4.473-.851 1.281-.588 2.341-1.386 3.181-2.394.861-1.008 1.502-2.205 1.922-3.591.42-1.386.63-2.898.63-4.536 0-1.869-.263-3.496-.788-4.882-.504-1.386-1.218-2.541-2.142-3.465a8.617 8.617 0 00-3.244-2.079c-1.239-.462-2.583-.693-4.032-.693h-9.702zm22.669 11.214c.063-1.05.325-1.922.787-2.615a5.361 5.361 0 011.764-1.669 7.419 7.419 0 012.394-.882 13.192 13.192 0 012.709-.284c.819 0 1.649.063 2.489.189.84.105 1.606.326 2.299.662.693.336 1.26.808 1.701 1.417.441.588.662 1.376.662 2.363v8.473c0 .735.042 1.439.126 2.111.084.672.231 1.176.441 1.512h-4.536a10.263 10.263 0 01-.221-.756 10.862 10.862 0 01-.094-.819 5.828 5.828 0 01-2.52 1.543c-.966.294-1.953.441-2.961.441a8.004 8.004 0 01-2.174-.283 4.978 4.978 0 01-1.764-.882 4.257 4.257 0 01-1.197-1.512c-.273-.609-.409-1.334-.409-2.174 0-.924.157-1.68.472-2.268.336-.609.756-1.092 1.26-1.449a5.595 5.595 0 011.764-.787 17.314 17.314 0 012.016-.441 34.206 34.206 0 011.985-.252 11.922 11.922 0 001.732-.284c.504-.126.903-.304 1.197-.535.294-.252.431-.609.41-1.071 0-.483-.084-.861-.252-1.134a1.481 1.481 0 00-.63-.662 2.056 2.056 0 00-.914-.315 5.989 5.989 0 00-1.102-.094c-.882 0-1.575.189-2.079.567-.504.378-.798 1.008-.882 1.89h-4.473zm10.332 3.307a2.184 2.184 0 01-.725.41 8.348 8.348 0 01-.913.22 12.73 12.73 0 01-1.008.158 18.8 18.8 0 00-1.071.157 8.839 8.839 0 00-1.008.252 2.976 2.976 0 00-.851.441 1.94 1.94 0 00-.567.662c-.147.273-.22.619-.22 1.039 0 .399.073.735.22 1.008.147.273.347.494.599.662.252.147.546.252.882.315.336.063.682.094 1.039.094.882 0 1.565-.147 2.048-.441.483-.294.84-.64 1.071-1.039.231-.42.367-.84.409-1.26.063-.42.095-.756.095-1.008v-1.67zm13.597-8.316v-4.882h-4.473v4.882h-2.709v2.993h2.709v9.607c0 .819.137 1.481.41 1.985.273.504.64.892 1.102 1.165a4.563 4.563 0 001.638.536c.63.105 1.292.157 1.985.157.441 0 .892-.01 1.354-.031.462-.021.882-.063 1.26-.126v-3.465c-.21.042-.43.073-.661.094a8.015 8.015 0 01-.725.032c-.756 0-1.26-.126-1.512-.378s-.378-.756-.378-1.512v-8.064h3.276v-2.993h-3.276zm16.349 6.395h-7.277c.021-.315.084-.672.189-1.071.126-.399.326-.777.599-1.134a3.43 3.43 0 011.134-.882c.483-.252 1.081-.378 1.795-.378 1.092 0 1.901.294 2.426.882.546.588.924 1.449 1.134 2.583zm-7.277 2.835h11.75a11.5 11.5 0 00-.315-3.623 8.71 8.71 0 00-1.449-3.087 6.942 6.942 0 00-2.52-2.142c-1.029-.546-2.237-.819-3.623-.819-1.239 0-2.373.221-3.402.662a7.932 7.932 0 00-2.614 1.827 7.816 7.816 0 00-1.701 2.709c-.399 1.05-.599 2.184-.599 3.402 0 1.26.189 2.415.567 3.465.399 1.05.956 1.953 1.67 2.709s1.585 1.344 2.614 1.764c1.029.399 2.184.598 3.465.598 1.848 0 3.423-.42 4.725-1.26 1.302-.84 2.268-2.236 2.898-4.189h-3.937c-.147.504-.546.987-1.197 1.449-.651.441-1.428.661-2.331.661-1.26 0-2.226-.325-2.898-.976-.672-.651-1.04-1.701-1.103-3.15z" fill="#BFC8D1"/>
    <path d="M319.844 416.399l2.929-8.253h.063l2.835 8.253h-5.827zm.472-13.797l-8.505 22.491h4.977l1.764-5.009h8.411l1.701 5.009h5.134l-8.41-22.491h-5.072zm14.931 6.205v16.286h4.473v-8.537c0-1.659.273-2.845.819-3.559.546-.735 1.428-1.103 2.646-1.103 1.071 0 1.817.336 2.237 1.008.42.651.63 1.649.63 2.993v9.198h4.473v-10.017c0-1.008-.095-1.922-.284-2.741-.168-.84-.472-1.543-.913-2.11-.441-.588-1.05-1.04-1.827-1.355-.756-.336-1.733-.504-2.93-.504-.945 0-1.869.221-2.772.662-.903.42-1.638 1.102-2.205 2.047h-.094v-2.268h-4.253zm18.655 0v16.286h4.473v-8.537c0-1.659.273-2.845.819-3.559.546-.735 1.428-1.103 2.646-1.103 1.071 0 1.817.336 2.237 1.008.42.651.63 1.649.63 2.993v9.198h4.473v-10.017c0-1.008-.095-1.922-.284-2.741-.168-.84-.472-1.543-.913-2.11-.441-.588-1.05-1.04-1.827-1.355-.756-.336-1.733-.504-2.93-.504-.945 0-1.869.221-2.772.662-.903.42-1.638 1.102-2.205 2.047h-.094v-2.268h-4.253zm33.933 16.286v-16.286h-4.473v8.537c0 1.659-.273 2.856-.819 3.591-.546.714-1.428 1.071-2.646 1.071-1.071 0-1.817-.326-2.237-.977-.42-.672-.63-1.68-.63-3.024v-9.198h-4.473v10.017c0 1.008.084 1.932.252 2.772.189.819.504 1.523.945 2.111.441.567 1.04 1.008 1.796 1.323.777.315 1.764.472 2.961.472.945 0 1.869-.21 2.772-.63.903-.42 1.638-1.102 2.205-2.047h.094v2.268h4.253zm3.188-11.277c.063-1.05.326-1.922.788-2.615a5.361 5.361 0 011.764-1.669 7.419 7.419 0 012.394-.882 13.192 13.192 0 012.709-.284c.819 0 1.648.063 2.488.189.84.105 1.607.326 2.3.662.693.336 1.26.808 1.701 1.417.441.588.661 1.376.661 2.363v8.473c0 .735.042 1.439.126 2.111.084.672.231 1.176.441 1.512h-4.536a10.252 10.252 0 01-.22-.756 10.866 10.866 0 01-.095-.819 5.828 5.828 0 01-2.52 1.543c-.966.294-1.953.441-2.961.441a7.996 7.996 0 01-2.173-.283 4.978 4.978 0 01-1.764-.882 4.257 4.257 0 01-1.197-1.512c-.273-.609-.41-1.334-.41-2.174 0-.924.158-1.68.473-2.268.336-.609.756-1.092 1.26-1.449a5.595 5.595 0 011.764-.787 17.314 17.314 0 012.016-.441 34.173 34.173 0 011.984-.252 11.938 11.938 0 001.733-.284c.504-.126.903-.304 1.197-.535.294-.252.43-.609.409-1.071 0-.483-.084-.861-.252-1.134a1.481 1.481 0 00-.63-.662 2.052 2.052 0 00-.913-.315 6 6 0 00-1.103-.094c-.882 0-1.575.189-2.079.567-.504.378-.798 1.008-.882 1.89h-4.473zm10.332 3.307a2.18 2.18 0 01-.724.41 8.369 8.369 0 01-.914.22 12.73 12.73 0 01-1.008.158 18.8 18.8 0 00-1.071.157 8.839 8.839 0 00-1.008.252 2.97 2.97 0 00-.85.441 1.94 1.94 0 00-.567.662c-.147.273-.221.619-.221 1.039 0 .399.074.735.221 1.008.147.273.346.494.598.662.252.147.546.252.882.315.336.063.683.094 1.04.094.882 0 1.564-.147 2.047-.441.483-.294.84-.64 1.071-1.039.231-.42.368-.84.41-1.26.063-.42.094-.756.094-1.008v-1.67zm8.053-14.521v22.491h4.473v-22.491h-4.473zm17.2 0v22.491h15.908v-4.158h-10.962v-18.333h-4.946zm29.144 12.6h-7.276c.021-.315.084-.672.189-1.071.126-.399.325-.777.598-1.134a3.43 3.43 0 011.134-.882c.483-.252 1.082-.378 1.796-.378 1.092 0 1.9.294 2.425.882.546.588.924 1.449 1.134 2.583zm-7.276 2.835h11.749a11.5 11.5 0 00-.315-3.623 8.71 8.71 0 00-1.449-3.087 6.942 6.942 0 00-2.52-2.142c-1.029-.546-2.236-.819-3.622-.819-1.239 0-2.373.221-3.402.662a7.936 7.936 0 00-2.615 1.827 7.816 7.816 0 00-1.701 2.709c-.399 1.05-.598 2.184-.598 3.402 0 1.26.189 2.415.567 3.465.399 1.05.955 1.953 1.669 2.709.714.756 1.586 1.344 2.615 1.764 1.029.399 2.184.598 3.465.598 1.848 0 3.423-.42 4.725-1.26 1.302-.84 2.268-2.236 2.898-4.189h-3.938c-.147.504-.546.987-1.197 1.449-.651.441-1.428.661-2.331.661-1.26 0-2.226-.325-2.898-.976-.672-.651-1.039-1.701-1.102-3.15zm14.196-4.221c.063-1.05.325-1.922.787-2.615a5.361 5.361 0 011.764-1.669 7.419 7.419 0 012.394-.882 13.192 13.192 0 012.709-.284c.819 0 1.649.063 2.489.189.84.105 1.606.326 2.299.662.693.336 1.26.808 1.701 1.417.441.588.662 1.376.662 2.363v8.473c0 .735.042 1.439.126 2.111.084.672.231 1.176.441 1.512h-4.536a10.263 10.263 0 01-.221-.756 10.862 10.862 0 01-.094-.819 5.828 5.828 0 01-2.52 1.543c-.966.294-1.953.441-2.961.441a8.004 8.004 0 01-2.174-.283 4.978 4.978 0 01-1.764-.882 4.257 4.257 0 01-1.197-1.512c-.273-.609-.409-1.334-.409-2.174 0-.924.157-1.68.472-2.268.336-.609.756-1.092 1.26-1.449a5.595 5.595 0 011.764-.787 17.314 17.314 0 012.016-.441 34.206 34.206 0 011.985-.252 11.922 11.922 0 001.732-.284c.504-.126.903-.304 1.197-.535.294-.252.431-.609.41-1.071 0-.483-.084-.861-.252-1.134a1.481 1.481 0 00-.63-.662 2.056 2.056 0 00-.914-.315 5.989 5.989 0 00-1.102-.094c-.882 0-1.575.189-2.079.567-.504.378-.798 1.008-.882 1.89h-4.473zm10.332 3.307a2.184 2.184 0 01-.725.41 8.348 8.348 0 01-.913.22 12.73 12.73 0 01-1.008.158 18.8 18.8 0 00-1.071.157 8.839 8.839 0 00-1.008.252 2.976 2.976 0 00-.851.441 1.94 1.94 0 00-.567.662c-.147.273-.22.619-.22 1.039 0 .399.073.735.22 1.008.147.273.347.494.599.662.252.147.546.252.882.315.336.063.682.094 1.039.094.882 0 1.565-.147 2.048-.441.483-.294.84-.64 1.071-1.039.231-.42.367-.84.409-1.26.063-.42.095-.756.095-1.008v-1.67zm16.936 7.97l5.513-16.286h-4.442l-3.433 11.12h-.063l-3.434-11.12h-4.693l5.575 16.286h4.977zm18.301-9.891h-7.276c.021-.315.084-.672.189-1.071.126-.399.325-.777.598-1.134a3.43 3.43 0 011.134-.882c.483-.252 1.082-.378 1.796-.378 1.092 0 1.9.294 2.425.882.546.588.924 1.449 1.134 2.583zm-7.276 2.835h11.749a11.5 11.5 0 00-.315-3.623 8.71 8.71 0 00-1.449-3.087 6.942 6.942 0 00-2.52-2.142c-1.029-.546-2.236-.819-3.622-.819-1.239 0-2.373.221-3.402.662a7.936 7.936 0 00-2.615 1.827 7.816 7.816 0 00-1.701 2.709c-.399 1.05-.598 2.184-.598 3.402 0 1.26.189 2.415.567 3.465.399 1.05.955 1.953 1.669 2.709.714.756 1.586 1.344 2.615 1.764 1.029.399 2.184.598 3.465.598 1.848 0 3.423-.42 4.725-1.26 1.302-.84 2.268-2.236 2.898-4.189h-3.938c-.147.504-.546.987-1.197 1.449-.651.441-1.428.661-2.331.661-1.26 0-2.226-.325-2.898-.976-.672-.651-1.039-1.701-1.102-3.15zM324.632 644.693l7.465-22.491h-5.103l-5.071 15.813h-.063l-5.009-15.813h-5.072l7.277 22.491h5.576zm6.981-11.277c.063-1.05.326-1.922.788-2.615a5.361 5.361 0 011.764-1.669 7.419 7.419 0 012.394-.882 13.192 13.192 0 012.709-.284c.819 0 1.648.063 2.488.189.84.105 1.607.326 2.3.662.693.336 1.26.808 1.701 1.417.441.588.661 1.376.661 2.363v8.473c0 .735.042 1.439.126 2.111.084.672.231 1.176.441 1.512h-4.536a10.252 10.252 0 01-.22-.756 10.866 10.866 0 01-.095-.819 5.828 5.828 0 01-2.52 1.543c-.966.294-1.953.441-2.961.441a7.996 7.996 0 01-2.173-.283 4.978 4.978 0 01-1.764-.882 4.257 4.257 0 01-1.197-1.512c-.273-.609-.41-1.334-.41-2.174 0-.924.158-1.68.473-2.268.336-.609.756-1.092 1.26-1.449a5.595 5.595 0 011.764-.787 17.314 17.314 0 012.016-.441 34.173 34.173 0 011.984-.252 11.938 11.938 0 001.733-.284c.504-.126.903-.304 1.197-.535.294-.252.43-.609.409-1.071 0-.483-.084-.861-.252-1.134a1.481 1.481 0 00-.63-.662 2.052 2.052 0 00-.913-.315 6 6 0 00-1.103-.094c-.882 0-1.575.189-2.079.567-.504.378-.798 1.008-.882 1.89h-4.473zm10.332 3.307a2.18 2.18 0 01-.724.41 8.369 8.369 0 01-.914.22 12.73 12.73 0 01-1.008.158 18.8 18.8 0 00-1.071.157 8.839 8.839 0 00-1.008.252 2.97 2.97 0 00-.85.441 1.94 1.94 0 00-.567.662c-.147.273-.221.619-.221 1.039 0 .399.074.735.221 1.008.147.273.346.494.598.662.252.147.546.252.882.315.336.063.683.094 1.04.094.882 0 1.564-.147 2.047-.441.483-.294.84-.64 1.071-1.039.231-.42.368-.84.41-1.26.063-.42.094-.756.094-1.008v-1.67zm19.016-2.583h4.378c-.063-1.05-.315-1.953-.756-2.709a5.856 5.856 0 00-1.732-1.921 7.066 7.066 0 00-2.394-1.166 10.042 10.042 0 00-2.772-.378c-1.323 0-2.499.221-3.528.662a7.332 7.332 0 00-2.615 1.858c-.714.777-1.26 1.712-1.638 2.804-.357 1.071-.535 2.236-.535 3.496 0 1.218.199 2.342.598 3.371a7.852 7.852 0 001.67 2.614 7.66 7.66 0 002.583 1.733c1.029.399 2.152.598 3.37.598 2.163 0 3.938-.567 5.324-1.701 1.386-1.134 2.226-2.782 2.52-4.945h-4.316c-.147 1.008-.514 1.816-1.102 2.425-.567.588-1.386.882-2.457.882-.693 0-1.281-.157-1.764-.472a3.732 3.732 0 01-1.166-1.197 6.065 6.065 0 01-.598-1.67 8.842 8.842 0 01-.189-1.795c0-.609.063-1.218.189-1.827.126-.63.336-1.197.63-1.701a3.828 3.828 0 011.197-1.26c.483-.336 1.081-.504 1.795-.504 1.911 0 3.014.934 3.308 2.803zm6.793-.724c.063-1.05.325-1.922.787-2.615a5.361 5.361 0 011.764-1.669 7.419 7.419 0 012.394-.882 13.192 13.192 0 012.709-.284c.819 0 1.649.063 2.489.189.84.105 1.606.326 2.299.662.693.336 1.26.808 1.701 1.417.441.588.662 1.376.662 2.363v8.473c0 .735.042 1.439.126 2.111.084.672.231 1.176.441 1.512h-4.536a10.263 10.263 0 01-.221-.756 10.862 10.862 0 01-.094-.819 5.828 5.828 0 01-2.52 1.543c-.966.294-1.953.441-2.961.441a8.004 8.004 0 01-2.174-.283 4.978 4.978 0 01-1.764-.882 4.257 4.257 0 01-1.197-1.512c-.273-.609-.409-1.334-.409-2.174 0-.924.157-1.68.472-2.268.336-.609.756-1.092 1.26-1.449a5.595 5.595 0 011.764-.787 17.314 17.314 0 012.016-.441 34.206 34.206 0 011.985-.252 11.922 11.922 0 001.732-.284c.504-.126.903-.304 1.197-.535.294-.252.431-.609.41-1.071 0-.483-.084-.861-.252-1.134a1.481 1.481 0 00-.63-.662 2.056 2.056 0 00-.914-.315 5.989 5.989 0 00-1.102-.094c-.882 0-1.575.189-2.079.567-.504.378-.798 1.008-.882 1.89h-4.473zm10.332 3.307a2.184 2.184 0 01-.725.41 8.348 8.348 0 01-.913.22 12.73 12.73 0 01-1.008.158 18.8 18.8 0 00-1.071.157 8.839 8.839 0 00-1.008.252 2.976 2.976 0 00-.851.441 1.94 1.94 0 00-.567.662c-.147.273-.22.619-.22 1.039 0 .399.073.735.22 1.008.147.273.347.494.599.662.252.147.546.252.882.315.336.063.682.094 1.039.094.882 0 1.565-.147 2.048-.441.483-.294.84-.64 1.071-1.039.231-.42.367-.84.409-1.26.063-.42.095-.756.095-1.008v-1.67zm13.597-8.316v-4.882h-4.473v4.882h-2.709v2.993h2.709v9.607c0 .819.137 1.481.41 1.985.273.504.64.892 1.102 1.165a4.563 4.563 0 001.638.536c.63.105 1.292.157 1.985.157.441 0 .892-.01 1.354-.031.462-.021.882-.063 1.26-.126v-3.465c-.21.042-.43.073-.661.094a8.015 8.015 0 01-.725.032c-.756 0-1.26-.126-1.512-.378s-.378-.756-.378-1.512V631.4h3.276v-2.993h-3.276zm9.986-2.52v-3.685h-4.473v3.685h4.473zm-4.473 2.52v16.286h4.473v-16.286h-4.473zm11.947 8.159c0-.651.063-1.292.189-1.922.126-.63.336-1.186.63-1.669a3.627 3.627 0 011.228-1.166c.504-.315 1.134-.472 1.89-.472s1.386.157 1.89.472c.525.294.935.683 1.229 1.166.315.483.535 1.039.661 1.669.126.63.189 1.271.189 1.922s-.063 1.291-.189 1.921a5.055 5.055 0 01-.661 1.67 3.283 3.283 0 01-1.229 1.165c-.504.294-1.134.441-1.89.441s-1.386-.147-1.89-.441a3.625 3.625 0 01-1.228-1.165 5.502 5.502 0 01-.63-1.67 9.769 9.769 0 01-.189-1.921zm-4.473 0c0 1.302.199 2.478.598 3.528a7.816 7.816 0 001.701 2.709 7.55 7.55 0 002.646 1.701c1.029.399 2.184.598 3.465.598 1.281 0 2.436-.199 3.465-.598 1.05-.399 1.943-.966 2.678-1.701a7.816 7.816 0 001.701-2.709c.399-1.05.598-2.226.598-3.528s-.199-2.478-.598-3.528c-.399-1.071-.966-1.974-1.701-2.709-.735-.756-1.628-1.334-2.678-1.733-1.029-.42-2.184-.63-3.465-.63-1.281 0-2.436.21-3.465.63a7.34 7.34 0 00-2.646 1.733c-.735.735-1.302 1.638-1.701 2.709-.399 1.05-.598 2.226-.598 3.528zm19.743-8.159v16.286h4.473v-8.537c0-1.659.273-2.845.819-3.559.546-.735 1.428-1.103 2.646-1.103 1.071 0 1.816.336 2.236 1.008.42.651.63 1.649.63 2.993v9.198h4.473v-10.017c0-1.008-.094-1.922-.283-2.741-.168-.84-.473-1.543-.914-2.11-.441-.588-1.05-1.04-1.827-1.355-.756-.336-1.732-.504-2.929-.504-.945 0-1.869.221-2.772.662-.903.42-1.638 1.102-2.205 2.047h-.095v-2.268h-4.252zM319.119 852.386v-6.741h3.843c.567 0 1.113.042 1.638.126.525.084.987.252 1.386.504.399.231.714.567.945 1.008.252.441.378 1.018.378 1.732s-.126 1.292-.378 1.733a2.662 2.662 0 01-.945 1.039 4.004 4.004 0 01-1.386.473c-.525.084-1.071.126-1.638.126h-3.843zm-4.945-10.584v22.491h4.945v-8.064h5.198c1.407 0 2.604-.2 3.59-.599.988-.42 1.786-.966 2.395-1.638a5.956 5.956 0 001.354-2.299 8.42 8.42 0 00.441-2.678c0-.924-.147-1.816-.441-2.677a5.96 5.96 0 00-1.354-2.3c-.609-.672-1.407-1.207-2.395-1.606-.986-.42-2.183-.63-3.59-.63h-10.143zm31.482 12.6h-7.277c.021-.315.084-.672.189-1.071.126-.399.326-.777.599-1.134a3.43 3.43 0 011.134-.882c.483-.252 1.081-.378 1.795-.378 1.092 0 1.901.294 2.426.882.546.588.924 1.449 1.134 2.583zm-7.277 2.835h11.75a11.5 11.5 0 00-.315-3.623 8.71 8.71 0 00-1.449-3.087 6.942 6.942 0 00-2.52-2.142c-1.029-.546-2.237-.819-3.623-.819-1.239 0-2.373.221-3.402.662a7.932 7.932 0 00-2.614 1.827 7.816 7.816 0 00-1.701 2.709c-.399 1.05-.599 2.184-.599 3.402 0 1.26.189 2.415.567 3.465.399 1.05.956 1.953 1.67 2.709s1.585 1.344 2.614 1.764c1.029.399 2.184.598 3.465.598 1.848 0 3.423-.42 4.725-1.26 1.302-.84 2.268-2.236 2.898-4.189h-3.937c-.147.504-.546.987-1.197 1.449-.651.441-1.428.661-2.331.661-1.26 0-2.226-.325-2.898-.976-.672-.651-1.04-1.701-1.103-3.15zm20.055-9.23v-4.882h-4.473v4.882h-2.709V851h2.709v9.607c0 .819.137 1.481.41 1.985.273.504.64.892 1.102 1.165a4.563 4.563 0 001.638.536c.63.105 1.292.157 1.985.157.441 0 .892-.01 1.354-.031.462-.021.882-.063 1.26-.126v-3.465c-.21.042-.43.073-.661.094a8.015 8.015 0 01-.725.032c-.756 0-1.26-.126-1.512-.378s-.378-.756-.378-1.512V851h3.276v-2.993h-3.276zm5.387 0v16.286h4.473v-7.34c0-.735.073-1.417.22-2.047.147-.63.389-1.176.725-1.638a3.672 3.672 0 011.386-1.134c.567-.273 1.26-.41 2.079-.41.273 0 .556.021.85.063.294.021.546.053.756.095v-4.158a3.487 3.487 0 00-.976-.158c-.567 0-1.113.084-1.638.252a5.704 5.704 0 00-1.481.725 5.088 5.088 0 00-1.228 1.102c-.357.42-.641.882-.851 1.386h-.063v-3.024h-4.252zm16.825-2.52v-3.685h-4.473v3.685h4.473zm-4.473 2.52v16.286h4.473v-16.286h-4.473zm7.977 0v16.286h4.473v-8.537c0-1.659.273-2.845.819-3.559.546-.735 1.428-1.103 2.646-1.103 1.071 0 1.817.336 2.237 1.008.42.651.63 1.649.63 2.993v9.198h4.473v-10.017c0-1.008-.095-1.922-.284-2.741-.168-.84-.472-1.543-.913-2.11-.441-.588-1.05-1.04-1.827-1.355-.756-.336-1.733-.504-2.93-.504-.945 0-1.869.221-2.772.662-.903.42-1.638 1.102-2.205 2.047h-.094v-2.268h-4.253zm29.617 6.395h-7.277c.021-.315.084-.672.189-1.071.126-.399.326-.777.599-1.134a3.43 3.43 0 011.134-.882c.483-.252 1.081-.378 1.795-.378 1.092 0 1.901.294 2.426.882.546.588.924 1.449 1.134 2.583zm-7.277 2.835h11.75a11.5 11.5 0 00-.315-3.623 8.71 8.71 0 00-1.449-3.087 6.942 6.942 0 00-2.52-2.142c-1.029-.546-2.237-.819-3.623-.819-1.239 0-2.373.221-3.402.662a7.932 7.932 0 00-2.614 1.827 7.816 7.816 0 00-1.701 2.709c-.399 1.05-.599 2.184-.599 3.402 0 1.26.189 2.415.567 3.465.399 1.05.956 1.953 1.67 2.709s1.585 1.344 2.614 1.764c1.029.399 2.184.598 3.465.598 1.848 0 3.423-.42 4.725-1.26 1.302-.84 2.268-2.236 2.898-4.189h-3.937c-.147.504-.546.987-1.197 1.449-.651.441-1.428.661-2.331.661-1.26 0-2.226-.325-2.898-.976-.672-.651-1.04-1.701-1.103-3.15zm28.553-4.851v-6.741h3.843c.567 0 1.113.042 1.638.126.525.084.987.252 1.386.504.399.231.714.567.945 1.008.252.441.378 1.018.378 1.732s-.126 1.292-.378 1.733a2.662 2.662 0 01-.945 1.039 4.004 4.004 0 01-1.386.473c-.525.084-1.071.126-1.638.126h-3.843zm-4.946-10.584v22.491h4.946v-8.064h5.197c1.407 0 2.604-.2 3.591-.599.987-.42 1.785-.966 2.394-1.638a5.958 5.958 0 001.355-2.299 8.42 8.42 0 00.441-2.678c0-.924-.147-1.816-.441-2.677a5.962 5.962 0 00-1.355-2.3c-.609-.672-1.407-1.207-2.394-1.606-.987-.42-2.184-.63-3.591-.63h-10.143zm31.483 12.6h-7.277c.021-.315.084-.672.189-1.071.126-.399.326-.777.599-1.134a3.43 3.43 0 011.134-.882c.483-.252 1.081-.378 1.795-.378 1.092 0 1.901.294 2.426.882.546.588.924 1.449 1.134 2.583zm-7.277 2.835h11.75a11.5 11.5 0 00-.315-3.623 8.71 8.71 0 00-1.449-3.087 6.942 6.942 0 00-2.52-2.142c-1.029-.546-2.237-.819-3.623-.819-1.239 0-2.373.221-3.402.662a7.932 7.932 0 00-2.614 1.827 7.816 7.816 0 00-1.701 2.709c-.399 1.05-.599 2.184-.599 3.402 0 1.26.189 2.415.567 3.465.399 1.05.956 1.953 1.67 2.709s1.585 1.344 2.614 1.764c1.029.399 2.184.598 3.465.598 1.848 0 3.423-.42 4.725-1.26 1.302-.84 2.268-2.236 2.898-4.189h-3.937c-.147.504-.546.987-1.197 1.449-.651.441-1.428.661-2.331.661-1.26 0-2.226-.325-2.898-.976-.672-.651-1.04-1.701-1.103-3.15zm20.055-9.23v-4.882h-4.473v4.882h-2.709V851h2.709v9.607c0 .819.137 1.481.41 1.985.273.504.64.892 1.102 1.165a4.563 4.563 0 001.638.536c.63.105 1.292.157 1.985.157.441 0 .892-.01 1.354-.031.462-.021.882-.063 1.26-.126v-3.465c-.21.042-.43.073-.661.094a8.015 8.015 0 01-.725.032c-.756 0-1.26-.126-1.512-.378s-.378-.756-.378-1.512V851h3.276v-2.993h-3.276zm5.387 0v16.286h4.473v-7.34c0-.735.073-1.417.22-2.047.147-.63.389-1.176.725-1.638a3.672 3.672 0 011.386-1.134c.567-.273 1.26-.41 2.079-.41.273 0 .556.021.85.063.294.021.546.053.756.095v-4.158a3.487 3.487 0 00-.976-.158c-.567 0-1.113.084-1.638.252a5.704 5.704 0 00-1.481.725 5.088 5.088 0 00-1.228 1.102c-.357.42-.641.882-.851 1.386h-.063v-3.024h-4.252zm27.503 16.286v-16.286h-4.473v8.537c0 1.659-.273 2.856-.819 3.591-.546.714-1.428 1.071-2.646 1.071-1.071 0-1.817-.326-2.237-.977-.42-.672-.63-1.68-.63-3.024v-9.198h-4.473v10.017c0 1.008.084 1.932.252 2.772.189.819.504 1.523.945 2.111.441.567 1.04 1.008 1.796 1.323.777.315 1.764.472 2.961.472.945 0 1.869-.21 2.772-.63.903-.42 1.638-1.102 2.205-2.047h.094v2.268h4.253zm6.842-5.292h-4.252c.042 1.092.283 2.005.724 2.74a5.684 5.684 0 001.733 1.733 7.494 7.494 0 002.425.945c.903.189 1.827.283 2.772.283.924 0 1.827-.094 2.709-.283.903-.168 1.701-.473 2.394-.914a5.071 5.071 0 001.67-1.732c.441-.735.661-1.638.661-2.709 0-.756-.147-1.386-.441-1.89a3.83 3.83 0 00-1.165-1.292 5.954 5.954 0 00-1.67-.85 17.863 17.863 0 00-1.89-.536 75.427 75.427 0 00-1.858-.409 18.606 18.606 0 01-1.638-.41c-.462-.168-.84-.378-1.134-.63a1.226 1.226 0 01-.441-.976c0-.336.084-.599.252-.788.168-.21.367-.367.598-.472.252-.105.525-.168.819-.189.294-.042.567-.063.819-.063.798 0 1.491.157 2.079.472.588.294.914.872.977 1.733h4.252c-.084-1.008-.346-1.838-.787-2.489a4.894 4.894 0 00-1.607-1.606 6.786 6.786 0 00-2.236-.851 12.674 12.674 0 00-2.552-.252c-.882 0-1.743.084-2.583.252-.84.147-1.596.42-2.268.819a4.525 4.525 0 00-1.638 1.575c-.399.672-.598 1.533-.598 2.583 0 .714.147 1.323.441 1.827.294.483.682.893 1.165 1.229a7.4 7.4 0 001.638.787c.63.189 1.271.357 1.922.504 1.596.336 2.835.672 3.717 1.008.903.336 1.354.84 1.354 1.512 0 .399-.094.735-.283 1.008a2.349 2.349 0 01-.725.63 3.844 3.844 0 01-.945.347 5.289 5.289 0 01-2.268-.063 3.538 3.538 0 01-1.071-.473 3.042 3.042 0 01-.787-.85c-.189-.357-.284-.777-.284-1.26zm16.902 0h-4.253c.042 1.092.284 2.005.725 2.74a5.681 5.681 0 001.732 1.733 7.5 7.5 0 002.426.945c.903.189 1.827.283 2.772.283.924 0 1.827-.094 2.709-.283.903-.168 1.701-.473 2.394-.914a5.068 5.068 0 001.669-1.732c.441-.735.662-1.638.662-2.709 0-.756-.147-1.386-.441-1.89a3.832 3.832 0 00-1.166-1.292 5.948 5.948 0 00-1.669-.85 17.863 17.863 0 00-1.89-.536c-.63-.147-1.25-.283-1.859-.409a18.606 18.606 0 01-1.638-.41c-.462-.168-.84-.378-1.134-.63a1.226 1.226 0 01-.441-.976c0-.336.084-.599.252-.788.168-.21.368-.367.599-.472.252-.105.525-.168.819-.189.294-.042.567-.063.819-.063.798 0 1.491.157 2.079.472.588.294.913.872.976 1.733h4.253c-.084-1.008-.347-1.838-.788-2.489a4.891 4.891 0 00-1.606-1.606 6.792 6.792 0 00-2.237-.851 12.664 12.664 0 00-2.551-.252c-.882 0-1.743.084-2.583.252-.84.147-1.596.42-2.268.819a4.525 4.525 0 00-1.638 1.575c-.399.672-.599 1.533-.599 2.583 0 .714.147 1.323.441 1.827.294.483.683.893 1.166 1.229a7.4 7.4 0 001.638.787c.63.189 1.27.357 1.921.504 1.596.336 2.835.672 3.717 1.008.903.336 1.355.84 1.355 1.512 0 .399-.095.735-.284 1.008-.189.252-.43.462-.724.63a3.844 3.844 0 01-.945.347 5.3 5.3 0 01-2.268-.063 3.538 3.538 0 01-1.071-.473 3.046 3.046 0 01-.788-.85c-.189-.357-.283-.777-.283-1.26zm24.398-4.599h-7.276c.021-.315.084-.672.189-1.071.126-.399.325-.777.598-1.134a3.43 3.43 0 011.134-.882c.483-.252 1.082-.378 1.796-.378 1.092 0 1.9.294 2.425.882.546.588.924 1.449 1.134 2.583zm-7.276 2.835h11.749a11.5 11.5 0 00-.315-3.623 8.71 8.71 0 00-1.449-3.087 6.942 6.942 0 00-2.52-2.142c-1.029-.546-2.236-.819-3.622-.819-1.239 0-2.373.221-3.402.662a7.936 7.936 0 00-2.615 1.827 7.816 7.816 0 00-1.701 2.709c-.399 1.05-.598 2.184-.598 3.402 0 1.26.189 2.415.567 3.465.399 1.05.955 1.953 1.669 2.709.714.756 1.586 1.344 2.615 1.764 1.029.399 2.184.598 3.465.598 1.848 0 3.423-.42 4.725-1.26 1.302-.84 2.268-2.236 2.898-4.189h-3.938c-.147.504-.546.987-1.197 1.449-.651.441-1.428.661-2.331.661-1.26 0-2.226-.325-2.898-.976-.672-.651-1.039-1.701-1.102-3.15zm14.385-9.23v16.286h4.473v-8.537c0-1.659.273-2.845.819-3.559.546-.735 1.428-1.103 2.646-1.103 1.071 0 1.816.336 2.236 1.008.42.651.63 1.649.63 2.993v9.198h4.473v-10.017c0-1.008-.094-1.922-.283-2.741-.168-.84-.473-1.543-.914-2.11-.441-.588-1.05-1.04-1.827-1.355-.756-.336-1.732-.504-2.929-.504-.945 0-1.869.221-2.772.662-.903.42-1.638 1.102-2.205 2.047h-.095v-2.268h-4.252zM313.166 1070.32h4.284c0-.59.052-1.18.157-1.77.126-.61.326-1.15.599-1.64.273-.5.63-.9 1.071-1.19.462-.32 1.018-.48 1.669-.48.966 0 1.754.31 2.363.92.63.59.945 1.42.945 2.49 0 .67-.158 1.27-.473 1.79-.294.53-.672 1-1.134 1.42-.441.42-.934.81-1.48 1.17-.546.33-1.061.67-1.544 1-.945.65-1.848 1.29-2.709 1.92-.84.63-1.575 1.33-2.205 2.08a9.084 9.084 0 00-1.512 2.52c-.357.95-.535 2.06-.535 3.34h16.191v-3.84h-10.427a9.668 9.668 0 011.89-1.98c.714-.57 1.449-1.1 2.205-1.58.756-.5 1.502-1.01 2.237-1.51.756-.51 1.428-1.06 2.016-1.67a7.869 7.869 0 001.417-2.14c.357-.8.536-1.76.536-2.87 0-1.07-.21-2.04-.63-2.9a6.275 6.275 0 00-1.638-2.17 7.462 7.462 0 00-2.426-1.36 8.766 8.766 0 00-2.866-.47c-1.323 0-2.499.23-3.528.69a6.846 6.846 0 00-2.52 1.89c-.672.8-1.176 1.75-1.512 2.84-.336 1.07-.483 2.24-.441 3.5zm26.148-2.87v7.65h-5.796l5.701-7.65h.095zm0 11.34v5.1h4.252v-5.1h2.93v-3.69h-2.93v-13.26h-4l-9.576 12.85v4.1h9.324zm31.748-1.98v-15.41h-4.946v15.18c0 .4-.021.82-.063 1.26-.021.42-.115.82-.283 1.2-.147.36-.399.65-.756.88-.357.23-.861.35-1.512.35-.588 0-1.071-.09-1.449-.28a2.263 2.263 0 01-.851-.76c-.21-.34-.357-.73-.441-1.2a8.395 8.395 0 01-.126-1.51v-1.01h-4.473v1.96c0 1.24.21 2.3.63 3.18.42.86.977 1.57 1.67 2.14.693.55 1.48.95 2.362 1.2.882.27 1.796.41 2.741.41 1.68 0 3.013-.26 4-.76.987-.52 1.743-1.16 2.268-1.92.525-.78.861-1.61 1.008-2.49.147-.88.221-1.69.221-2.42zm3.657-4.19c.063-1.05.326-1.93.788-2.62a5.395 5.395 0 011.764-1.67 7.463 7.463 0 012.394-.88c.903-.19 1.806-.28 2.709-.28.819 0 1.648.06 2.488.19.84.1 1.607.32 2.3.66.693.33 1.26.81 1.701 1.41.441.59.661 1.38.661 2.37v8.47c0 .74.042 1.44.126 2.11.084.67.231 1.18.441 1.51h-4.536c-.084-.25-.157-.5-.22-.75-.042-.28-.074-.55-.095-.82a5.831 5.831 0 01-2.52 1.54c-.966.3-1.953.44-2.961.44-.777 0-1.501-.09-2.173-.28a4.974 4.974 0 01-1.764-.88c-.504-.4-.903-.91-1.197-1.52-.273-.6-.41-1.33-.41-2.17 0-.92.158-1.68.473-2.27a4.28 4.28 0 011.26-1.45 5.559 5.559 0 011.764-.78c.672-.19 1.344-.34 2.016-.44a36.14 36.14 0 011.984-.26 11.08 11.08 0 001.733-.28c.504-.13.903-.3 1.197-.54.294-.25.43-.6.409-1.07 0-.48-.084-.86-.252-1.13a1.513 1.513 0 00-.63-.66c-.252-.17-.556-.27-.913-.32a6.29 6.29 0 00-1.103-.09c-.882 0-1.575.19-2.079.57-.504.37-.798 1-.882 1.89h-4.473zm10.332 3.3c-.189.17-.43.31-.724.41-.273.09-.578.16-.914.22-.315.07-.651.12-1.008.16-.357.04-.714.1-1.071.16-.336.06-.672.15-1.008.25-.315.11-.598.25-.85.44-.231.17-.42.39-.567.66-.147.28-.221.62-.221 1.04 0 .4.074.74.221 1.01.147.27.346.49.598.66.252.15.546.25.882.32.336.06.683.09 1.04.09.882 0 1.564-.15 2.047-.44.483-.29.84-.64 1.071-1.04.231-.42.368-.84.41-1.26.063-.42.094-.76.094-1.01v-1.67zm7.928-8.31v16.28h4.473v-8.53c0-1.66.273-2.85.819-3.56.546-.74 1.428-1.11 2.646-1.11 1.071 0 1.816.34 2.236 1.01.42.65.63 1.65.63 2.99v9.2h4.473v-10.01c0-1.01-.094-1.93-.283-2.74-.168-.84-.473-1.55-.914-2.12-.441-.58-1.05-1.03-1.827-1.35-.756-.34-1.732-.5-2.929-.5-.945 0-1.869.22-2.772.66-.903.42-1.638 1.1-2.205 2.05h-.095v-2.27h-4.252zm26.869 2.71h4.284c0-.59.052-1.18.157-1.77.126-.61.326-1.15.599-1.64.273-.5.63-.9 1.071-1.19.462-.32 1.018-.48 1.669-.48.966 0 1.754.31 2.363.92.63.59.945 1.42.945 2.49 0 .67-.158 1.27-.473 1.79-.294.53-.672 1-1.134 1.42-.441.42-.934.81-1.48 1.17-.546.33-1.061.67-1.544 1-.945.65-1.848 1.29-2.709 1.92-.84.63-1.575 1.33-2.205 2.08a9.084 9.084 0 00-1.512 2.52c-.357.95-.535 2.06-.535 3.34h16.191v-3.84h-10.427a9.668 9.668 0 011.89-1.98c.714-.57 1.449-1.1 2.205-1.58.756-.5 1.502-1.01 2.237-1.51.756-.51 1.428-1.06 2.016-1.67a7.869 7.869 0 001.417-2.14c.357-.8.536-1.76.536-2.87 0-1.07-.21-2.04-.63-2.9a6.275 6.275 0 00-1.638-2.17 7.462 7.462 0 00-2.426-1.36 8.766 8.766 0 00-2.866-.47c-1.323 0-2.499.23-3.528.69a6.846 6.846 0 00-2.52 1.89c-.672.8-1.176 1.75-1.512 2.84-.336 1.07-.483 2.24-.441 3.5zm21.455 2.45v-1.35c.021-.55.063-1.1.126-1.67.063-.57.168-1.12.315-1.67.147-.57.346-1.07.598-1.51.273-.44.609-.8 1.008-1.07.42-.28.935-.41 1.544-.41s1.123.13 1.543.41c.42.27.767.63 1.04 1.07.273.44.472.94.598 1.51.147.55.252 1.1.315 1.67.084.57.126 1.12.126 1.67.021.52.032.98.032 1.35 0 .63-.021 1.4-.063 2.3-.042.88-.179 1.75-.41 2.59-.21.81-.567 1.52-1.071 2.11-.483.58-1.186.88-2.11.88-.903 0-1.596-.3-2.079-.88-.483-.59-.84-1.3-1.071-2.11-.21-.84-.336-1.71-.378-2.59-.042-.9-.063-1.67-.063-2.3zm-4.473 0c0 2.21.21 4.06.63 5.55.441 1.47 1.029 2.64 1.764 3.53.735.88 1.585 1.51 2.551 1.89.987.37 2.027.56 3.119.56 1.113 0 2.152-.19 3.118-.56.987-.38 1.848-1.01 2.583-1.89.756-.89 1.344-2.06 1.764-3.53.441-1.49.662-3.34.662-5.55 0-2.14-.221-3.93-.662-5.38-.42-1.47-1.008-2.65-1.764-3.53-.735-.88-1.596-1.51-2.583-1.89a8.44 8.44 0 00-3.118-.57c-1.092 0-2.132.19-3.119.57-.966.38-1.816 1.01-2.551 1.89-.735.88-1.323 2.06-1.764 3.53-.42 1.45-.63 3.24-.63 5.38zm17.99-2.45h4.284c0-.59.052-1.18.157-1.77.126-.61.326-1.15.599-1.64.273-.5.63-.9 1.071-1.19.462-.32 1.018-.48 1.669-.48.966 0 1.754.31 2.363.92.63.59.945 1.42.945 2.49 0 .67-.158 1.27-.473 1.79-.294.53-.672 1-1.134 1.42-.441.42-.934.81-1.48 1.17-.546.33-1.061.67-1.544 1-.945.65-1.848 1.29-2.709 1.92-.84.63-1.575 1.33-2.205 2.08a9.084 9.084 0 00-1.512 2.52c-.357.95-.535 2.06-.535 3.34h16.191v-3.84H460.08a9.668 9.668 0 011.89-1.98c.714-.57 1.449-1.1 2.205-1.58.756-.5 1.502-1.01 2.237-1.51.756-.51 1.428-1.06 2.016-1.67a7.869 7.869 0 001.417-2.14c.357-.8.536-1.76.536-2.87 0-1.07-.21-2.04-.63-2.9a6.275 6.275 0 00-1.638-2.17 7.462 7.462 0 00-2.426-1.36 8.766 8.766 0 00-2.866-.47c-1.323 0-2.499.23-3.528.69a6.846 6.846 0 00-2.52 1.89c-.672.8-1.176 1.75-1.512 2.84-.336 1.07-.483 2.24-.441 3.5zm21.454 2.45v-1.35c.021-.55.063-1.1.126-1.67.063-.57.168-1.12.315-1.67.147-.57.347-1.07.599-1.51.273-.44.609-.8 1.008-1.07.42-.28.934-.41 1.543-.41.609 0 1.124.13 1.544.41.42.27.766.63 1.039 1.07.273.44.473.94.599 1.51.147.55.252 1.1.315 1.67.084.57.126 1.12.126 1.67.021.52.031.98.031 1.35 0 .63-.021 1.4-.063 2.3-.042.88-.178 1.75-.409 2.59-.21.81-.567 1.52-1.071 2.11-.483.58-1.187.88-2.111.88-.903 0-1.596-.3-2.079-.88-.483-.59-.84-1.3-1.071-2.11-.21-.84-.336-1.71-.378-2.59-.042-.9-.063-1.67-.063-2.3zm-4.473 0c0 2.21.21 4.06.63 5.55.441 1.47 1.029 2.64 1.764 3.53.735.88 1.586 1.51 2.552 1.89.987.37 2.026.56 3.118.56a8.65 8.65 0 003.119-.56c.987-.38 1.848-1.01 2.583-1.89.756-.89 1.344-2.06 1.764-3.53.441-1.49.661-3.34.661-5.55 0-2.14-.22-3.93-.661-5.38-.42-1.47-1.008-2.65-1.764-3.53-.735-.88-1.596-1.51-2.583-1.89a8.445 8.445 0 00-3.119-.57c-1.092 0-2.131.19-3.118.57-.966.38-1.817 1.01-2.552 1.89-.735.88-1.323 2.06-1.764 3.53-.42 1.45-.63 3.24-.63 5.38zm363.365-2.45h4.284c0-.59.052-1.18.157-1.77.126-.61.326-1.15.599-1.64.273-.5.63-.9 1.071-1.19.462-.32 1.018-.48 1.669-.48.966 0 1.754.31 2.363.92.63.59.945 1.42.945 2.49 0 .67-.158 1.27-.473 1.79-.294.53-.672 1-1.134 1.42-.441.42-.934.81-1.48 1.17-.546.33-1.061.67-1.544 1-.945.65-1.848 1.29-2.709 1.92-.84.63-1.575 1.33-2.205 2.08a9.084 9.084 0 00-1.512 2.52c-.357.95-.535 2.06-.535 3.34h16.191v-3.84h-10.427a9.668 9.668 0 011.89-1.98c.714-.57 1.449-1.1 2.205-1.58.756-.5 1.502-1.01 2.237-1.51.756-.51 1.428-1.06 2.016-1.67a7.869 7.869 0 001.417-2.14c.357-.8.536-1.76.536-2.87 0-1.07-.21-2.04-.63-2.9a6.275 6.275 0 00-1.638-2.17 7.462 7.462 0 00-2.426-1.36 8.766 8.766 0 00-2.866-.47c-1.323 0-2.499.23-3.528.69a6.846 6.846 0 00-2.52 1.89c-.672.8-1.176 1.75-1.512 2.84-.336 1.07-.483 2.24-.441 3.5zm24.825 2.96c-.567 0-1.071-.12-1.512-.35-.42-.25-.767-.57-1.04-.94-.273-.4-.483-.84-.63-1.33a6.318 6.318 0 01-.189-1.54c0-.5.074-1 .221-1.48.147-.48.367-.91.661-1.29.294-.38.651-.69 1.071-.92.42-.23.893-.34 1.418-.34.567 0 1.071.11 1.512.34.441.23.808.55 1.102.95.315.38.546.82.693 1.32.168.48.252.98.252 1.48 0 .55-.073 1.07-.22 1.58-.147.48-.368.91-.662 1.29-.294.38-.661.68-1.102.91-.441.21-.966.32-1.575.32zm-3.213 4.94h-4.253c.126.97.389 1.83.788 2.59.399.75.913 1.39 1.543 1.92.63.52 1.355.91 2.174 1.16.819.28 1.701.41 2.646.41 1.575 0 2.908-.33 4-1.01a8.543 8.543 0 002.678-2.67 12.28 12.28 0 001.512-3.72c.315-1.37.472-2.73.472-4.1 0-1.38-.126-2.76-.378-4.12-.252-1.37-.703-2.58-1.354-3.66a7.42 7.42 0 00-2.615-2.61c-1.071-.67-2.446-1.01-4.126-1.01-1.155 0-2.205.21-3.15.63-.945.42-1.764 1-2.457 1.73a7.755 7.755 0 00-1.575 2.56c-.357.96-.536 2.01-.536 3.15 0 .88.137 1.75.41 2.61.273.86.703 1.63 1.291 2.3.63.69 1.397 1.25 2.3 1.67.903.4 1.827.6 2.772.6 1.071 0 2.016-.19 2.835-.57.819-.38 1.533-1.01 2.142-1.89l.063.06c-.042.61-.137 1.31-.284 2.08a8.732 8.732 0 01-.661 2.21 5.474 5.474 0 01-1.26 1.73c-.525.46-1.197.69-2.016.69-.777 0-1.428-.27-1.953-.82a3.746 3.746 0 01-1.008-1.92zm36.284-1.41v-15.41h-4.946v15.18c0 .4-.021.82-.063 1.26-.021.42-.115.82-.283 1.2-.147.36-.399.65-.756.88-.357.23-.861.35-1.512.35-.588 0-1.071-.09-1.449-.28a2.263 2.263 0 01-.851-.76c-.21-.34-.357-.73-.441-1.2a8.395 8.395 0 01-.126-1.51v-1.01h-4.473v1.96c0 1.24.21 2.3.63 3.18.42.86.977 1.57 1.67 2.14.693.55 1.48.95 2.362 1.2.882.27 1.796.41 2.741.41 1.68 0 3.013-.26 4-.76.987-.52 1.743-1.16 2.268-1.92.525-.78.861-1.61 1.008-2.49.147-.88.221-1.69.221-2.42zm3.657-4.19c.063-1.05.326-1.93.788-2.62a5.395 5.395 0 011.764-1.67 7.463 7.463 0 012.394-.88c.903-.19 1.806-.28 2.709-.28.819 0 1.648.06 2.488.19.84.1 1.607.32 2.3.66.693.33 1.26.81 1.701 1.41.441.59.661 1.38.661 2.37v8.47c0 .74.042 1.44.126 2.11.084.67.231 1.18.441 1.51h-4.536c-.084-.25-.157-.5-.22-.75-.042-.28-.074-.55-.095-.82a5.831 5.831 0 01-2.52 1.54c-.966.3-1.953.44-2.961.44-.777 0-1.501-.09-2.173-.28a4.974 4.974 0 01-1.764-.88c-.504-.4-.903-.91-1.197-1.52-.273-.6-.41-1.33-.41-2.17 0-.92.158-1.68.473-2.27a4.28 4.28 0 011.26-1.45 5.559 5.559 0 011.764-.78c.672-.19 1.344-.34 2.016-.44a36.14 36.14 0 011.984-.26 11.08 11.08 0 001.733-.28c.504-.13.903-.3 1.197-.54.294-.25.43-.6.409-1.07 0-.48-.084-.86-.252-1.13a1.513 1.513 0 00-.63-.66c-.252-.17-.556-.27-.913-.32a6.29 6.29 0 00-1.103-.09c-.882 0-1.575.19-2.079.57-.504.37-.798 1-.882 1.89h-4.473zm10.332 3.3c-.189.17-.43.31-.724.41-.273.09-.578.16-.914.22-.315.07-.651.12-1.008.16-.357.04-.714.1-1.071.16-.336.06-.672.15-1.008.25-.315.11-.598.25-.85.44-.231.17-.42.39-.567.66-.147.28-.221.62-.221 1.04 0 .4.074.74.221 1.01.147.27.346.49.598.66.252.15.546.25.882.32.336.06.683.09 1.04.09.882 0 1.564-.15 2.047-.44.483-.29.84-.64 1.071-1.04.231-.42.368-.84.41-1.26.063-.42.094-.76.094-1.01v-1.67zm7.928-8.31v16.28h4.473v-8.53c0-1.66.273-2.85.819-3.56.546-.74 1.428-1.11 2.646-1.11 1.071 0 1.816.34 2.236 1.01.42.65.63 1.65.63 2.99v9.2h4.473v-10.01c0-1.01-.094-1.93-.283-2.74-.168-.84-.473-1.55-.914-2.12-.441-.58-1.05-1.03-1.827-1.35-.756-.34-1.732-.5-2.929-.5-.945 0-1.869.22-2.772.66-.903.42-1.638 1.1-2.205 2.05h-.095v-2.27h-4.252zm26.869 2.71h4.284c0-.59.052-1.18.157-1.77.126-.61.326-1.15.599-1.64.273-.5.63-.9 1.071-1.19.462-.32 1.018-.48 1.669-.48.966 0 1.754.31 2.363.92.63.59.945 1.42.945 2.49 0 .67-.158 1.27-.473 1.79-.294.53-.672 1-1.134 1.42-.441.42-.934.81-1.48 1.17-.546.33-1.061.67-1.544 1-.945.65-1.848 1.29-2.709 1.92-.84.63-1.575 1.33-2.205 2.08a9.084 9.084 0 00-1.512 2.52c-.357.95-.535 2.06-.535 3.34h16.191v-3.84h-10.427a9.668 9.668 0 011.89-1.98c.714-.57 1.449-1.1 2.205-1.58.756-.5 1.502-1.01 2.237-1.51.756-.51 1.428-1.06 2.016-1.67a7.869 7.869 0 001.417-2.14c.357-.8.536-1.76.536-2.87 0-1.07-.21-2.04-.63-2.9a6.275 6.275 0 00-1.638-2.17 7.462 7.462 0 00-2.426-1.36 8.766 8.766 0 00-2.866-.47c-1.323 0-2.499.23-3.528.69a6.846 6.846 0 00-2.52 1.89c-.672.8-1.176 1.75-1.512 2.84-.336 1.07-.483 2.24-.441 3.5zm21.455 2.45v-1.35c.021-.55.063-1.1.126-1.67.063-.57.168-1.12.315-1.67.147-.57.346-1.07.598-1.51.273-.44.609-.8 1.008-1.07.42-.28.935-.41 1.544-.41s1.123.13 1.543.41c.42.27.767.63 1.04 1.07.273.44.472.94.598 1.51.147.55.252 1.1.315 1.67.084.57.126 1.12.126 1.67.021.52.032.98.032 1.35 0 .63-.021 1.4-.063 2.3-.042.88-.179 1.75-.41 2.59-.21.81-.567 1.52-1.071 2.11-.483.58-1.186.88-2.11.88-.903 0-1.596-.3-2.079-.88-.483-.59-.84-1.3-1.071-2.11-.21-.84-.336-1.71-.378-2.59-.042-.9-.063-1.67-.063-2.3zm-4.473 0c0 2.21.21 4.06.63 5.55.441 1.47 1.029 2.64 1.764 3.53.735.88 1.585 1.51 2.551 1.89.987.37 2.027.56 3.119.56 1.113 0 2.152-.19 3.118-.56.987-.38 1.848-1.01 2.583-1.89.756-.89 1.344-2.06 1.764-3.53.441-1.49.662-3.34.662-5.55 0-2.14-.221-3.93-.662-5.38-.42-1.47-1.008-2.65-1.764-3.53-.735-.88-1.596-1.51-2.583-1.89a8.44 8.44 0 00-3.118-.57c-1.092 0-2.132.19-3.119.57-.966.38-1.816 1.01-2.551 1.89-.735.88-1.323 2.06-1.764 3.53-.42 1.45-.63 3.24-.63 5.38zm17.99-2.45h4.284c0-.59.052-1.18.157-1.77.126-.61.326-1.15.599-1.64.273-.5.63-.9 1.071-1.19.462-.32 1.018-.48 1.669-.48.966 0 1.754.31 2.363.92.63.59.945 1.42.945 2.49 0 .67-.158 1.27-.473 1.79-.294.53-.672 1-1.134 1.42-.441.42-.934.81-1.48 1.17-.546.33-1.061.67-1.544 1-.945.65-1.848 1.29-2.709 1.92-.84.63-1.575 1.33-2.205 2.08a9.084 9.084 0 00-1.512 2.52c-.357.95-.535 2.06-.535 3.34h16.191v-3.84H982.08a9.668 9.668 0 011.89-1.98c.714-.57 1.449-1.1 2.205-1.58.756-.5 1.502-1.01 2.237-1.51.756-.51 1.428-1.06 2.016-1.67a7.869 7.869 0 001.417-2.14c.357-.8.536-1.76.536-2.87 0-1.07-.21-2.04-.63-2.9a6.275 6.275 0 00-1.638-2.17 7.462 7.462 0 00-2.426-1.36 8.766 8.766 0 00-2.866-.47c-1.323 0-2.499.23-3.528.69a6.846 6.846 0 00-2.52 1.89c-.672.8-1.176 1.75-1.512 2.84-.336 1.07-.483 2.24-.441 3.5zm21.454 2.45v-1.35c.021-.55.063-1.1.126-1.67.063-.57.168-1.12.315-1.67.147-.57.347-1.07.599-1.51.273-.44.609-.8 1.006-1.07.42-.28.94-.41 1.55-.41.6 0 1.12.13 1.54.41.42.27.77.63 1.04 1.07.27.44.47.94.6 1.51.14.55.25 1.1.31 1.67.09.57.13 1.12.13 1.67.02.52.03.98.03 1.35 0 .63-.02 1.4-.06 2.3-.05.88-.18 1.75-.41 2.59-.21.81-.57 1.52-1.07 2.11-.49.58-1.19.88-2.11.88-.91 0-1.6-.3-2.084-.88-.483-.59-.84-1.3-1.071-2.11-.21-.84-.336-1.71-.378-2.59-.042-.9-.063-1.67-.063-2.3zm-4.473 0c0 2.21.21 4.06.63 5.55.441 1.47 1.029 2.64 1.764 3.53.735.88 1.586 1.51 2.552 1.89.987.37 2.023.56 3.123.56 1.11 0 2.15-.19 3.11-.56.99-.38 1.85-1.01 2.59-1.89.75-.89 1.34-2.06 1.76-3.53.44-1.49.66-3.34.66-5.55 0-2.14-.22-3.93-.66-5.38-.42-1.47-1.01-2.65-1.76-3.53-.74-.88-1.6-1.51-2.59-1.89-.96-.38-2-.57-3.11-.57-1.1 0-2.136.19-3.123.57-.966.38-1.817 1.01-2.552 1.89-.735.88-1.323 2.06-1.764 3.53-.42 1.45-.63 3.24-.63 5.38zM284.226 144.387v38.556h7.938v-25.812h.108l16.038 25.812h8.478v-38.556h-7.938v25.866h-.108l-16.092-25.866h-8.424zm57.982 21.6h-12.474c.036-.54.144-1.152.324-1.836a6.326 6.326 0 011.026-1.944c.504-.612 1.152-1.116 1.944-1.512.828-.432 1.854-.648 3.078-.648 1.872 0 3.258.504 4.158 1.512.936 1.008 1.584 2.484 1.944 4.428zm-12.474 4.86h20.142c.144-2.16-.036-4.23-.54-6.21-.504-1.98-1.332-3.744-2.484-5.292-1.116-1.548-2.556-2.772-4.32-3.672-1.764-.936-3.834-1.404-6.21-1.404-2.124 0-4.068.378-5.832 1.134a13.602 13.602 0 00-4.482 3.132c-1.26 1.296-2.232 2.844-2.916 4.644-.684 1.8-1.026 3.744-1.026 5.832 0 2.16.324 4.14.972 5.94.684 1.8 1.638 3.348 2.862 4.644 1.224 1.296 2.718 2.304 4.482 3.024 1.764.684 3.744 1.026 5.94 1.026 3.168 0 5.868-.72 8.1-2.16 2.232-1.44 3.888-3.834 4.968-7.182h-6.75c-.252.864-.936 1.692-2.052 2.484-1.116.756-2.448 1.134-3.996 1.134-2.16 0-3.816-.558-4.968-1.674-1.152-1.116-1.782-2.916-1.89-5.4zm56.579 12.096l8.802-27.918h-7.884l-5.13 18.9h-.108l-4.752-18.9h-7.452l-4.644 18.954h-.108l-5.13-18.954h-8.1l8.856 27.918h7.938l4.752-18.738h.108l4.968 18.738h7.884zm27.856-38.556v38.556h27.27v-7.128h-18.792v-31.428h-8.478zm49.967 21.6h-12.474c.036-.54.144-1.152.324-1.836a6.326 6.326 0 011.026-1.944c.504-.612 1.152-1.116 1.944-1.512.828-.432 1.854-.648 3.078-.648 1.872 0 3.258.504 4.158 1.512.936 1.008 1.584 2.484 1.944 4.428zm-12.474 4.86h20.142c.144-2.16-.036-4.23-.54-6.21-.504-1.98-1.332-3.744-2.484-5.292-1.116-1.548-2.556-2.772-4.32-3.672-1.764-.936-3.834-1.404-6.21-1.404-2.124 0-4.068.378-5.832 1.134a13.602 13.602 0 00-4.482 3.132c-1.26 1.296-2.232 2.844-2.916 4.644-.684 1.8-1.026 3.744-1.026 5.832 0 2.16.324 4.14.972 5.94.684 1.8 1.638 3.348 2.862 4.644 1.224 1.296 2.718 2.304 4.482 3.024 1.764.684 3.744 1.026 5.94 1.026 3.168 0 5.868-.72 8.1-2.16 2.232-1.44 3.888-3.834 4.968-7.182h-6.75c-.252.864-.936 1.692-2.052 2.484-1.116.756-2.448 1.134-3.996 1.134-2.16 0-3.816-.558-4.968-1.674-1.152-1.116-1.782-2.916-1.89-5.4zm24.341-7.236c.108-1.8.558-3.294 1.35-4.482a9.193 9.193 0 013.024-2.862c1.224-.72 2.592-1.224 4.104-1.512a22.613 22.613 0 014.644-.486c1.404 0 2.826.108 4.266.324 1.44.18 2.754.558 3.942 1.134a7.67 7.67 0 012.916 2.43c.756 1.008 1.134 2.358 1.134 4.05v14.526c0 1.26.072 2.466.216 3.618.144 1.152.396 2.016.756 2.592h-7.776c-.144-.432-.27-.864-.378-1.296a18.624 18.624 0 01-.162-1.404 9.992 9.992 0 01-4.32 2.646 17.34 17.34 0 01-5.076.756c-1.332 0-2.574-.162-3.726-.486-1.152-.324-2.16-.828-3.024-1.512a7.297 7.297 0 01-2.052-2.592c-.468-1.044-.702-2.286-.702-3.726 0-1.584.27-2.88.81-3.888.576-1.044 1.296-1.872 2.16-2.484a9.592 9.592 0 013.024-1.35 29.681 29.681 0 013.456-.756 58.61 58.61 0 013.402-.432 20.459 20.459 0 002.97-.486c.864-.216 1.548-.522 2.052-.918.504-.432.738-1.044.702-1.836 0-.828-.144-1.476-.432-1.944a2.537 2.537 0 00-1.08-1.134c-.432-.288-.954-.468-1.566-.54a10.273 10.273 0 00-1.89-.162c-1.512 0-2.7.324-3.564.972-.864.648-1.368 1.728-1.512 3.24h-7.668zm17.712 5.67c-.324.288-.738.522-1.242.702-.468.144-.99.27-1.566.378-.54.108-1.116.198-1.728.27-.612.072-1.224.162-1.836.27-.576.108-1.152.252-1.728.432-.54.18-1.026.432-1.458.756-.396.288-.72.666-.972 1.134-.252.468-.378 1.062-.378 1.782 0 .684.126 1.26.378 1.728.252.468.594.846 1.026 1.134.432.252.936.432 1.512.54a9.65 9.65 0 001.782.162c1.512 0 2.682-.252 3.51-.756.828-.504 1.44-1.098 1.836-1.782.396-.72.63-1.44.702-2.16.108-.72.162-1.296.162-1.728v-2.862zm29.038 13.662l9.45-27.918h-7.614l-5.886 19.062h-.108l-5.886-19.062h-8.046l9.558 27.918h8.532zm31.378-16.956h-12.474c.036-.54.144-1.152.324-1.836a6.326 6.326 0 011.026-1.944c.504-.612 1.152-1.116 1.944-1.512.828-.432 1.854-.648 3.078-.648 1.872 0 3.258.504 4.158 1.512.936 1.008 1.584 2.484 1.944 4.428zm-12.474 4.86h20.142c.144-2.16-.036-4.23-.54-6.21-.504-1.98-1.332-3.744-2.484-5.292-1.116-1.548-2.556-2.772-4.32-3.672-1.764-.936-3.834-1.404-6.21-1.404-2.124 0-4.068.378-5.832 1.134a13.602 13.602 0 00-4.482 3.132c-1.26 1.296-2.232 2.844-2.916 4.644-.684 1.8-1.026 3.744-1.026 5.832 0 2.16.324 4.14.972 5.94.684 1.8 1.638 3.348 2.862 4.644 1.224 1.296 2.718 2.304 4.482 3.024 1.764.684 3.744 1.026 5.94 1.026 3.168 0 5.868-.72 8.1-2.16 2.232-1.44 3.888-3.834 4.968-7.182h-6.75c-.252.864-.936 1.692-2.052 2.484-1.116.756-2.448 1.134-3.996 1.134-2.16 0-3.816-.558-4.968-1.674-1.152-1.116-1.782-2.916-1.89-5.4zm48.957-9.018v-10.854h9.288c1.944 0 3.402.432 4.374 1.296.972.828 1.458 2.178 1.458 4.05 0 1.944-.486 3.348-1.458 4.212-.972.864-2.43 1.296-4.374 1.296h-9.288zm-8.478-17.442v38.556h8.478v-15.066h8.478c2.124 0 3.654.468 4.59 1.404.936.936 1.548 2.412 1.836 4.428.216 1.548.378 3.168.486 4.86.108 1.692.396 3.15.864 4.374h8.478c-.396-.54-.702-1.188-.918-1.944-.18-.792-.324-1.62-.432-2.484a64.097 64.097 0 01-.162-2.538c-.036-.828-.072-1.548-.108-2.16a20.36 20.36 0 00-.432-2.916 8.852 8.852 0 00-.918-2.646 6.879 6.879 0 00-1.674-2.106c-.684-.612-1.548-1.062-2.592-1.35v-.108c2.16-.864 3.708-2.124 4.644-3.78.972-1.656 1.458-3.618 1.458-5.886 0-1.476-.27-2.844-.81-4.104a9.414 9.414 0 00-2.268-3.402c-.972-.972-2.16-1.728-3.564-2.268-1.368-.576-2.916-.864-4.644-.864h-20.79zm56.928 21.6H626.59c.036-.54.144-1.152.324-1.836a6.326 6.326 0 011.026-1.944c.504-.612 1.152-1.116 1.944-1.512.828-.432 1.854-.648 3.078-.648 1.872 0 3.258.504 4.158 1.512.936 1.008 1.584 2.484 1.944 4.428zm-12.474 4.86h20.142c.144-2.16-.036-4.23-.54-6.21-.504-1.98-1.332-3.744-2.484-5.292-1.116-1.548-2.556-2.772-4.32-3.672-1.764-.936-3.834-1.404-6.21-1.404-2.124 0-4.068.378-5.832 1.134a13.602 13.602 0 00-4.482 3.132c-1.26 1.296-2.232 2.844-2.916 4.644-.684 1.8-1.026 3.744-1.026 5.832 0 2.16.324 4.14.972 5.94.684 1.8 1.638 3.348 2.862 4.644 1.224 1.296 2.718 2.304 4.482 3.024 1.764.684 3.744 1.026 5.94 1.026 3.168 0 5.868-.72 8.1-2.16 2.232-1.44 3.888-3.834 4.968-7.182h-6.75c-.252.864-.936 1.692-2.052 2.484-1.116.756-2.448 1.134-3.996 1.134-2.16 0-3.816-.558-4.968-1.674-1.152-1.116-1.782-2.916-1.89-5.4zm31.145-1.836c0-1.152.108-2.25.324-3.294.252-1.08.648-2.034 1.188-2.862a6.046 6.046 0 012.106-2.052c.864-.504 1.926-.756 3.186-.756 1.188 0 2.196.27 3.024.81a6.046 6.046 0 012.052 2.106c.504.864.864 1.836 1.08 2.916.252 1.08.378 2.16.378 3.24 0 1.152-.126 2.268-.378 3.348a8.085 8.085 0 01-1.134 2.808c-.504.792-1.188 1.44-2.052 1.944-.828.468-1.872.702-3.132.702s-2.322-.252-3.186-.756a6.395 6.395 0 01-2.052-1.998 9.427 9.427 0 01-1.08-2.862 16.755 16.755 0 01-.324-3.294zm20.736 23.706v-37.692h-7.29v3.564h-.108c-.864-1.548-2.07-2.646-3.618-3.294-1.512-.684-3.132-1.026-4.86-1.026-2.124 0-3.978.414-5.562 1.242a11.61 11.61 0 00-3.888 3.348c-1.044 1.368-1.818 2.952-2.322 4.752a20.53 20.53 0 00-.756 5.562c0 2.7.378 4.986 1.134 6.858.756 1.836 1.71 3.33 2.862 4.482 1.152 1.116 2.412 1.926 3.78 2.43 1.404.468 2.754.702 4.05.702 1.728 0 3.402-.324 5.022-.972 1.62-.648 2.88-1.728 3.78-3.24h.108v13.284h7.668zm31.96-9.774v-27.918h-7.668v14.634c0 2.844-.468 4.896-1.404 6.156-.936 1.224-2.448 1.836-4.536 1.836-1.836 0-3.114-.558-3.834-1.674-.72-1.152-1.08-2.88-1.08-5.184v-15.768h-7.668v17.172c0 1.728.144 3.312.432 4.752.324 1.404.864 2.61 1.62 3.618.756.972 1.782 1.728 3.078 2.268 1.332.54 3.024.81 5.076.81 1.62 0 3.204-.36 4.752-1.08 1.548-.72 2.808-1.89 3.78-3.51h.162v3.888h7.29zm24.587-16.956h-12.474c.036-.54.144-1.152.324-1.836a6.326 6.326 0 011.026-1.944c.504-.612 1.152-1.116 1.944-1.512.828-.432 1.854-.648 3.078-.648 1.872 0 3.258.504 4.158 1.512.936 1.008 1.584 2.484 1.944 4.428zm-12.474 4.86h20.142c.144-2.16-.036-4.23-.54-6.21-.504-1.98-1.332-3.744-2.484-5.292-1.116-1.548-2.556-2.772-4.32-3.672-1.764-.936-3.834-1.404-6.21-1.404-2.124 0-4.068.378-5.832 1.134a13.602 13.602 0 00-4.482 3.132c-1.26 1.296-2.232 2.844-2.916 4.644-.684 1.8-1.026 3.744-1.026 5.832 0 2.16.324 4.14.972 5.94.684 1.8 1.638 3.348 2.862 4.644 1.224 1.296 2.718 2.304 4.482 3.024 1.764.684 3.744 1.026 5.94 1.026 3.168 0 5.868-.72 8.1-2.16 2.232-1.44 3.888-3.834 4.968-7.182h-6.75c-.252.864-.936 1.692-2.052 2.484-1.116.756-2.448 1.134-3.996 1.134-2.16 0-3.816-.558-4.968-1.674-1.152-1.116-1.782-2.916-1.89-5.4zm30.605 3.024h-7.29c.072 1.872.486 3.438 1.242 4.698a9.74 9.74 0 002.97 2.97c1.224.756 2.61 1.296 4.158 1.62 1.548.324 3.132.486 4.752.486 1.584 0 3.132-.162 4.644-.486 1.548-.288 2.916-.81 4.104-1.566a8.693 8.693 0 002.862-2.97c.756-1.26 1.134-2.808 1.134-4.644 0-1.296-.252-2.376-.756-3.24a6.564 6.564 0 00-1.998-2.214c-.828-.612-1.782-1.098-2.862-1.458a30.62 30.62 0 00-3.24-.918c-1.08-.252-2.142-.486-3.186-.702a31.913 31.913 0 01-2.808-.702c-.792-.288-1.44-.648-1.944-1.08-.504-.432-.756-.99-.756-1.674 0-.576.144-1.026.432-1.35.288-.36.63-.63 1.026-.81.432-.18.9-.288 1.404-.324a9.97 9.97 0 011.404-.108c1.368 0 2.556.27 3.564.81 1.008.504 1.566 1.494 1.674 2.97h7.29c-.144-1.728-.594-3.15-1.35-4.266a8.39 8.39 0 00-2.754-2.754c-1.116-.684-2.394-1.17-3.834-1.458a21.718 21.718 0 00-4.374-.432c-1.512 0-2.988.144-4.428.432-1.44.252-2.736.72-3.888 1.404a7.756 7.756 0 00-2.808 2.7c-.684 1.152-1.026 2.628-1.026 4.428 0 1.224.252 2.268.756 3.132a6.953 6.953 0 001.998 2.106c.828.54 1.764.99 2.808 1.35 1.08.324 2.178.612 3.294.864 2.736.576 4.86 1.152 6.372 1.728 1.548.576 2.322 1.44 2.322 2.592 0 .684-.162 1.26-.486 1.728a4.023 4.023 0 01-1.242 1.08 6.59 6.59 0 01-1.62.594 9.079 9.079 0 01-1.674.162c-.756 0-1.494-.09-2.214-.27a6.063 6.063 0 01-1.836-.81 5.222 5.222 0 01-1.35-1.458c-.324-.612-.486-1.332-.486-2.16zm32.759-18.846v-8.37h-7.668v8.37h-4.644v5.13h4.644v16.47c0 1.404.234 2.538.702 3.402.468.864 1.098 1.53 1.89 1.998.828.468 1.764.774 2.808.918 1.08.18 2.214.27 3.402.27.756 0 1.53-.018 2.322-.054a18.246 18.246 0 002.16-.216v-5.94c-.36.072-.738.126-1.134.162-.396.036-.81.054-1.242.054-1.296 0-2.16-.216-2.592-.648-.432-.432-.648-1.296-.648-2.592v-13.824h5.616v-5.13h-5.616z" fill="#284664"/>
    <path d="M219 91.793a8.5 8.5 0 018.5-8.5h1105c4.69 0 8.5 3.806 8.5 8.5v150.5H219v-150.5z" stroke="#BFC8D1" stroke-width="3"/>
    <rect x="280.5" y="371.143" width="999" height="85.5" rx="10" stroke="#BFC8D1" stroke-width="3"/>
    <rect x="280.5" y="590.743" width="999" height="85.5" rx="10" stroke="#BFC8D1" stroke-width="3"/>
    <rect x="280.5" y="810.343" width="999" height="85.5" rx="10" stroke="#BFC8D1" stroke-width="3"/>
    <rect x="280.5" y="1029.94" width="486.239" height="85.5" rx="10" stroke="#BFC8D1" stroke-width="3"/>
    <rect x="793.262" y="1029.94" width="486.239" height="85.5" rx="10" stroke="#BFC8D1" stroke-width="3"/>
    <path d="M717.958 1092.49h-28.62c-2.52 0-4.5-1.97-4.5-4.48v-27.6c0-2.51 1.98-4.48 4.5-4.48h28.62c2.52 0 4.68 1.97 4.68 4.48v27.42c-.18 2.51-2.16 4.66-4.68 4.66zm-5.401-32.62v-7.89m-17.819 7.89v-7.89m27.72 13.8h-37.62" stroke="#13B5EA" stroke-width="3" stroke-miterlimit="10" stroke-linecap="round" stroke-linejoin="round"/>
    <path d="M710.759 1084.78c2.087 0 3.78-1.68 3.78-3.76s-1.693-3.76-3.78-3.76a3.768 3.768 0 00-3.78 3.76c0 2.08 1.692 3.76 3.78 3.76zm532.561 8.62h-28.62c-2.52 0-4.5-1.97-4.5-4.48v-27.6c0-2.51 1.98-4.48 4.5-4.48h28.62c2.52 0 4.68 1.97 4.68 4.48v27.42c-.18 2.51-2.16 4.66-4.68 4.66zm-5.4-32.62v-7.89m-17.82 7.89v-7.89m27.72 13.81h-37.62" stroke="#13B5EA" stroke-width="3" stroke-miterlimit="10" stroke-linecap="round" stroke-linejoin="round"/>
    <path d="M1236.12 1085.7c2.09 0 3.78-1.69 3.78-3.77s-1.69-3.76-3.78-3.76-3.78 1.68-3.78 3.76 1.69 3.77 3.78 3.77z" stroke="#13B5EA" stroke-width="3" stroke-miterlimit="10" stroke-linecap="round" stroke-linejoin="round"/>
  </g>
  <defs>
    <filter id="filter0_d" x="238.5" y="33.943" width="1155" height="1096.5" filterUnits="userSpaceOnUse" color-interpolation-filters="sRGB">
      <feFlood flood-opacity="0" result="BackgroundImageFix"/>
      <feColorMatrix in="SourceAlpha" values="0 0 0 0 0 0 0 0 0 0 0 0 0 0 0 0 0 0 127 0"/>
      <feOffset/>
      <feGaussianBlur stdDeviation="7.5"/>
      <feColorMatrix values="0 0 0 0 0 0 0 0 0 0 0 0 0 0 0 0 0 0 0.15 0"/>
      <feBlend in2="BackgroundImageFix" result="effect1_dropShadow"/>
      <feBlend in="SourceGraphic" in2="effect1_dropShadow" result="shape"/>
    </filter>
    <filter id="filter1_d" x="757.994" y="1192.31" width="300" height="117.75" filterUnits="userSpaceOnUse" color-interpolation-filters="sRGB">
      <feFlood flood-opacity="0" result="BackgroundImageFix"/>
      <feColorMatrix in="SourceAlpha" values="0 0 0 0 0 0 0 0 0 0 0 0 0 0 0 0 0 0 127 0"/>
      <feOffset/>
      <feGaussianBlur stdDeviation="7.5"/>
      <feColorMatrix values="0 0 0 0 0 0 0 0 0 0 0 0 0 0 0 0 0 0 0.15 0"/>
      <feBlend in2="BackgroundImageFix" result="effect1_dropShadow"/>
      <feBlend in="SourceGraphic" in2="effect1_dropShadow" result="shape"/>
    </filter>
    <filter id="filter2_d" x="1057.5" y="1192.31" width="300" height="117.75" filterUnits="userSpaceOnUse" color-interpolation-filters="sRGB">
      <feFlood flood-opacity="0" result="BackgroundImageFix"/>
      <feColorMatrix in="SourceAlpha" values="0 0 0 0 0 0 0 0 0 0 0 0 0 0 0 0 0 0 127 0"/>
      <feOffset/>
      <feGaussianBlur stdDeviation="7.5"/>
      <feColorMatrix values="0 0 0 0 0 0 0 0 0 0 0 0 0 0 0 0 0 0 0.15 0"/>
      <feBlend in2="BackgroundImageFix" result="effect1_dropShadow"/>
      <feBlend in="SourceGraphic" in2="effect1_dropShadow" result="shape"/>
    </filter>
    <filter id="filter3_d" x="199.787" y="64.081" width="1160.42" height="1132.55" filterUnits="userSpaceOnUse" color-interpolation-filters="sRGB">
      <feFlood flood-opacity="0" result="BackgroundImageFix"/>
      <feColorMatrix in="SourceAlpha" values="0 0 0 0 0 0 0 0 0 0 0 0 0 0 0 0 0 0 127 0"/>
      <feOffset/>
      <feGaussianBlur stdDeviation="7.5"/>
      <feColorMatrix values="0 0 0 0 0 0 0 0 0 0 0 0 0 0 0 0 0 0 0.15 0"/>
      <feBlend in2="BackgroundImageFix" result="effect1_dropShadow"/>
      <feBlend in="SourceGraphic" in2="effect1_dropShadow" result="shape"/>
    </filter>
  </defs>
</svg>
